/* XPM */
static char *result[] = {
/* columns rows colors chars-per-pixel */
"64 64 190 2 ",
"   c #010101",
".  c #05020A",
"X  c #08040C",
"o  c #04090D",
"O  c #0A0A0A",
"+  c #0A0113",
"@  c #060D13",
"#  c #0A0A14",
"$  c #0E011A",
"%  c #0C0D1A",
"&  c #11041E",
"*  c #120E17",
"=  c #061016",
"-  c #09131D",
";  c #07141B",
":  c #19131E",
">  c #120123",
",  c #16002B",
"<  c #18002F",
"1  c #0C1722",
"2  c #0A1C25",
"3  c #0D1E2B",
"4  c #181528",
"5  c #1B0134",
"6  c #1E003A",
"7  c #1F0835",
"8  c #121E31",
"9  c #181430",
"0  c #211928",
"q  c #21033E",
"w  c #210A37",
"e  c #291B37",
"r  c #0E2531",
"t  c #0F2B39",
"y  c #0D2833",
"u  c #112234",
"i  c #122B3C",
"p  c #122638",
"a  c #0B222C",
"s  c #220043",
"d  c #260049",
"f  c #28004F",
"g  c #2A0152",
"h  c #2E0059",
"j  c #32035E",
"k  c #152E42",
"l  c #192540",
"z  c #143345",
"x  c #17334A",
"c  c #1A324C",
"v  c #143A4C",
"b  c #193C54",
"n  c #1F3B5B",
"m  c #193A51",
"M  c #3C2D4A",
"N  c #330164",
"B  c #3A0D64",
"V  c #37016A",
"C  c #38026D",
"Z  c #3B0C68",
"A  c #3B0272",
"S  c #3F027A",
"D  c #463655",
"F  c #471F6E",
"G  c #4E1D7E",
"H  c #4E316A",
"J  c #4E2574",
"K  c #553870",
"L  c #164255",
"P  c #17465A",
"I  c #1B445D",
"U  c #1A4C64",
"Y  c #1E4A67",
"T  c #1C526B",
"R  c #1E5A75",
"E  c #1F5F7A",
"W  c #204C6A",
"Q  c #224365",
"!  c #20506F",
"~  c #294B75",
"^  c #254C71",
"/  c #225373",
"(  c #25597D",
")  c #29537C",
"_  c #21617E",
"`  c #5E4873",
"'  c #62477B",
"]  c #46018A",
"[  c #49038D",
"{  c #480788",
"}  c #4B0293",
"|  c #4E019A",
" . c #51049A",
".. c #542384",
"X. c #5302A2",
"o. c #5601AA",
"O. c #5903AC",
"+. c #5B09A9",
"@. c #5C02B5",
"#. c #5F01BC",
"$. c #6001BD",
"%. c #6F2FAE",
"&. c #6F32AA",
"*. c #6F2DB0",
"=. c #712AB7",
"-. c #285C83",
";. c #216482",
":. c #29638A",
">. c #256B8C",
",. c #256687",
"<. c #2C6792",
"1. c #2B6A93",
"2. c #2B6F98",
"3. c #316092",
"4. c #257293",
"5. c #287195",
"6. c #2A759B",
"7. c #2A789E",
"8. c #27789A",
"9. c #2B7DA3",
"0. c #2E7EA8",
"q. c #70538A",
"w. c #775499",
"e. c #7C5C9A",
"r. c #7A4FA3",
"t. c #7D53A5",
"y. c #6901CF",
"u. c #6501C7",
"i. c #6C01D4",
"p. c #6E01DA",
"a. c #7101DE",
"s. c #7401E4",
"d. c #7701EA",
"f. c #7901EE",
"g. c #7B01F3",
"h. c #7E01FA",
"j. c #804FAF",
"k. c #805AA4",
"l. c #8B68AB",
"z. c #936CB8",
"x. c #946CBC",
"c. c #8336CE",
"v. c #862CDD",
"b. c #8101FF",
"n. c #8913FE",
"m. c #8E1BFF",
"M. c #901DFF",
"N. c #8E25F5",
"B. c #982FFF",
"V. c #9326FF",
"C. c #9B33FF",
"Z. c #9E3CFF",
"A. c #9534F3",
"S. c #9E5EDC",
"D. c #9A70C4",
"F. c #A466DF",
"G. c #A673D7",
"H. c #A379CC",
"J. c #9E4CEF",
"K. c #A242FF",
"L. c #A64CFF",
"P. c #AB54FF",
"I. c #AE5BFF",
"U. c #A454F2",
"Y. c #AB67ED",
"T. c #B37BE9",
"R. c #AF60FD",
"E. c #B364FF",
"W. c #B66CFF",
"Q. c #BB76FF",
"!. c #C07FFF",
"~. c #2C84AB",
"^. c #2C88AE",
"/. c #2B80A6",
"(. c #2E8AB3",
"). c #2F8EB8",
"_. c #2E87B0",
"`. c #3187B3",
"'. c #3189B6",
"]. c #328DBA",
"[. c #3192BE",
"{. c #368FC2",
"}. c #3393C2",
"|. c #3299C6",
" X c #339FCC",
".X c #AE80DA",
"XX c #B182DD",
"oX c #B482E4",
"OX c #C388FC",
"+X c None",
/* pixels */
"+X+X+X+X+X+X+X+X+X+X+X+X+X+X+X+X+X+X+X+X+X+X+X+X+X+X+X+X+X+X+X+X+X+X+X+X+X+X+X+X+X+X+X+X+X+X+X+X+X+X+X+X+X+X+X+X+X+X+X+X+X+X+X+X",
"+X+X+X+X+X+X+X+X+X+X+X+X+X+X+X+X+X+X+X+X+X+X+X+X+X+X+X+X+X+X+X+X+X+X+X+X+X+X+X+X+X+X+X+X+X+X+X+X+X+X+X+X+X+X+X+X+X+X+X+X+X+X+X+X",
"+X+X+X+X+X+X+X+X+X+X+X+X+X+X+X+X+X+X+X+X+X+X+X+X+X+X+X+X+X+X+X+X+X+X+X+X+X+X+X+X+X+X+X+X+X+X+X+X+X+X+X+X+X+X+X+X+X+X+X+X+X+X+X+X",
"+X+X+X+X+X+X+X+X+X+X+X+X+X+X+X+X+X+X+X+X+X+X+X+X+X+X+X+X+X+XO       O +X+X+X+X+X+X+X+X+X+X+X+X+X+X+X+X+X+X+X+X+X+X+X+X+X+X+X+X+X",
"+X+X+X+X+X+X+X+X+X+X+X+X+X+X+X+X+X+X+X+X+X+X+X+X+X+X+X+X+X+XO           +X+X+X+X+X+X+X+X+X+X+X+X+X+X+X+X+X+X+X+X+X+X+X+X+X+X+X+X",
"+X+X+X+X+X+X+X+X+X+X+X+X+X+X+X+X+X+X+X+X+X+X+X+X+X+X+X+X+X+X    . 5       O +X+X+X+X+X+X+X+X+X+X+X+X+X+X+X+X+X+X+X+X+X+X+X+X+X+X",
"+X+X+X+X+X+X+X+X+X+X+X+X+X+X+X+X+X+X+X+X+X+X+X+X+X+X+X+X+X+X+X    y.| ,       +X+X+X+X+X+X+X+X+X+X+X+X+X+X+X+X+X+X+X+X+X+X+X+X+X",
"+X+X+X+X+X+X+X+X+X+X+X+X+X+X+X+X+X+X+X+X+X+X+X+X+X+X+X+X+X+X+X    V b.d.f     O +X+X+X+X+X+X+X+X+X+X+X+X+X+X+X+X+X+X+X+X+X+X+X+X",
"+X+X+X+X+X+X+X+X+X+X+X+X+X+X+X+X+X+X+X+X+X+X+X+X+X+X+X+X+X+X+X    . g.b.g.N       +X+X+X+X+X+X+X+X+X+X+X+X+X+X+X+X+X+X+X+X+X+X+X",
"+X+X+X+X+X+X+X+X+X+X+X+X+X+X+XO O   O   O O O O O +X+X+X+X+X+X+X    } h.b.g.h       +X+X+X+X+X+X+X+X+X+X+X+X+X+X+X+X+X+X+X+X+X+X",
"+X+X+X+X+X+X+X+X+X+X+X+X                                O +X+X+X    , i.b.b.d.s     O +X+X+X+X+X+X+X+X+X+X+X+X+X+X+X+X+X+X+X+X+X",
"+X+X+X+X+X+X+X+X+X+X+X      o z U E E E R T b a =             O O     ] b.b.b.p.6     +X+X+X+X+X+X+X      +X+X+X+X+X+X+X+X+X+X+X",
"+X+X+X+X+X+X+X+X+X+X      2 0. X X X X X X X X X X(.,.v @             5 f.b.b.b.d..     +X+X+X+X+XO         +X+X+X+X+X+X+X+X+X+X",
"+X+X+X+X+X+X+X+X+X+X+X        z 8. X X X X X X X X X X X|.8.L o         s d.b.b.b.|     O +X+X+X+X    ;     +X+X+X+X+X+X+X+X+X+X",
"+X+X+X+X+X+X+X+X+X+X+X+XO         3 T (. X X X X X X X X X X XU           s d.b.b.b.5     +X+X+XO     7.-   O +X+X+X+X+X+X+X+X+X",
"+X+X+X+X+X+X+X+X+X+X+X+X+X+XO           L E R T E ;.8.|. X X X^.  1 -       h g.b.b.$.    O +X+X    v  XL     +X+X+X+X+X+X+X+X+X",
"+X+X+X+X+X+X+X+X+X+X+X+X+X+X+X+XO           .   O o ; y P >.(. X2 % 6.k     . X.h.b.g.>     +X+X  o 4. XT     +X+X+X+X+X+X+X+X+X",
"+X+X+X+X+X+X+X+X+X+X+X+X+X+X+X+X+X*           A A j q >     - P v   <.}.W o   $ ] b.b.}     O     3 [. X(     +X+X+X+X+X+X+X+X+X",
"+X+X+X+X+X+X+X+X+X+X+X+X+X+X+XO O             } n.n.N.v.=...w       c [.|.( o     } b.d.X         T  X X,.    +X+X+X+X+X+X+X+X+X",
"+X+X+X+X+X+X+X+X+X+X+X+X+XO         > h X..   Z N.C.Z.L.I.E.Y.t.e   . I ]. X( .   . O.b.g       = ~. X X1.    +X+X+X+X+X+X+X+X+X",
"+X+X+X+X+X+X+X+X+X+X+X+X      . d o.s.h.X.    $ G J.E.Q.T.G.x.k.w.D     p (.|.W     + X.]       P  X X X>.    +X+X+X+X+X+X+X+X+X",
"+X+X+X+X+X+X+X+X+X+X        s @.g.h.h.o.+       . H G.' e *               a (.).x       $       E  X X X;.    +X+X+X+X+X+X+X+X+X",
"+X+X+X+X+X+X+X+X+X.     5 o.g.b.b.g.G .       2 @   *                       t [.5.          .   E  X X XR     +X+X+X+X+X+X+X+X+X",
"+X+X+X+X+X+X+XO       C f.b.b.b.d.h     o v 5.8.2         O +X+X+X+XO         i 8.o   > Z [ }   R  X X XP     +X+X+X+X+X+X+X+X+X",
"+X+X+X+X+X+XO     + | h.b.b.b.a.f     = 5. X/.2       +X+X+X+X+X+X+X+X+X+X      o   . *.V.n.+.  _  X X Xi     +X+X+X+X+X+X+X+X+X",
"+X+X+X+X+XO     + @.b.b.b.b.u.5     2 0. X9.;       +X+X+X+X+X+X+X+X+X+X+X+X      * r.P.C.M.{   4. X X|.o   O +X+X+X+X+X+X+X+X+X",
"+X+X+X+X+X    5 $.b.b.b.b.#.>     r (. X7.@       +X+X+X+X+X+X+X+X+X+X+X+X+X+X    O G.E.K.V.B o ~. X X/.    +X+X+X+X+X+X+X+X+X+X",
"+X+X+X+X    > i.b.b.b.g.o.+     1 ~. X(.;       +X+X+X+X+X+X+X+X+X+X+X+X+X+X+X+X    ' !.P.A.7 2 [. X XT     +X+X+X+X+X+X+X+X+X+X",
"+X+X+XO   . O.b.b.p.} q .     o >.[./.i         +X+X+X+X+X+X+X+X+X+X+X+X+X+X+X+X    4 OXI.c.# v  X X X;   O +X+X+X+X+X+X+X+X+X+X",
"+X+X+X    V d.O.N $           p U 2 .   :     +X+X+X+X+X+X+X+X+X+X+X+X+X+X+X+X+X+X    oXE.F   ;. X X>.    +X+X+X+X+X+X+X+X+X+X+X",
"+X+XO     g 5                 .   .   X q.    +X+X+X+X+X+X+X+X+X+X+X+X+X+X+X+X+X+X    D.S.. = ^.|.8.2     +X+X+X+X        O +X+X",
"+X+X                +XO       8 ~ 9   K l.    +X+X+X+X+X+X+X+X+X+X+X+X+X+X+X+X+X+X    z.H   r R y o     O +XO               +X+X",
"+X+XO         +X+X+X+X    % <.{.0.# . F.z.    +X+X+X+X+X+X+X+X+X+X+X+X+X+X+X+X+X+X    e.X       o               . 5 h     . +X+X",
"+X+X+X+X+X+X+X+X+X+X+X    ~  X X^   J Q..X    +X+X+X+X+X+X+X+X+X+X+X+X+X+X+X+X+X+X    4   = y E i           > V @.d.N     +X+X+X",
"+X+X+X+X+X+X+X+X+X+XX   % }. X|.p $ c.W.OX:     +X+X+X+X+X+X+X+X+X+X+X+X+X+X+X+X        z ^.|.>.o     . s } s.b.b.o..   O +X+X+X",
"+X+X+X+X+X+X+X+X+X+X    n  X X'.@ w A.I.OX`     +X+X+X+X+X+X+X+X+X+X+X+X+X+X+XO       - ]. X/.;     $ @.h.b.h.b.u.>     +X+X+X+X",
"+X+X+X+X+X+X+X+X+X+X    <. X X6.. B C.L.Q.T.O     +X+X+X+X+X+X+X+X+X+X+X+X+X+X      @ 0. X^.a     , u.b.b.b.h.@.5     +X+X+X+X+X",
"+X+X+X+X+X+X+X+X+XO   . {. X X:.  { V.Z.E.w.O       +X+X+X+X+X+X+X+X+X+X+X+X      - /. X7.-     6 y.b.b.b.b.@.+     O +X+X+X+X+X",
"+X+X+X+X+X+X+X+X+X    4  X X X/   +.M.B.&.    @     O +X+X+X+X+X+X+X+X+X+X      2 ^. X4.@     h s.b.b.h.h.} .     O +X+X+X+X+X+X",
"+X+X+X+X+X+X+X+X+X.   x  X X XU   { { B &   o 6.i           +X+X+X+XO         2 5.>.z .   . N f.h.b.b.d.N       O +X+X+X+X+X+X+X",
"+X+X+X+X+X+X+X+X+X    Q  X X XT   .           1.(.i                       0 O O -       . ] f.b.b.f.X.<       +X+X+X+X+X+X+X+X+X",
"+X+X+X+X+X+X+X+X+X    )  X X X!       &       k '.(.t       O .   O 4 M k.oXK .       + @.b.b.g.o.6       O +X+X+X+X+X+X+X+X+X+X",
"+X+X+X+X+X+X+X+X+X    :. X X Xx       ] +.$     Y |.(.k     D l.x.H.oXOX!.W.U...&     +.b.a.X.q .       +X+X+X+X+X+X+X+X+X+X+X+X",
"+X+X+X+X+X+X+X+X+X    :. X X0.+       f b.@..   . /  X[.I o   e k.Y.W.E.P.L.Z.N.Z   . | g $         O +X+X+X+X+X+X+X+X+X+X+X+X+X",
"+X+X+X+X+X+X+X+X+X    ,. X XI         . d.b. ..   . / |.}.c       0 J *.v.N.V.n. .              O +X+X+X+X+X+X+X+X+X+X+X+X+X+X+X",
"+X+X+X+X+X+X+X+X+X    (  X'.1     O     ] b.b.[ $   . Q }.<.  4 c -     & w g V N           * +X+X+X+X+X+X+X+X+X+X+X+X+X+X+X+X+X",
"+X+X+X+X+X+X+X+X+X    Q  X~     +X+X    > g.b.h.o.+     l 3.% . ].`.:.I r - O .     .         . +X+X+X+X+X+X+X+X+X+X+X+X+X+X+X+X",
"+X+X+X+X+X+X+X+X+XO   i ].+     +X+XO     } b.b.h.] .     . #   /  X X X|.'./.7.8.8.7.-.3           +X+X+X+X+X+X+X+X+X+X+X+X+X+X",
"+X+X+X+X+X+X+X+X+XO   % -.    O +X+X+X    5 b.b.b.f.d           u  X X X X X X X X X X X'.W 1           +X+X+X+X+X+X+X+X+X+X+X+X",
"+X+X+X+X+X+X+X+X+X+X    X     +X+X+X+X+X    } b.b.b.d.f           8 -.'. X X X X X X X X X X X7.x .       +X+X+X+X+X+X+X+X+X+X+X",
"+X+X+X+X+X+X+X+X+X+X          +X+X+X+X+X    . a.b.b.b.g.6               u W 6.}. X X X X X X X X X<.@     O +X+X+X+X+X+X+X+X+X+X",
"+X+X+X+X+X+X+X+X+X+X+X      +X+X+X+X+X+X+X    6 i.b.b.b.]     * O               # u c b b b x u #         +X+X+X+X+X+X+X+X+X+X+X",
"+X+X+X+X+X+X+X+X+X+X+X+X+X+X+X+X+X+X+X+X+XO     6 d.b.b.i.<     +X+X+XO O                               +X+X+X+X+X+X+X+X+X+X+X+X",
"+X+X+X+X+X+X+X+X+X+X+X+X+X+X+X+X+X+X+X+X+X+X      g g.b.b.}     +X+X+X+X+X+X+XO X O     O     O O +X+X+X+X+X+X+X+X+X+X+X+X+X+X+X",
"+X+X+X+X+X+X+X+X+X+X+X+X+X+X+X+X+X+X+X+X+X+X+X      h g.b.g.X   O +X+X+X+X+X+X+X+X+X+X+X+X+X+X+X+X+X+X+X+X+X+X+X+X+X+X+X+X+X+X+X",
"+X+X+X+X+X+X+X+X+X+X+X+X+X+X+X+X+X+X+X+X+X+X+X+X      s d.b.A     +X+X+X+X+X+X+X+X+X+X+X+X+X+X+X+X+X+X+X+X+X+X+X+X+X+X+X+X+X+X+X",
"+X+X+X+X+X+X+X+X+X+X+X+X+X+X+X+X+X+X+X+X+X+X+X+X+XO     > [ y.    +X+X+X+X+X+X+X+X+X+X+X+X+X+X+X+X+X+X+X+X+X+X+X+X+X+X+X+X+X+X+X",
"+X+X+X+X+X+X+X+X+X+X+X+X+X+X+X+X+X+X+X+X+X+X+X+X+X+X        , .     +X+X+X+X+X+X+X+X+X+X+X+X+X+X+X+X+X+X+X+X+X+X+X+X+X+X+X+X+X+X",
"+X+X+X+X+X+X+X+X+X+X+X+X+X+X+X+X+X+X+X+X+X+X+X+X+X+X+X+X          O +X+X+X+X+X+X+X+X+X+X+X+X+X+X+X+X+X+X+X+X+X+X+X+X+X+X+X+X+X+X",
"+X+X+X+X+X+X+X+X+X+X+X+X+X+X+X+X+X+X+X+X+X+X+X+X+X+X+X+X+X+X      +X+X+X+X+X+X+X+X+X+X+X+X+X+X+X+X+X+X+X+X+X+X+X+X+X+X+X+X+X+X+X",
"+X+X+X+X+X+X+X+X+X+X+X+X+X+X+X+X+X+X+X+X+X+X+X+X+X+X+X+X+X+X+X+X+X+X+X+X+X+X+X+X+X+X+X+X+X+X+X+X+X+X+X+X+X+X+X+X+X+X+X+X+X+X+X+X",
"+X+X+X+X+X+X+X+X+X+X+X+X+X+X+X+X+X+X+X+X+X+X+X+X+X+X+X+X+X+X+X+X+X+X+X+X+X+X+X+X+X+X+X+X+X+X+X+X+X+X+X+X+X+X+X+X+X+X+X+X+X+X+X+X",
"+X+X+X+X+X+X+X+X+X+X+X+X+X+X+X+X+X+X+X+X+X+X+X+X+X+X+X+X+X+X+X+X+X+X+X+X+X+X+X+X+X+X+X+X+X+X+X+X+X+X+X+X+X+X+X+X+X+X+X+X+X+X+X+X",
"+X+X+X+X+X+X+X+X+X+X+X+X+X+X+X+X+X+X+X+X+X+X+X+X+X+X+X+X+X+X+X+X+X+X+X+X+X+X+X+X+X+X+X+X+X+X+X+X+X+X+X+X+X+X+X+X+X+X+X+X+X+X+X+X"
};
