/* XPM */
static char *result[] = {
/* columns rows colors chars-per-pixel */
"64 64 24 1 ",
"  c black",
". c #11262C",
"X c #13272E",
"o c #14282F",
"O c #162B32",
"+ c #182D35",
"@ c #192E37",
"# c #193038",
"$ c #1A313A",
"% c #1B333D",
"& c #1D353F",
"* c #1E3742",
"= c #1F3943",
"- c #213C47",
"; c #213D49",
": c #24424E",
"> c #264653",
", c #264754",
"< c #254955",
"1 c #264855",
"2 c #254956",
"3 c #299BF3",
"4 c #2A9DF8",
"5 c None",
/* pixels */
"5555555555555555555555555555555>>5555555555555555555555555555555",
"5555555555555555555555555555555>>5555555555555555555555555555555",
"555555555555555555555555555555>>>>555555555555555555555555555555",
"55555555555555555555555555555>>>>>>55555555555555555555555555555",
"55555555555555555555555555555>>>>>>55555555555555555555555555555",
"5555555555555555555555555555>>>  >>>5555555555555555555555555555",
"5555555555555555555555555555>>    1>5555555555555555555555555555",
"555555555555555555555555555>>>    >>>555555555555555555555555555",
"55555555555555555555555555>>>      >>>55555555555555555555555555",
"55555555555555555555555555>>>  44  >>>55555555555555555555555555",
"5555555555555555555555555>>>   44   >>>5555555555555555555555555",
"5555555555555555555555555>>>  4444  >>>5555555555555555555555555",
"555555555555555555555555>>>   4444   >>>555555555555555555555555",
"55555555555555555555555>>>   444444   >>>55555555555555555555555",
"55555555555555555555555>>>   444444   >>>55555555555555555555555",
"5555555555555555555555>>>   44444444   >>>5555555555555555555555",
"5555555555555555555555>>>  4444444444  >>>5555555555555555555555",
"555555555555555555555>>>   4444444444   >>>555555555555555555555",
"555555555555555555555>>   444444444444   >>555555555555555555555",
"55555555555555555555>>>   4444    4444   >>>55555555555555555555",
"55555555555555555555>>   444        444   >>55555555555555555555",
"5555555555555555555>>>   44   >>>>   44   >>>5555555555555555555",
"5555555555555555555>2   44   >>>>>>   44   >>>555555555555555555",
"555555555555555555>>   44  >>>>>>>>>>  44   >>555555555555555555",
"555555555555555555>>   4  >>>>>>>>>>>>  3   >>>55555555555555555",
"55555555555555555>>      >>>>>>>>>>>>>>      >>,5555555555555555",
"5555555555555555>>>     >>>>>>>>>>>>>>>>     >>>5555555555555555",
"555555555555555>>>     $>>>>>>>>>>>>>>>>>     >>>555555555555555",
"555555555555555>>>    >>>>>>>      >>>>>>>     >>555555555555555",
"55555555555555>>>    >>>>>>   4444   >>>>>>    >>>55555555555555",
"55555555555555>>    >>>>>>   444444   >>>>>>    >>55555555555555",
"5555555555555>>    >>>>>>   44444444   >>>>>>   >>>5555555555555",
"555555555555>>   >>>>>>>   4444444444   >>>>>>    >>>55555555555",
"5555555555>>>   >>>>>>>   4444    4444   >>>>>>    >>>5555555555",
"555555555>>>   >>>>>>>   4444  >>  4444   >>>>>>    >>>555555555",
"55555555>>>   >>>>>>>  44444  #>>@  44444  >>>>>>>   >>>>5555555",
"5555555>>>   :>>>>>>  44444  %>>>>%  44444  >>>>>>>   >>>5555555",
"555555>>>   $>>>>>>  44444  &>>>>>>&  44444  >>>>>>>   >>>555555",
"55555>>>   >>>>>>>  44444 >->>    >>;> 44444  >>>>>>>   >>>55555",
"55555>>>  =>>>>>   44444 >>>> 4444 >>>>  4444   >>>>>>   >>55555",
"55555>>>  >>>>>   44444 o>>> 444444 >>>>  4444  >>>>>>   >>55555",
"55555>>>  >>>>   44444 >>>> 44444444 >>>O  4444   >>>>  >>>55555",
"55555>>>   >>   4444  +>>  4444444444  >>%  44444  >:  >>>>55555",
"55555>>>>      4444  X>>> 444444444444 .>>+  44444    >>>>>55555",
"555555>>>>    4444  *>>  44444444444444  >>;  44444   >>>>555555",
"5555555>>>   44444 >>>  44444444444444444 >>> 444444  >>>5555555",
"5555555>>>  444444 >>  4444444444444444444    444444  >>>5555555",
"5555555>>>  444444   4444444444444444444444444444444  >>>5555555",
"5555555>>   4444444444444444444444444444444444444444   >>5555555",
"5555555>>   4444444444444444444444444444444444444444   >>5555555",
"555555>>>   44444444                        44444444   >>>555555",
"555555>>>                                              >>>555555",
"555555>>>                                              >>>555555",
"555555>>>><>>>>>               >>>              >>>>>>>>>>555555",
"555555>>>>>>>>>>             >>>>>,>            >>>>>>>>>>555555",
"555555>>>>>>>>>>           >>>>>>>>>>>          >>55555555555555",
"55555555555555>>          >>>>5555>>>>>         >>55555555555555",
"55555555555555>>       >>>>>>5555555>>>>>       >>55555555555555",
"55555555555555>>      >>>>555555555555>>>>>     >>55555555555555",
"55555555555555>>    >>>>>555555555555555>>>>>   >>55555555555555",
"55555555555555>>   >>>>>55555555555555555>>>>>  >>55555555555555",
"55555555555555>>>>>>>>55555555555555555555>>>>>>>>55555555555555",
"55555555555555>>>>>>5555555555555555555555555>>>>>55555555555555",
"55555555555555>>>>5555555555555555555555555555>>>>55555555555555"
};
