/* XPM */
static char *_1656467184[] = {
/* columns rows colors chars-per-pixel */
"64 64 236 2 ",
"   c None",
".  c #0C040A",
"X  c #0C0B0C",
"o  c #070406",
"O  c #11080E",
"+  c #0E0810",
"@  c #140412",
"#  c #190314",
"$  c #140D13",
"%  c #1C0A1A",
"&  c #1A0819",
"*  c #081614",
"=  c #141314",
"-  c #1C131B",
";  c #1B1B1B",
":  c #101518",
">  c #23091D",
",  c #23041D",
"<  c #20191F",
"1  c #131922",
"2  c #250521",
"3  c #2B0524",
"4  c #2B0925",
"5  c #2A0926",
"6  c #33052A",
"7  c #340A2D",
"8  c #38032C",
"9  c #2C152A",
"0  c #2A1829",
"q  c #3B0A33",
"w  c #3C0432",
"e  c #2A1D31",
"r  c #371935",
"t  c #321A2F",
"y  c #15292B",
"u  c #053427",
"i  c #083E37",
"p  c #112E2A",
"a  c #242324",
"s  c #2C2A2B",
"d  c #372435",
"f  c #343434",
"g  c #3D393B",
"h  c #282130",
"j  c #430235",
"k  c #4D023D",
"l  c #430B3B",
"z  c #470A3B",
"x  c #50023C",
"c  c #41333E",
"v  c #084636",
"b  c #045B3D",
"n  c #2A2F4C",
"m  c #4C0C42",
"M  c #550244",
"N  c #5A0145",
"B  c #540D4A",
"V  c #5A0C4D",
"C  c #590648",
"Z  c #471648",
"A  c #52114C",
"S  c #5E0D52",
"D  c #5D1054",
"F  c #511354",
"G  c #4F1150",
"H  c #64024B",
"J  c #6A014C",
"K  c #65084D",
"L  c #74014E",
"P  c #79014F",
"I  c #610D54",
"U  c #6B0E5C",
"Y  c #670A56",
"T  c #7B0354",
"R  c #750859",
"E  c #6B115E",
"W  c #641056",
"Q  c #452744",
"!  c #453946",
"~  c #552F55",
"^  c #6E0F62",
"/  c #770F65",
"(  c #6D1161",
")  c #731164",
"_  c #7C126C",
"`  c #761169",
"'  c #7F1271",
"]  c #653864",
"[  c #603760",
"{  c #0A564B",
"}  c #395552",
"|  c #026849",
" . c #037554",
".. c #097567",
"X. c #19676F",
"o. c #347771",
"O. c #494649",
"+. c #585758",
"@. c #4D4B54",
"#. c #635D62",
"$. c #744274",
"%. c #456A6F",
"&. c #6B6A6B",
"*. c gray40",
"=. c #7B7A7B",
"-. c #747374",
";. c #840155",
":. c #890055",
">. c #85055B",
",. c #8A035C",
"<. c #90035E",
"1. c #8A0562",
"2. c #860D6C",
"3. c #890C6D",
"4. c #860964",
"5. c #970667",
"6. c #81116E",
"7. c #8A0E72",
"8. c #890F74",
"9. c #940D75",
"0. c #851274",
"q. c #881176",
"w. c #871278",
"e. c #8A1179",
"r. c #96117D",
"t. c #A4066D",
"y. c #A40B77",
"u. c #B90A78",
"i. c #B4117E",
"p. c #A5117F",
"a. c #C40B7D",
"s. c #078B76",
"d. c #2B817E",
"f. c #991687",
"g. c #A70E81",
"h. c #A71387",
"j. c #B91386",
"k. c #AA1D98",
"l. c #B81793",
"z. c #B60D81",
"x. c #AA239A",
"c. c #BA26A9",
"v. c #99208A",
"b. c #C4138B",
"n. c #CC138C",
"m. c #C61897",
"M. c #D91699",
"N. c #C90F87",
"B. c #E8149C",
"V. c #F0139F",
"C. c #D81DA5",
"Z. c #CA1BA1",
"A. c #EE16A3",
"S. c #E31AA4",
"D. c #ED19A6",
"F. c #E41DAB",
"G. c #EE1AAB",
"H. c #EE17A8",
"J. c #EE1EB2",
"K. c #F01EB4",
"L. c #F016A5",
"P. c #C72BB5",
"I. c #CF2CB6",
"U. c #EC20B4",
"Y. c #ED21B9",
"T. c #F020B7",
"R. c #E620AD",
"E. c #8F508F",
"W. c #A75AA7",
"Q. c #A64FA1",
"!. c #BA66BA",
"~. c #D431C3",
"^. c #DD32CB",
"/. c #DB3BCD",
"(. c #D932C5",
"). c #BD68C0",
"_. c #DD43CD",
"`. c #DE54D5",
"'. c #DE58D8",
"]. c #DD47D0",
"[. c #E158D7",
"{. c #C86AC7",
"}. c #CC72CC",
"|. c #DA6DD9",
" X c #DD71DB",
".X c #E165DA",
"XX c #0C9B89",
"oX c #0F938A",
"OX c #05A88C",
"+X c #08B9A4",
"@X c #1EB4A7",
"#X c #30B7AA",
"$X c #4E9389",
"%X c #09CAB7",
"&X c #06CAB3",
"*X c #2EC6B8",
"=X c #06D9C5",
"-X c #02E3CE",
";X c #03EAD6",
":X c #08F2DD",
">X c #10E5D1",
",X c #09F7E4",
"<X c #29F5E5",
"1X c #34F8E8",
"2X c #20ECDC",
"3X c #73D6CD",
"4X c #4EF6E7",
"5X c #68F8EC",
"6X c #72FBEC",
"7X c #78E1CF",
"8X c #999999",
"9X c #898889",
"0X c #ABACAC",
"qX c #A4A5A4",
"wX c #B7B8B7",
"eX c #82EDDA",
"rX c #87FCEB",
"tX c #96FFEE",
"yX c #89FEF0",
"uX c #B4FEF6",
"iX c #A7FFF2",
"pX c #B9DEDC",
"aX c #C3C4C4",
"sX c #CCCCCD",
"dX c #C9C7C8",
"fX c #DBDADB",
"gX c #D3D3D4",
"hX c #CBCBD0",
"jX c #E3E3E3",
"kX c #ECECEC",
"lX c #E7E9E8",
"zX c #F4F4F4",
"xX c #FEFEFE",
"cX c #F4FFFF",
"vX c #EFF0EF",
"bX c #D6E2DE",
/* pixels */
"                                                                                                                                ",
"                                                                                                                                ",
"                                                                                                                                ",
"                                                                                                                                ",
"                                                  = O % 0 t r d r r e < - =                                                     ",
"                                            O % r [ E.W.!.}.}.}.}.{.).W.E.] r - =                                               ",
"                                        X 0 ] W.}.|..X|.'.'.`.`.'.'.[..X.X X}.W.] 0 $                                           ",
"      = X                           X 9 $.!.|.|.`._./././.^.^.^.^.^.^./._._.].|. X!.$.0 X                           X o         ",
"      a O.X                       % [ !.|.'./.^.^.^.^.^.^.^.^.^.^.^.^.^.^.^.^.^._.'.|.!.[ & O                     X f f         ",
"    ; +.jX-.=                 X 9 E.|.'./.^.^.^.^.^.^.^.^.^.^.^.^.^.^.^.^.^.^.^.^.^./.'.|.E.9 X                 X O.sX8X=       ",
"    = 8XxXzX8Xf X           X Q !..X_.^.^.^.^.^.^.^.^.^.^.^.^.^.^.^.^.^.^.^.^.^.^.^.^.^./.|.!.Z X           X ; =.jXxXsXa       ",
"    a wXxXxXxXfX=.a X     . ~ {.[.^.^.^.^.^.^.^.^.^.^.^.^.^.^.^.^.^.^.^.^.^.^.^.^.^.^.^.(./.'.{.~ X     X ; +.aXxXxXxXkXg       ",
"    s fXxXxXxXxXfX0X-.a o ~ ).[.^.^.^.^.^.^.^.^.^.^.^.^.^.^.^.^.^.^.^.^.^.^.^.^.^.^.^.^.^.^.^.`.{.~ . ; +.qXsXzXxXxXxXxX+.      ",
"    g kXxXxXxXkXgXgX0Xs Q {.[.^.^.^.^.^.^.^.^.^.^.^.^.^.^.^.^.^.^.^.^.^.^.^.^.^.^.^.^.^.^.^.^.^.`.{.Q s 0XsXsXjXxXxXxXxX-.X     ",
"    O.kXxXxXxXfXsXaX@.> Q.[.^.^.^.^.^.^.^.^.^.^.^.^.^.^.^.^.^.^.^.^.^.^.^.^.^.^.^.^.^.^.^.^.^.^./.[.Q.5 O.aXsXgXzXxXxXxX=.X     ",
"    g kXxXxXvXgXsX=.& D v.I.(.^.^.^.^.^.^.^.^.^.^.^.^.^.^.^.^.^.^.^.^.^.^.^.^.^.^.^.^.^.^.^.^.^.^.~.v.D & =.sXsXjXxXxXxX=.X     ",
"    f lXxXxXjXsX0Xa 5 D 0.f.I.^.^.^.^.^.^.^.^.^.^.^.^.^.^.^.^.^.^.^.^.^.^.^.^.^.^.^.^.^.^.^.^.^.(.x.0.A 7 a 0XsXfXxXxXxX*.X     ",
"    a sXxXxXfXdX+.2 q & V e.k.~.^.^.^.^.^.^.^.^.^.^.^.^.^.^.^.^.^.^.^.^.^.^.^.^.^.^.^.^.^.^.^.^.c.e.B @ l > +.aXgXvXxXvXO.      ",
"    ; qXxXzXgXqX- B r * @ S e.c.^.^.^.^.^.^.^.^.^.^.^.^.^.^.^.^.^.^.^.^.^.^.^.^.^.^.^.^.^.^.^.c.r.V O * l B < 8XgXkXxXfXs       ",
"    = *.xXvXdX@.3 W y b u & U e.c.^.^.^.^.^.^.^.^.^.^.^.^.^.^.^.^.^.^.^.^.^.^.^.^.^.^.^.^./.P.f.E & u { y W > @.aXfXxX0X;       ",
"      s fXlXqX< V Z v  .XXi 2 ` f.c.(.^.^.^.^.^.^.^.^.^.^.^.^.^.^.^.^.^.^.^.^.^.^.^.^.^.^.P.f.) > i OX .v Z B < qXfXzX+.;       ",
"      = 9XjX&.> E e b s.%X+Xi 6 _ f.c.(.^.^.^.^.^.^.^.^.^.^.^.^.^.^.^.^.^.^.^.^.^.^.^.^.I.f._ 6 i +X&Xs.b e ) > &.gXaXa         ",
"        s qXf l U p | XX=X;X+X{ 7 ` f.P.^.^.^.^.^.^.^.^.^.^.^.^.^.^.^.^.^.^.^.^.^.^.^.P.f./ 8 { %X-X=XOX| p U l f wX+.=         ",
"        = f - E V i | OX;X;X2X3X} 6 U r.P.^.^.^.^.^.^.^.^.^.^.^.^.^.^.^.^.^.^.^.^.~.c.f.U 3 } 3X2X;X-XOX| i W Y - +.;           ",
"          X & _ B v | +X:X:X5XcXpX} % S f.x.(.^.^.^.^.^.^.^.^.^.^.^.^.^.^.^.^.^.P.x.f.G & } pXcX5X;X-XOX| v A _ > X             ",
"          ; w 0.A v | &X,X<X4XuXuX7Xo.- G w.k.~.^.^.^.^.^.^.^.^.^.^.^.^.^.^.~.c.f.0.m $ %.7XuXuX4X2X-X&X .v z 6.q =             ",
"          - m ) 4 u  .&X,X5X<X1XrXrXrX$X1 q ` f.c.~.^.^.^.^.^.^.^.^.^.^.~.c.h.f.` w y $XrXyXyX1X<X5X-X&X .u 4 _ B -             ",
"          $ W _ 6 * | %X,X,X,X1XrXiXrX6X@Xi , B ' f.c.~.^.^.^.^.^.^.~.c.f.e.` M % i @X6XtXiXyX<X;X>X%X+X| = A 0.S -             ",
"          % E q.) l y s.=X,X,X1XrXtXyX5X:X=X..* 2 S ' f.P.^.^.^.^.P.v.w.' S 5 1 ..=X:X5XyXtXrX<X-X%X+X..h D 0.w.( %             ",
"          > _ w.0.0.) Z n X.XX*X7XeXyX4X:X-X=XXXu : 2 m _ k.c.c.x.f.` m 2 * u XX=X=X=X4XrXeX7X*Xs.X.n A ) q.w.w._ >             ",
"          > _ q.0.q.q.0.3.( F Z ! @.%.d.oXXXXXoXv y $ 2 S w.e.e.w.0.S 2 $ y v s.oXoXoXd.%.@.Q Z G ^ _ 7.q.q.w.w._ 2             ",
"          4 _ q.q.q.q.q.e.e.e.0.' / ^ I G G Z Z Z F U _ ' w.w.w.0.0.0._ U F Z Z Z Z B S ^ ` _ 8.0.8.0.8.0.0.w.w._ 4             ",
"          4 _ e.q.q.w.q.q.q.q.q.q.w.q.q.q.q.q.0.0.q.w.w.0.0.q.q.e.8.w.q.q.q.q.q.0.8.e.e.e.q.q.q.q.q.q.q.q.q.0.q.6.4             ",
"          4 _ q.0.q.0.8.q.q.q.q.q.q.q.q.q.q.q.q.q.0.w.w.q.0.w.q.0.e.q.q.q.q.q.q.e.0.0.8.8.w.q.q.q.q.q.w.w.w.0.q.6.4             ",
"          > _ w.8.6.V ' e.e.q.q.q.e.q.q.q.q.w.w.q.q.w.w.q.q.q.q.8.0.8.w.w.w.q.q.0.8.e.8.q.q.q.q.8.e.q.q.q.) B 0._ >             ",
"          % ` q.0._ 3 m S I I I W E E ) ) ) _ _ 6.6.w.q.q.q.q.q.e.e.e.w.w.0.0._ _ _ _ ) ) ( ( E U I S S V 7 q w.) %             ",
"          % ( q.8.) @ $ ! O.! ! ! c t < d t 9 7 7 4 7 l m V D E W D B m q 6 6 4 4 9 9 t > & - d c ! @.+.O.. m q.( %             ",
"          $ S q.q.V 4 9 wXzXvXkXlXjX=.O.dXdXwX0XqX8X9XO.O 6 6 4 4 6 6 + g &.=.9X8X0XwXwXd l e wXkXvXzXzX9X@ q 0.S &             ",
"          - z q.w.l A m &.xXxXxXxXjXg 0 sXxXxXxXxXxXgX! B _ _ _ _ _ _ m O.fXxXxXxXxXxXqXr 6.l +.vXxXxXfXQ A m 6.m $             ",
"          ; 7 6.0.( _ ) t aXxXxXjX+.l l #.vXxXxXxXsX! m 0.q.q.e.q.w.0.2.z @.fXxXxXxXvX+.V q._ 7 =.zXzX&.z 0.0.6.7 =             ",
"            % ) 7.q.q.q.m +.jXaX@.q _ _ 7 -.lXzXwXg k 6.q.q.e.e.q.e.e.7.6.l O.dXxXxX8X7 _ 7.q.) 7 &.-.r ) q.q.) >               ",
"            $ V 7.q.3.q._ l g d z 2.9.q.) l O.*.t V 2.q.g.h.l.m.m.Z.m.h.9.6.z d =.=.r W r.l.l.r.) z j U 7.7.q.S $               ",
"            - q 3.7.8.8.2./ K R q.l.C.l.q._ V x U q.h.M.R.U.Y.Y.Y.T.T.Y.Z.r.3.Y l l U p.C.Y.T.Z.r.3.2.7.7.7.2.q =               ",
"              & U 7.2.7.3.9.9.r.m.R.U.R.m.9.7.3.7.l.R.U.U.U.J.Y.T.K.Y.Y.U.C.h.q.2.7.h.F.U.T.U.U.C.h.7.7.2.8.) &                 ",
"              = m 2.3.3.7.j.C.F.G.K.K.J.G.m.p.p.b.R.T.J.U.U.U.R.K.J.U.U.J.J.C.m.j.m.G.U.J.J.J.J.T.Z.9.7.7.2.j $                 ",
"                , R 3.3.4.g.F.J.J.K.G.J.J.J.F.S.R.R.R.R.C.M.M.n.b.j.j.b.b.n.M.C.G.U.U.U.U.G.J.K.G.j.3.3.4.C #                   ",
"                $ z 4.3.2.7.m.G.G.J.J.G.G.G.J.S.M.b.j.j.i.i.i.i.j.i.b.i.i.j.j.b.S.G.U.J.G.G.U.F.j.3.3.4.K 6 O                   ",
"                  # K 4.4.4.9.M.G.G.G.J.G.G.G.M.b.n.m.M.M.M.S.D.D.F.S.D.D.D.S.D.G.G.G.G.G.G.S.g.3.4.>.Y z @                     ",
"                  = , L 4.4.4.y.S.G.H.G.H.G.L.D.D.D.G.D.D.D.D.G.H.H.H.L.H.H.H.H.H.G.G.H.H.M.y.1.1./ J M , $                     ",
"                    . 8 Y >.>.,.y.M.L.D.D.D.L.S.D.L.D.D.A.D.D.L.L.D.D.D.H.H.H.H.H.H.H.H.n.9.1.1.T J M 6 +                       ",
"                      . w H R 4.,.t.M.S.D.D.A.A.A.L.L.D.D.D.D.D.L.D.D.D.H.A.A.A.H.H.M.z.5.1.>.R H M w @                         ",
"                      ; @ j N R >.>.5.N.B.A.A.A.A.A.A.L.A.A.V.V.A.A.V.D.V.A.L.A.B.N.t.,.1.>.R C M j @                           ",
"                        = # j N J T ,.,.t.N.B.A.V.B.B.V.B.V.V.V.A.V.A.V.V.A.B.N.t.1.:.>.>.J N N j # $                           ",
"                          = @ j M N R ;.:.5.5.u.N.B.B.B.B.V.V.V.V.V.B.M.n.i.5.<.>.>.>.T H M M w @ $                             ",
"                            = O 8 M N H T >.>.:.<.5.t.a.a.a.a.a.a.u.t.5.5.:.,.,.,.T J M N M 8 @ =                               ",
"                                . 3 k M N H P ;.;.:.:.:.:.:.:.:.:.:.:.:.:.:.:.T J N M M x , O                                   ",
"                                  X # 8 x M N H L P ;.:.:.:.:.:.:.:.:.;.;.L J N N M x 8 # O                                     ",
"                                      . , 8 k M M N H J L L P T L L L J N N N x x w , . =                                       ",
"                                          . # 3 w k M M M N N N x H N x N x j 3 & . X                                           ",
"                                              . . # , 6 8 j j j j j 8 6 , # . .                                                 ",
"                                                    X . . . . . . . . .                                                         ",
"                                                                                                                                ",
"                                                                                                                                ",
"                                                                                                                                "
};
