/* XPM */
static char *result[] = {
/* columns rows colors chars-per-pixel */
"50 50 82 1 ",
"  c #A37500",
". c #A77900",
"X c #AA7C00",
"o c #AF8000",
"O c #B38400",
"+ c #B78800",
"@ c #BB8C00",
"# c #BF9000",
"$ c #C39400",
"% c #C79800",
"& c #CA9B00",
"* c #C4A400",
"= c #CFA000",
"- c #CCAA00",
"; c #D4A400",
": c #D3AD00",
"> c #DCAC00",
", c #D5B400",
"< c #DBB500",
"1 c #DCBB00",
"2 c #E3B300",
"3 c #E4BA00",
"4 c #ECBC00",
"5 c #F0BF00",
"6 c #DDC200",
"7 c #DFC800",
"8 c #E3C200",
"9 c #EBC300",
"0 c #E1CC00",
"q c #EDCB00",
"w c #F3C300",
"e c #F8C700",
"r c #F3CD00",
"t c #FECD00",
"y c #E5D300",
"u c #E9D400",
"i c #ECDA00",
"p c #F4D300",
"a c #FDD400",
"s c #F5DA00",
"d c #FEDC00",
"f c #FEDE0A",
"g c #F9DA19",
"h c #EBE100",
"j c #F2E400",
"k c #FFE300",
"l c #F3EC00",
"z c #FEEC00",
"x c #FFEC0B",
"c c #F6F200",
"v c #FFF500",
"b c #FFFC00",
"n c #FFE811",
"m c #FFFC16",
"M c #FFF11E",
"N c #FFFF1D",
"B c #FEE126",
"V c #FFE921",
"C c #FFE52A",
"Z c #FFF420",
"A c #FFFF2F",
"S c #FFED3A",
"D c #FFF43A",
"F c #FFE94F",
"G c #FFF644",
"H c #FFE95F",
"J c #FFF053",
"K c #FFFC5C",
"L c #FFFD61",
"P c #FFEF7C",
"I c #FFF686",
"U c #FFFF84",
"Y c #FFFE8E",
"T c #FFFD95",
"R c #FFFF98",
"E c #FFFEA9",
"W c #FFF5B0",
"Q c #FFFEB3",
"! c #FFFEBE",
"~ c #FFFCD2",
"^ c #FFFFD9",
"/ c None",
/* pixels */
"////////////////////qrpppprw43////////////////////",
"/////////////////rpddddddddattte5/////////////////",
"//////////////qpddkkVSxvzzzkaatttte3//////////////",
"////////////qadkkZLEQKbvvvvvzkkaatttw>////////////",
"///////////rddkDT^~PVkssapssdadddattt42///////////",
"/////////<rdkMT~WHgq1--***--:;2etaatt544://///////",
"////////1qdzvZFBp<***-131,81-O o&4tttw444>////////",
"///////1qdzvzdp<**1qkxvv6,vvvs3&XX$4te4444>///////",
"//////<qpzvzs8**8pxGYKbc6<szkdatw;XX&224444;//////",
"/////;3qkvka,*<pxK~^Umbyr4,dattttaw$ @=>3454&/////",
"/////>3svkp,*8fJ!^YAvzs6de;pdttttttt; X=;244>/////",
"////>23kds-*qCIRLNvzkk8iae:3attttttta2XO=;>42=////",
"///;22qdd,*qkmNbbvkddd6zte2;etttttttte; +=;>2;&///",
"///>22et1#8kvbbbzddddqyztt4;3ttttttat54& $;;2;;///",
"//;2>3t2X:dvbbvkddddd1lktt44;ttttttte542+ $;;>;&//",
"//;2>9wOoqvbbvkkdddkr0bdtt45>3attttte444;XX=;;;=//",
"/&;;;w& :kbbvkddkddd8lvatt425;tttttt54442@ O;;;=$/",
"/=;&>3ooevbcrerqq9836bvttt42w2>2244422444;.X$;;&$/",
"/;;$>& &<676880uiihjzvdttt324t422;;;===&&$O @==&$/",
"/;=@;@ 4i6cvzzzkkddaaatttt222455552222;&@;& X$&&&/",
"&;&@&Xopbj1jdtttttttttttte2222222222>=$$>5;XX@$&&$",
"&;$$$.@kbze1is45etttttttt4222222>22;&$$2442X O$&&$",
"&;$@@ $jcdae2ys42345eeeew222>2>22>&$$&44444+ X$&&$",
"=;$@@ $isettt30s4222223222222222=$@$=244442@ O+&&$",
"=;$O+ $qq4wett48s92<2222222222>&O+$;444444>@ OO&&$",
"=;$+O #8q4444we3,p4222222222>>$XO$>4444522:@ OO$&$",
"=;$+O #14444444w3:p4222222>22>@X$2444442>>;+ XO$&%",
"&;$+O +:344444443>ae2222222222&X&444442>>>;O OO$&%",
"$=%++.O;;454444441kt5222222222&X@24432>>>>&X OO$&$",
"$&$++XX=;2444444>udae222>;;>>2;@+=42>>>>2;&.XOO%&$",
"/&$OOo $;>434444,zat522>=%%%=;=$O$;>>>>>>&@ XOO%%/",
"/$&@Oo @;;;4544<0ztt22>&$+$%&$&$O$=2>>>>;&O OO@&%/",
"/$&#OO X&;;>344:ckt522&+OOX@&&$%@$$;>>>;&%X.XX$&$/",
"/#&$OOX @&&;;431vae32&@$>>$+X+$&$+$;2>;%&+.X++%&//",
"//%&@OOX.$&&&==ivt3>$$;2>2>;$+X@$+$$;;&&$X.+X$&%//",
"//$&$OOX O&&&%-bz4;&=>>>>>>>>;$OXX$@&&&%X XXX$&$//",
"///%&@OOo +&&$0b8$%;>>>>>>>2>>>=$X$$@%%+ XOO$%%///",
"///$&$OOo. #&%7-#%&&==;;;>;;;;=&&$+$+%$..OOO$&$///",
"////$&@OoO. ++$%&&&&&&&&&&&&&&&&&&%$XX.XXOO@&&////",
"/////%%+OOo  +&&&&&&&&&&&&&&&&&&&&&&$ .XOO+$&/////",
"/////@&$OOOO  O$&&&&&&&&&&&&&&&&&&$O .oOO+$$@/////",
"//////$&#OOOOX  +$&&&&&&&&&&&&&&$O  XOOOX$&$//////",
"///////$*$OOOOXX  O@$&&&&&&&&$@OX XXOOOO$$$///////",
"////////$&$OOOOOoX  .XO++++OX.  XXXOOOO$&$////////",
"/////////@%%@OOOOOoX..      .XXOOOOOO@$$$/////////",
"///////////$$$OOOOOOOOoOoooOOOOOOOOO#$$///////////",
"////////////$$&$@OOOOOOOOOOOOOOOOO@&$$////////////",
"//////////////$$%%#@+OOoOOOOOO@@$&$#//////////////",
"/////////////////$%&%$$$$$$$%&&$$/////////////////",
"////////////////////#$$%%$$$$#////////////////////"
};
