/* XPM */
static char *_3ceb1be32604098d0d76c3330bdf82cs9HEPKLHDrq2VQtm[] = {
/* columns rows colors chars-per-pixel */
"50 50 111 2 ",
"   c None",
".  c #A17300",
"X  c #A67800",
"o  c #AB7D00",
"O  c #AF8000",
"+  c #B28300",
"@  c #B78800",
"#  c #BB8C00",
"$  c #BF9100",
"%  c #C29300",
"&  c #C79900",
"*  c #CA9B00",
"=  c #CCA200",
"-  c #CDAD01",
";  c #CFAF08",
":  c #D4A400",
">  c #D7A800",
",  c #DBAC00",
"<  c #D6B300",
"1  c #DCB400",
"2  c #D7BC00",
"3  c #DABA03",
"4  c #E3B300",
"5  c #E5B900",
"6  c #EBBB00",
"7  c #E3B50C",
"8  c #E4B710",
"9  c #E5BB1C",
"0  c #DFC100",
"q  c #E4C400",
"w  c #EBC300",
"e  c #E1C900",
"r  c #EDCB02",
"t  c #F4C400",
"y  c #F8C700",
"u  c #F4CC00",
"i  c #FECD00",
"p  c #E5D400",
"a  c #EDD300",
"s  c #EED900",
"d  c #F3D301",
"f  c #FDD400",
"g  c #F4DA01",
"h  c #FEDB00",
"j  c #EFC31A",
"k  c #EBCE1C",
"l  c #F8CC1A",
"z  c #F3DB10",
"x  c #F8DE14",
"c  c #ECE300",
"v  c #F4E300",
"b  c #FEE401",
"n  c #F7EB05",
"m  c #FEEC00",
"M  c #FFE90B",
"N  c #FFF300",
"B  c #FFFE00",
"V  c #FFF60C",
"C  c #FFFC08",
"Z  c #FFEA1E",
"A  c #EEC62C",
"S  c #E9C339",
"D  c #F3CC31",
"F  c #F5CF38",
"G  c #E9D538",
"H  c #FFE32C",
"J  c #F1E828",
"K  c #FFEF2B",
"L  c #FFFC2A",
"P  c #F7F030",
"I  c #E7C64C",
"U  c #FFDC48",
"Y  c #E7CB57",
"T  c #ECCB54",
"R  c #EBD553",
"E  c #FCE843",
"W  c #FCE44C",
"Q  c #FFE84F",
"!  c #FFF44F",
"~  c #FFFE4C",
"^  c #FCF94E",
"/  c #FFF358",
"(  c #EFD471",
")  c #F2ED70",
"_  c #FEEF7E",
"`  c #FFF473",
"'  c #FFF870",
"]  c #FFF17F",
"[  c #FFFE7F",
"{  c #FFEF8A",
"}  c #FFF18A",
"|  c #F3E097",
" . c #FAE89F",
".. c #FFFB96",
"X. c #FFFE97",
"o. c #FFFF98",
"O. c #F9E8A5",
"+. c #FFEEA6",
"@. c #FAEAAE",
"#. c #F9EBB6",
"$. c #FFF3B8",
"%. c #FFFFBC",
"&. c #FCF4C1",
"*. c #FFF7D6",
"=. c #FFF8D9",
"-. c #FFFDF2",
";. c #FEFCF5",
":. c #FFFEF8",
">. c #FFFEFB",
",. c #FFFFFE",
"<. c white",
/* pixels */
"                                                                                                    ",
"                                                                                                    ",
"                                                                                                    ",
"                                                                                                    ",
"                                                                                                    ",
"                                                                                                    ",
"                                      4 4 4 , , , 1 6 u d t 6                                       ",
"                                  4 i i i f i y f h b b b f f i 6                                   ",
"                                6 y i i i i u f b ! ` V V m h f y t                                 ",
"                              r f h h h h u f Z o.} x a a d f h f y 4                               ",
"                              ^ ~ ~ ~ ~ P d M ` W 3 - ; = - $ 4 i i 6 ,                             ",
"                            ) o.o.o.o.o.R g N h < - r z 0 v < o 4 y 6 6                             ",
"                          c B B B B B v u m g - q K [ J < m f t @ & 4 6 4                           ",
"                          f f f f h h 1 g b < q / %.L G 5 d f i t % & 4 6                           ",
"                          i i i i i t 4 n r 3 E X.L Z R 6 w i i i 6 @ > 6 *                         ",
"                        , 6 6 6 6 6 4 4 h < g L C b H ] t > f i i y & & , ,                         ",
"                        , 4 4 4 4 4 , 6 6 1 N B b h Q $.y : y i i y 4 @ : >                         ",
"                        4 4 4 4 4 , , w & e B N h h { =.l 4 6 i y y 6 @ % : *                       ",
"                      : 4 4 , 4 4 , > 4 + v N b b Q :.,.O.D 4 i y y 6 % o > *                       ",
"                      > 4 4 4 4 4 : : = & n k Y &.,.,.,.,.;.@.I 7 , 4 : o = *                       ",
"                      , 4 4 4 4 , : * % * 1 v N N } :.,.O.7 y t 6 4 * @ o % *                       ",
"                      , 4 4 4 4 , : * o d p g f f i +.-.F 4 4 4 4 , * , % # * %                     ",
"                      4 4 4 4 4 , : % o m g q u t y U *.j 4 4 4 , * : 6 * o * %                     ",
"                      * * * * * * : % o v f 6 d 4 6 A #.7 4 4 4 % % 4 6 : o * %                     ",
"                      % % $ % % % : # O s y i 4 u 4 9 | 4 4 4 & # , 6 6 * o & %                     ",
"                      % % % % % % * @ + q 6 6 y 1 6 8 ( 4 4 : o > 6 6 4 * o & %                     ",
"                      % # % % % % * @ O 3 6 6 6 1 q 4 T 4 4 : # 6 6 4 , % o % %                     ",
"                      % % % % # % * # o , 6 6 6 , d 6 S 4 4 > # 6 6 4 , % o % %                     ",
"                      % % % % % # % # o : 4 6 6 , f 6 9 > , , + 4 4 , , @ o & %                     ",
"                      # % % # % % % # o & , 6 6 0 i 6 , * & * % * , , = + + &                       ",
"                      % % # % % $ % # O # > 6 6 e i 4 * o % & % & , , & o + &                       ",
"                      @ % % # % % % % + o * > 1 g 6 , & * o % % % : : # o @ &                       ",
"                        @ @ @ @ @ @ & O o $ * % m , % , , : @ # @ * * + o # %                       ",
"                        + + + o + O % @ o @ * - g = , , , 1 : @ @ % & o + %                         ",
"                        o + + + + O # $ O o $ 2 = * : : > > : & # # @ o + &                         ",
"                        o O + O O O + % + O O $ & * * * * * * * & @ o + @ &                         ",
"                          + O + O + O % @ + X % * * * * & * * * * + o @ %                           ",
"                          O + O + O + @ % @ O X $ * * * * * * & o o o @ &                           ",
"                            O O + O + O $ # + O X @ % * * & $ o o o @ %                             ",
"                            o + O + O + + % + + O X o O @ O X o + + # %                             ",
"                              O O + O O + @ $ @ + + o o o o O + + @ %                               ",
"                                O + + O + O # % @ + @ + + + + + # &                                 ",
"                                o + + + O o o O & # @ + + @ @ % &                                   ",
"                                    . . . . . . X @ % * & * &                                       ",
"                                                                                                    ",
"                                                                                                    ",
"                                                                                                    ",
"                                                                                                    ",
"                                                                                                    ",
"                                                                                                    "
};
