/* XPM */
static char *f3e50481b03b4907c3ede6d2ebfa68c7v4FIAKRn7sZDYc81[] = {
/* columns rows colors chars-per-pixel */
"56 56 55 1 ",
"  c None",
". c #A07200",
"X c #A27400",
"o c #A37500",
"O c #A47600",
"+ c #A57700",
"@ c #AB7D00",
"# c #AC7E00",
"$ c #AD7F00",
"% c #AE8000",
"& c #AF8100",
"* c #B08200",
"= c #B28400",
"- c #B98A00",
"; c #BA8B00",
": c #BC8D00",
"> c #BD8E00",
", c #BD8F00",
"< c #BE8F00",
"1 c #BF9000",
"2 c #C19200",
"3 c #C59600",
"4 c #C69700",
"5 c #CA9B00",
"6 c #D2A200",
"7 c #D2A300",
"8 c #D3A300",
"9 c #D3A400",
"0 c #D4A400",
"q c #D5A500",
"w c #D5A600",
"e c #D6A600",
"r c #D7A700",
"t c #D8A800",
"y c #D9A900",
"u c #DAAA00",
"i c #DBAB00",
"p c #E2B200",
"a c #E1B500",
"s c #E3B600",
"d c #E4B400",
"f c #E5B500",
"g c #E9B900",
"h c #ECBB00",
"j c #EDBD00",
"k c #F0C000",
"l c #FECD00",
"z c #FFCE00",
"x c #E0D000",
"c c #FFD400",
"v c #FFF200",
"b c #FFF300",
"n c yellow",
"m c #FFFF12",
"M c #FFFF98",
/* pixels */
"                                                        ",
"                                                        ",
"                                                        ",
"                                                        ",
"                                                        ",
"                                                        ",
"                                                        ",
"                         qyyyyq                         ",
"                         hjkkkj                         ",
"                         llcllc                         ",
"                         llllll                         ",
"                         vvvbvv                         ",
"                         MMMMMM                         ",
"                         mmmmmm                         ",
"                         nnnnnnx                        ",
"                        sccccccs                        ",
"                        dllllcld                        ",
"                        qggggggq                        ",
"                        8pppppp0                        ",
"                        9pppppp0                        ",
"                        0ppppppq                        ",
"                        qppppppr                        ",
"                        rppppppr                        ",
"                        rppppppy                        ",
"                        yppppppy                        ",
"                        yppppppi                        ",
"                        45555554                        ",
"                        <2222221                        ",
"                        <222222<                        ",
"                        <222222<                        ",
"                        <222222<                        ",
"                        <222222<                        ",
"                        <222222<                        ",
"                        :222222<                        ",
"                        <222222<                        ",
"                        -11<1<<:                        ",
"                        %*=====%                        ",
"                        %******$                        ",
"                        $******@                        ",
"                        @******$                        ",
"                        $******@                        ",
"                        @******@                        ",
"                         ******$                        ",
"                         ******                         ",
"                         ******                         ",
"                         $$%%$%                         ",
"                         ooo+++                         ",
"                         ......                         ",
"                         ......                         ",
"                                                        ",
"                                                        ",
"                                                        ",
"                                                        ",
"                                                        ",
"                                                        ",
"                                                        "
};
