/* XPM */
static char *e670bd1e553c4d8eab275925d7787e76lNU7BI4X7gcWTesi[] = {
/* columns rows colors chars-per-pixel */
"56 56 87 1 ",
"  c None",
". c #A07200",
"X c #A67800",
"o c #AC7E00",
"O c #AF8000",
"+ c #B28300",
"@ c #B78800",
"# c #BC8D00",
"$ c #BF9000",
"% c #BF9C00",
"& c #C29300",
"* c #C69A00",
"= c #CB9B00",
"- c #C4A300",
"; c #CDA200",
": c #CBAA00",
"> c #D3A400",
", c #D6AB00",
"< c #DCAC00",
"1 c #D5B400",
"2 c #DCB300",
"3 c #DEBA00",
"4 c #E3B300",
"5 c #E4BC00",
"6 c #EBBB00",
"7 c #E6B80A",
"8 c #E8BB12",
"9 c #DFC500",
"0 c #E4C301",
"q c #EEC700",
"w c #E5CB00",
"e c #EBCD00",
"r c #E1C40F",
"t c #EACE0B",
"y c #F4C400",
"u c #F4CC00",
"i c #FECD00",
"p c #F6D200",
"a c #FDD400",
"s c #F3DA00",
"d c #FEDC00",
"f c #F2DF0E",
"g c #E3C010",
"h c #EED611",
"j c #EED01A",
"k c #F6D813",
"l c #EDE400",
"z c #FFE000",
"x c #FFE500",
"c c #FFE700",
"v c #FFE105",
"b c #FCE605",
"n c #F8E000",
"m c #FFEB00",
"M c #FFED00",
"N c #F8F300",
"B c #FEF406",
"V c #FFFA00",
"C c yellow",
"Z c #FFF408",
"A c #FFF80E",
"S c #FEE51B",
"D c #FFEE18",
"F c #FFEE1A",
"G c #F0D623",
"H c #FCDE22",
"J c #F1D62E",
"K c #ECC530",
"L c #EEE120",
"P c #FFFF2E",
"I c #F0E237",
"U c #F2EC31",
"Y c #F5E43A",
"T c #FFF639",
"R c #FFE748",
"E c #FFF453",
"W c #FFF157",
"Q c #FDF158",
"! c #EED57C",
"~ c #F7E282",
"^ c #F9F68D",
"/ c #FFFF9A",
"( c #FFFEA4",
") c #FFF8AC",
"_ c #FFF5BB",
"` c #FFF6BB",
"' c #FFFEF9",
/* pixels */
"                                                        ",
"                                                        ",
"                                                        ",
"                                                        ",
"                                                        ",
"                                                        ",
"                         5,,,,,                         ",
"                       yad644444<                       ",
"                      6ixFvuiiaii6                      ",
"                      uxmTEpiiiiiu                      ",
"                      iauk)Spddddd                      ",
"                     4i=%-jWfPPPPPU                     ",
"                     66*99:bG/////^                     ",
"                    <6&a9LtwsNCCCCCl                    ",
"                    <4;a,IQ3nemmMMMp                    ",
"                    <=6i,h)9d4iiiiii                    ",
"                    <&ii<qAYe4yyyyi6                    ",
"                    >&i640mZ52444444                    ",
"                    ==i66JdV54<44444                    ",
"                    ==i7K_RA14<44444                    ",
"                   =&,i8!'`D14,4444<,                   ",
"                   =&<4,7~gp0,,44444,                   ",
"                   &@*<6qHse:*><4444<                   ",
"                   &@=466iax1&>4<444<                   ",
"                   &&><46iiqw@>44444<                   ",
"                   &&<=44iy2p+=<<<<<<                   ",
"                   &&6&44645pO*===*=*                   ",
"                   &&6&>4464qO&&#&&&&                   ",
"                   &&4>=44,65o&&&&$$$                   ",
"                   &&44&<4:65o&&$&&&$                   ",
"                   #&<6&46>64o&&$&&&$                   ",
"                   #@<,=<6,6,O&&&&$&$                   ",
"                   #@,==>6<6>+$&&$&&$                   ",
"                   &+,=&&<64=+#&&&&$$                   ",
"                   #+=*&+>u,&@$$&&&$#                   ",
"                   #@&&&#;a=#@$&$$&&$                   ",
"                    +#&+>=q*@@@@+++@O                   ",
"                    @@+&<,,:O#+O+++O                    ",
"                    +++,<,&=o#+++O++                    ",
"                    #o+====+o&+OO+OO                    ",
"                    #o&=*==++#+OOO+O                    ",
"                    #++====O#+O+++OO                    ",
"                    #@o===&o#O+OO++o                    ",
"                     #o+&&XO#OO++OO                     ",
"                     #+XXXo+#OOOO+O                     ",
"                      ++OO+#+O+O+O                      ",
"                      #++++#oXoooo                      ",
"                      &@++$+......                      ",
"                       &*&@......                       ",
"                        &#X.....                        ",
"                                                        ",
"                                                        ",
"                                                        ",
"                                                        ",
"                                                        ",
"                                                        "
};
