/* XPM */
static char *_bbaa6d84c8d4c92d5075aec1549d93523LDotzPkurFVCQQ[] = {
/* columns rows colors chars-per-pixel */
"50 50 152 2 ",
"   c None",
".  c #9F7100",
"X  c #A37500",
"o  c #A77900",
"O  c #AB7C00",
"+  c #AF8000",
"@  c #B28300",
"#  c #B78900",
"$  c #BB8C00",
"%  c #BF9000",
"&  c #C29300",
"*  c #C79800",
"=  c #CA9B00",
"-  c #C3A300",
";  c #CDA200",
":  c #CCAB00",
">  c #D3A400",
",  c #D5AA00",
"<  c #DCAC00",
"1  c #D4B300",
"2  c #DCB400",
"3  c #DCBB00",
"4  c #D1B10C",
"5  c #DBBD0B",
"6  c #D7B915",
"7  c #E3B300",
"8  c #E8B700",
"9  c #E5BB00",
"0  c #ECBB00",
"q  c #E4B60B",
"w  c #F0BF00",
"e  c #E6BA14",
"r  c #E5BA19",
"t  c #E6BC23",
"y  c #E5BF36",
"u  c #DCC400",
"i  c #DDC900",
"p  c #DCC614",
"a  c #E4C300",
"s  c #ECC500",
"d  c #E5CA02",
"f  c #ECCA00",
"g  c #F3C300",
"h  c #F8C700",
"j  c #F2CD00",
"k  c #FECD00",
"l  c #F1C30D",
"z  c #EAD300",
"x  c #E7DC00",
"c  c #EBDB01",
"v  c #E6D20F",
"b  c #F5D401",
"n  c #FED300",
"m  c #F0D800",
"M  c #FEDC00",
"N  c #FFD10F",
"B  c #FFDE0A",
"V  c #F4CD17",
"C  c #F9CC16",
"Z  c #FCDD14",
"A  c #FFD41C",
"S  c #EFE602",
"D  c #F5E300",
"F  c #FEE300",
"G  c #F2EA00",
"H  c #FEEC00",
"J  c #FEE708",
"K  c #FFE90F",
"L  c #FEF500",
"P  c #FFFC00",
"I  c #FFF80D",
"U  c #EDE51B",
"Y  c #FFED10",
"T  c #FFE418",
"R  c #FFFC16",
"E  c #E9C12B",
"W  c #FADD25",
"Q  c #E8C234",
"!  c #E8C33B",
"~  c #F7D030",
"^  c #F1D33D",
"/  c #F1E526",
"(  c #F4E924",
")  c #FFE329",
"_  c #FFED2A",
"`  c #FFF327",
"'  c #FFF128",
"]  c #FFE533",
"[  c #FFFF31",
"{  c #FFFE35",
"}  c #FFF33E",
"|  c #EAC747",
" . c #ECCB4E",
".. c #ECDA4C",
"X. c #FFDC43",
"o. c #EDCE5B",
"O. c #FFDF54",
"+. c #EFE146",
"@. c #FFE747",
"#. c #FFE647",
"$. c #FFF645",
"%. c #FFF443",
"&. c #FEFE45",
"*. c #FFFF49",
"=. c #FFF954",
"-. c #FEFA52",
";. c #EFD46F",
":. c #FCDF64",
">. c #F0D678",
",. c #FFF962",
"<. c #FFFF61",
"1. c #FFFF6D",
"2. c #F6E376",
"3. c #FBE27C",
"4. c #FFEF7E",
"5. c #FFED7A",
"6. c #FFFF75",
"7. c #FEF27B",
"8. c #FFF786",
"9. c #FFFF85",
"0. c #FCE790",
"q. c #FFEB95",
"w. c #F3E098",
"e. c #FFF991",
"r. c #FFFD90",
"t. c #FFF29F",
"y. c #FFFF9F",
"u. c #FFFB9D",
"i. c #F5E7A2",
"p. c #F0E8A3",
"a. c #FFEDA1",
"s. c #FAEAAC",
"d. c #FFFFA1",
"f. c #FFFFA0",
"g. c #FFFEA7",
"h. c #FFFEA8",
"j. c #FFFEAD",
"k. c #F7EAB8",
"l. c #FEF5B7",
"z. c #FFF3BF",
"x. c #FFF7C4",
"c. c #FFFFC4",
"v. c #FDF4CB",
"b. c #FFF9CA",
"n. c #FBF3D6",
"m. c #FFFBD6",
"M. c #FFFFD7",
"N. c #FCF6E2",
"B. c #FFFAE4",
"V. c #FFFDEC",
"C. c #FFFCF2",
"Z. c #FFFFFF",
/* pixels */
"                                  f j b b b j 8 7 , , , < , > > >                                   ",
"                            f b M M M M M M M n k k h 0 7 7 8 w 8 8 8 <                             ",
"                        j M M M J _ _ H L H F M k k k k k w w k k k k k h 0                         ",
"                    s b M F Y =.g.g.{ P L L L L H F M n k k k 8 h k k n k k h 8                     ",
"                  s M M K ,.c.m.5.T B m b M M M M n M M k k k g 8 0 n n n n n n s                   ",
"                a M F ' j.b.4.W f 3 4 : - - - : > < g n n n k g 0 8 z L P P L L L S                 ",
"              a b F L ` @.Z a : - : 6 3 2 1 u 3 * o + = w k k h 0 0 9 ..g.f.f.f.g.f.p.              ",
"            3 j F L H M f : - 1 f D _ L 3 1 L L D f = + O < h h 0 0 0 e +.*.*.*.*.*.&.U             ",
"          2 f m L H M 9 - 1 f J $.r.6.L 3 , D H F n k g = o $ < 7 0 0 0 8 D P P P P P P c           ",
"          7 b H H M 3 - 3 M %.j.m.6.<.c a 7 9 M n k k n k 7 O @ > 7 8 0 8 9 M F F F F F M           ",
"        , 8 D H M 3 - a T 8.M.f.[ I 5.5 b s > M n k n k k k 0 @ O > < 7 0 < 8 k n k k k k g         ",
"      > 7 9 H M a - a ] e.9.{ P H T i.p M h > s n k k k n k n 8 O O > < 8 9 , g k k k k k h 7       ",
"      < 7 s M b - 3 F R R P L H M ) v.( n h < 2 k n k k k k n h > O & > < 7 > > 8 8 8 7 7 7 7       ",
"    ; 7 7 h h : : M L P P L F M M @.V.%.n h 8 > h k k n k k k h 0 & X = > < < ; < 7 7 7 7 7 7 ;     ",
"    < 2 8 h , @ f L P P L F M M M 5.Z.5.k k 8 < 8 n k k k k k g 0 < O @ > > , > > 7 7 2 7 7 7 <     ",
"    < < 9 g O * F P P L F M M M T x.Z.v.A h 8 8 < k k k n k h 0 0 0 = X & > > > = 7 7 7 7 7 < 7     ",
"  = , , 8 > o 9 L P L F M M B ] t.Z.Z.Z.x.:.t l < l k n k n h 0 w 0 < o O ; > > = < 7 7 7 7 7 < >   ",
"  = > > 8 @ $ M P L b V ^ 2.l.V.Z.Z.Z.Z.Z.Z.N.s.;.y q 8 0 0 7 8 8 8 7 & X & > > = > 7 7 7 7 7 7 <   ",
"  > = = > o * 1 i u a d v / -.u.V.Z.Z.Z.B.0. .t C l 7 < < > ; ; > = & & X @ > = = = 7 7 < 7 7 7 <   ",
"* > * = % o 9 u x P H H F F M n X.N.Z.V.O.h 7 7 8 g w w 8 7 7 7 > & & , O O & = = = 7 7 7 7 7 7 7 = ",
"* > & * + @ D P u c M h k k k k k q.Z.v.N g 7 7 7 < 7 7 7 7 < > & * 8 7 @ O # = = = < 7 7 7 7 7 7 > ",
"= > & * O % H P n 2 c j 0 h k k k O.Z.a.k 0 7 7 7 7 7 7 7 < = & * 7 w 8 & o @ & = * < 7 7 7 7 7 7 , ",
"= > # & o & D H k k 2 z j 7 8 0 g ~ C.3.g 7 7 7 7 7 7 7 > & & & 7 w 8 w = X O & = = > > > < < > < ; ",
"> = # & o % c b k k k 2 z j 7 7 7 r n.o.7 7 7 7 7 7 < > & $ = 7 w 0 w 8 = X O & = * & & & & & & & $ ",
"= > # # X & f s w h k k 2 z g 7 7 q k.| < 7 7 7 7 < = # # = 8 0 0 0 0 7 * X O & = * $ % & $ & & & # ",
"= > & # o & s s 0 0 0 g g < d s < 7 w.y 7 7 7 7 7 & O # = 8 w 0 0 w 7 7 & X O # = = % & & & & $ & $ ",
"> = & # o $ 3 0 0 0 0 0 8 0 , f 0 7 >.t 7 7 7 7 < & O & 7 w 0 0 8 7 < < & X O # * * & & & & & & & $ ",
"= > # O o # < 8 0 w 0 0 0 0 , z h 7 o.r 7 7 7 7 7 = O > w 0 0 0 7 7 < < & X O $ * * $ & $ & % & & $ ",
"& > & # O @ > 2 0 0 0 0 0 8 1 M k 8 y e 7 7 7 7 7 > O & 8 w 8 7 < < < > # X @ # = * $ & & & $ & & $ ",
"& & & # O O ; , 8 0 0 s 0 7 u M k w t q < > > < 7 > & # < 8 < < < < < ; # X @ # = & $ & & & & & & # ",
"# = & @ O X = > < 0 0 0 0 , c n k 0 q 7 = * = = = > & @ & < < < < 7 , = O O @ # = & & & & $ & & & # ",
"  = & @ @ X & , , 7 0 0 0 1 H k h 7 7 > & # & & = = & @ & < 7 < < < = & X O @ $ = & $ & & % & & $   ",
"  * * @ @ O O > > , 8 w 7 i H k w 7 > & O O O & = = = & & = < < < > = O X O # & * & & & & & & & %   ",
"  & = $ # O X & = > > 7 > D M h 7 > & & < < & O O & = # # & < < > = = O O # # = & & & & & & & # $   ",
"    = & @ O o @ = = = > : L n 0 < & = < 7 7 > = & O # & & & > > = = & X O # & = & & O & & & O &     ",
"    & * # @ O X & = = & i L g > = > < < < < 7 < > = O O O & & = = * o o O O & * O O O # o O O O     ",
"    & = $ @ @ o O * = * G c = & < < < < < 7 < < < < = & O & & = = O o O O & = & O @ @ O O & O O     ",
"      * * @ @ O X @ * - 3 % * = = = > > > > > > > > = * & & O & & o O # O & = # @ @ @ @ O O O       ",
"      & = $ @ @ O X @ # & = = = = = = = = = = = = = = = * & O & o o O # & = & # @ @ @ @ @ @ O       ",
"        * * @ @ @ o X # = = = = = = = = = = = = = = = = * = & o o O # O & & O O @ @ @ @ O @         ",
"          * & @ @ @ o X # * = = = = = = = = = = = = = = = $ o o @ @ + $ = % + + O @ @ @ +           ",
"          & * $ @ @ @ O X O % = = = = = = = = = = = = * @ X o O @ @ @ * % + @ @ @ @ @ @ O           ",
"            & = $ @ @ @ + X X + & & = > = = = > * & @ o X O @ @ @ @ % * + + + + @ @ @ O             ",
"              & * # @ @ @ @ O X X O O O # # @ O o X X O O @ @ @ @ & = @ @ + @ + @ O O               ",
"                & * $ @ @ @ @ @ O O o o X o X X o O O # @ @ @ @ & * @ @ + @ + @ @ O                 ",
"                  & = & # @ @ @ @ # O # O O @ @ @ @ @ @ @ @ $ * & @ + + @ + + + +                   ",
"                    $ * * $ # @ O O @ @ @ @ @ @ @ @ @ @ # & * # + o O o o o O O                     ",
"                        & * * & & # @ # @ @ @ @ @ # & & * # O X . . X . X .                         ",
"                            & * * = * & & & & & = * * # O X . . . . X .                             ",
"                                  $ & * * * * $ # O X X . . . X .                                   "
};
