/* XPM */
static char *d4f479a99c9b4984d2637759fa2debf9YDQXaLaz5vCS5Zs1[] = {
/* columns rows colors chars-per-pixel */
"64 64 198 2 ",
"   c None",
".  c #06030A",
"X  c #09060D",
"o  c #0C0B0C",
"O  c #020203",
"+  c #0D0613",
"@  c #0E0C12",
"#  c #0E091C",
"$  c #110E14",
"%  c #12061B",
"&  c #130C1C",
"*  c #100717",
"=  c #141415",
"-  c #1B1B1B",
";  c #16131D",
":  c #0E0D24",
">  c #160721",
",  c #140A24",
"<  c #1D0A2D",
"1  c #180B28",
"2  c #0C1129",
"3  c #171121",
"4  c #1A1627",
"5  c #091A34",
"6  c #1A1634",
"7  c #1C1638",
"8  c #1F0A30",
"9  c #241C2B",
"0  c #220B33",
"q  c #260D3A",
"w  c #290E3E",
"e  c #24113D",
"r  c #210E2F",
"t  c #09243B",
"y  c #112635",
"u  c #242424",
"i  c #2B2B2B",
"p  c #323232",
"a  c #3B3B3B",
"s  c #37313D",
"d  c #2F2B32",
"f  c #2B0F42",
"g  c #2C1144",
"h  c #2F1148",
"j  c #261140",
"k  c #32114C",
"l  c #361252",
"z  c #381356",
"x  c #3C145B",
"c  c #0B2C43",
"v  c #0A3B55",
"b  c #0D3F49",
"n  c #3A2958",
"m  c #362B48",
"M  c #043E71",
"N  c #413B46",
"B  c #431664",
"V  c #46176A",
"C  c #49186D",
"Z  c #47186C",
"A  c #4D1974",
"S  c #4F1A78",
"D  c #521B7C",
"F  c #523A7B",
"G  c #0C4759",
"H  c #0D444D",
"J  c #0E5965",
"K  c #04447A",
"L  c #084B72",
"P  c #2B5868",
"I  c #106D7B",
"U  c #494849",
"Y  c #515152",
"T  c #5B5B5B",
"R  c #565558",
"E  c #504C52",
"W  c #686868",
"Q  c #797979",
"!  c #561C82",
"~  c #591D85",
"^  c #5D1F8C",
"/  c #5F1F90",
"(  c #601F90",
")  c #583A84",
"_  c #632195",
"`  c #652198",
"'  c #69229D",
"]  c #6B23A2",
"[  c #6E28AA",
"{  c #7424AB",
"}  c #7025AA",
"|  c #7A26B3",
" . c #7129B2",
".. c #7F27B8",
"X. c #752CB9",
"o. c #05518B",
"O. c #0D6A86",
"+. c #0C6F95",
"@. c #055DA5",
"#. c #056BB9",
"$. c #0772BA",
"%. c #5D428C",
"&. c #66419A",
"*. c #7A56B7",
"=. c #704FA8",
"-. c #7E32CB",
";. c #7A2EC2",
":. c #067BC9",
">. c #0474C6",
",. c #036BC2",
"<. c #8127BB",
"1. c #8328BD",
"2. c #8629C1",
"3. c #892AC5",
"4. c #8E2BCB",
"5. c #912CCE",
"6. c #942DD3",
"7. c #9B2EDB",
"8. c #8637DA",
"9. c #8436D5",
"0. c #9F2FE0",
"q. c #8E3DEB",
"w. c #8C3CE5",
"e. c #903EEF",
"r. c #A331E4",
"t. c #A732E9",
"y. c #A932EC",
"u. c #8759CB",
"i. c #8F65D7",
"p. c #9441F5",
"a. c #9743FB",
"s. c #9844FE",
"d. c #9A4BFD",
"f. c #9D54FD",
"g. c #9F59FD",
"h. c #A05DFD",
"j. c #996BE7",
"k. c #9F70EF",
"l. c #A262FD",
"z. c #A56CFD",
"x. c #A774FB",
"c. c #A976FE",
"v. c #A070F0",
"b. c #12858F",
"n. c #118495",
"m. c #1291AA",
"M. c #18B1BC",
"N. c #59A3AF",
"B. c #0885CC",
"V. c #098ACE",
"C. c #0986CA",
"Z. c #0D91C8",
"A. c #109AC3",
"S. c #0A8ED0",
"D. c #0B93D3",
"F. c #0D9CD6",
"G. c #0EA3D9",
"H. c #0FA9DB",
"J. c #16ACDC",
"K. c #13B8DE",
"L. c #16ADC2",
"P. c #13BAE2",
"I. c #26BAE2",
"U. c #62BCD9",
"Y. c #1BCEDF",
"T. c #16C7E6",
"R. c #18D3E9",
"E. c #19DCF0",
"W. c #25D7ED",
"Q. c #1DE7F4",
"!. c #1EF0F7",
"~. c #1EF4F9",
"^. c #1EE3EF",
"/. c #31F5FA",
"(. c #6CD1D9",
"). c #54D7EC",
"_. c #51CEE9",
"`. c #65DFF0",
"'. c #79EEF6",
"]. c #878787",
"[. c #979696",
"{. c #A5A5A5",
"}. c #ABABAB",
"|. c gray71",
" X c #BABABA",
".X c #85DAEB",
"XX c #95DAE9",
"oX c #83F4F8",
"OX c #C6C6C6",
"+X c #D3D3D3",
"@X c #DADADA",
"#X c #E5E5E5",
"$X c #EDEDED",
"%X c #F3F3F3",
"&X c #F5FCFD",
"*X c #FEFEFE",
"=X c #FDFDFD",
"-X c #FCFDFD",
/* pixels */
"                                                                                                                                ",
"                                                                                                                                ",
"                                                                                                                                ",
"                                                                                                                                ",
"                                                  i - @ @ $ 3 3 3 & $ @ @ = i                                                   ",
"                                            u = 4 n %.*.i.j.j.k.k.j.j.i.*.%.n 3 = u                                             ",
"                                        4 ; n *.j.x.c.c.x.c.c.c.c.c.c.c.c.c.x.j.=.n ; 4                                         ",
"                                    4 9 %.i.x.c.x.x.z.h.g.f.f.f.f.f.g.h.l.z.x.c.c.c.i.) 4 u                                     ",
"                                i , ) j.x.c.z.g.d.s.s.s.s.s.s.s.s.s.s.s.s.s.d.f.l.z.c.c.j.F & i                                 ",
"    - -                       ; m u.x.c.l.f.s.s.s.s.s.s.s.s.s.s.s.s.s.s.s.s.s.s.a.d.f.z.c.c.u.m -                       - o     ",
"    o W = i                 = F v.c.l.f.a.s.s.s.s.s.s.s.s.s.s.s.s.s.s.s.s.s.s.s.s.s.s.s.f.z.c.k.F $                   $ E u     ",
"    i %X Xa = a         a 3 =.c.x.f.s.s.s.s.s.s.s.s.s.s.s.s.s.s.s.s.s.s.s.s.s.s.s.s.s.s.a.d.l.c.c.&.;             - u [.%XQ -   ",
"  i W -X*X$X[.i $ u   a @ *.c.z.d.s.s.s.s.s.s.s.s.s.s.s.s.s.s.s.s.s.s.s.s.s.s.s.s.s.s.s.s.s.s.g.c.c.*.+     p = - Q @X*X*X|.=   ",
"  = {.=X*X*X-XOX[.W $ & *.c.z.d.s.s.s.s.s.s.s.s.s.s.s.s.s.s.s.s.s.s.s.s.s.s.s.s.s.s.s.s.s.s.s.s.f.x.x.*.X o Y ]. X&X*X*X*X#Xo   ",
"  o +X-X*X*X@X X XQ X ) c.x.d.s.s.s.s.s.s.s.s.s.s.s.s.s.s.s.s.s.s.s.s.s.s.s.s.s.s.s.s.s.s.s.s.s.e.h.x.c.) X ].|. X+X*X*X*X&X-   ",
"  o #X=X*X$X X X[.= z ' j.f.s.s.s.s.s.s.s.s.s.s.s.s.s.s.s.s.s.s.s.s.s.s.s.s.s.s.s.s.s.s.s.s.s.s.e.s.h.u.` k = {. X X#X*X*X*Xa   ",
"  = $X*X*XOX X|.s 8 / ' [ q.a.a.s.s.s.s.s.s.s.s.s.s.s.s.s.s.s.s.s.s.s.s.s.s.s.s.s.s.s.s.s.s.s.s.s.s.8.] ( / 0 m |. XOX*X*X*XE   ",
"  = %X*X%X X XW + S ! ( ( [ q.a.s.s.s.s.s.s.s.s.s.s.s.s.s.s.s.s.s.s.s.s.s.s.s.s.s.s.s.s.s.s.s.s.s.8.] ` / ! S + Q  X X$X*X*XY   ",
"  o $X*X@X X}.- x f : ! ' ` [ e.s.s.s.s.s.s.s.s.s.s.s.s.s.s.s.s.s.s.s.s.s.s.s.s.s.s.s.s.s.s.s.s.8.' ` ` S # h z - }. X+X*X*XU   ",
"  o @X*XOX|.R > B 5 M 1 ~ ` ' [ e.s.s.s.s.s.s.s.s.s.s.s.s.s.s.s.s.s.s.s.s.s.s.s.s.s.s.s.s.s.s.-.' ` ` ~ : K 2 Z % T  XOX*X=Xu   ",
"  $ {.&X X}.= B 1 o.,.M 8 ^ ] (  .e.s.s.s.s.s.s.s.s.s.s.s.s.s.s.s.s.s.s.s.s.s.s.s.s.s.s.s.a.8.] ` ` ~ 1 K ,.o.< x = }. X%X#Xo   ",
"  i R %X XT > B t #.>.>.v f ( ( `  .q.s.s.s.s.s.s.s.s.s.s.s.s.s.s.s.s.s.s.s.s.s.s.s.s.s.a.9.] ` ` ( q L :.>.,.5 C % W  X%X{.=   ",
"    = +X|.- x w o.,.:.B.B.v f ( ` `  .q.s.s.s.s.s.s.s.s.s.s.s.s.s.s.s.s.s.s.s.s.s.s.s.s.9.] ` ` ( f v V.B.:.>.M f z u  X#XU p   ",
"    - Q ].. ~ 1 @.>.B.V.D.V.v f / ` ` [ q.s.s.s.s.s.s.s.s.s.s.s.s.s.s.s.s.s.s.s.s.s.s.-.] ` ` ^ w G Z.D.V.B.>.@.< ~ o ].|.o     ",
"      - a q / : #.:.V.D.F.J.U.P q ~ ( ( [ w.a.s.s.s.s.s.s.s.s.s.s.s.s.s.s.s.s.s.s.a.-.` ` ` ~ 0 P U.J.F.D.V.:.#., _ 8 Y U i     ",
"      = O B / 2 $.V.S.F.G._.=XXXI , S ] _ ] 9.s.s.s.s.s.s.s.s.s.s.s.s.s.s.s.s.s.a.;.` _ ` A 4 O.XX%X_.G.F.V.C.$.: _ x $ o       ",
"        . ~ / # $.V.D.F.H.I.'._._.N.y k ^ ` ' -.a.s.s.s.s.s.s.s.s.s.s.s.s.s.s.p.X._ ` / h y N.)._..XI.H.F.Z.V.#.: ( ! . i       ",
"        * _ A . @.S.D.G.H.P.P.).&X&X(.J 6 B / _ X.q.s.s.s.s.s.s.s.s.s.s.s.s.w.[ ` / B 4 J (.*X&X).T.P.H.G.D.S.o.. S ( +         ",
"        q ` ` B : L Z.H.K.P.T.`.&X&X'.Q.M.H 6 B / ] 9.p.s.s.s.s.a.a.s.s.p.-.` ^ B 4 G M.^.oX=X&X).T.P.P.G.Z.L 2 B ` ` 8         ",
"      i k ` ` ` S e c O.A.P.T.W.oXoX/.~.Q.R.m.H 7 x ~ [ 9.q.a.a.a.p.p.-.[ ~ z 7 G m.R.Q.~./.oXoXW.T.P.D.O.c j D ` ` ` h p       ",
"      u x ` ` ` ` _ Z e t G n.L.Y.^.!.~.Q.^.R.K.m.v : l ( ]  .X.X.[ ] ( h 3 G m.T.R.^.Q.!.!.^.Y.L.+.G 5 e C _ ` ` ` ` x i       ",
"      - C ` ` ` ` ` ` _ ! B g 6 y b J I b.n.n.O.J t # w ( ` ` ` ` ` _ / e : t L O.n.n.b.I J H y y h V ~ _ ` _ ` ` ` ` B -       ",
"      = A ` ` ` ` ` ` ` ` ` ` _ ~ A x l h j j h z A ^ ( ( ' ' ( ` ` ` ` _ ~ A z h w g h l B A ~ ( _ ` ` ` ` ` ` ` ` ` C -       ",
"      = A ` ` ` ` ` ` ` ` ` ` ` ` ` ' ` ` ` ` ` ` ` ' ` ' ( ' ' ` ` ` ` ` ` _ ' ` ` ` ` ` ` _ ` ` ` ` ` ` ` ` ` ` ` ` C =       ",
"      = A ` ` ` ` ` ` ` ` ` ` ` ` ` ` ` ` ` ` ` ` ` ` ` ( ' ' ( ` ' _ ` _ ` _ ' ` ` ` ` ` ` ` ` ` ` ` ` ` ` ' ( ` ` ` C =       ",
"      - C ` ` ` ` ` ` ` ` ` ` ` ` ` ` ` ` ` ` ` ` ` ` ` ( ' ( ( _ _ _ _ ` ` _ _ ` ` ` ` ` ` ` ` ` ` ` ` ` ' ( ' ` ` ` B -       ",
"      - B ` ` ` C ~ ' ` ( ~ A C B x l k k f f w w 0 q 0 0 0 0 0 0 0 0 0 0 e 0 w w w h l l x B A D ^ _ ` ` ` ( ' ` ` ` x u       ",
"      i l ` ` ` 8 z k < > % + i a U Y T T W u f x B B B B V C V B V B V B B B x q p W T E U a d - + 1 w V ~ C ( ` ` ` k d       ",
"      p w ' ` ` 8 % k A ~ ~ 8 [.#X%X%X%X%X@X9 ^ ' ' ( ' ` ` ` ` ` ` ` ` ` ` _ ` ~ d @X$X$X#X#X#X].9 A x r % X D ` ` ` 0         ",
"        % _ ` ` 8 C ` ` ` ( C U %X*X*X*X*X{.q ' ( ( ' ( ` ` ` ( ` ` ` ` ` ` ` ` ` e }.*X*X*X*X$Xm A ` ` ` D % D ` ` ` %         ",
"        X ~ ` ` B ~ ( ' ` ` ` k R &X*X*X@X9 ! ` ' ' 2.3.3.3.4.4.4.4.4.4.4.4.| ` ` D 9 +X*X*X&XR l _ ` ` ` ` 1 D ` ` ~ o         ",
"        = V ` ` ` ` ' ( ( ` ` ( w T %X#Xs C ` ` ( 1.y.y.y.y.y.y.y.y.y.y.y.y.r.{ ` ` B m #X$XT h _ ` ` ` ` ` x ^ ` ` B =         ",
"        - f ` ` ` ` ' ( { ] ( ` ( h E N B ( ` ` { r.y.y.y.y.y.y.y.y.y.y.y.y.y.7.' ` ` x U U k ( ` ` ' { ` ` ` ` ` ` q u         ",
"          + _ ` ` ' ( ' 1.7.{ ' ` _ B V ( ` ` ' 7.y.y.y.y.y.y.y.y.y.y.y.y.y.y.y.6.' ` _ B B _ ` ` ' 5.5.` ` ` ` ` / X           ",
"          o V ` ' ' ( ' <.y.r.| ' ( ' ( ' ( ] 6.y.y.y.y.y.y.y.y.y.y.y.y.y.y.y.y.y.3.' ` ` ` ` ` } 7.t.5.` ` ` ` ` B o           ",
"          = 8 ` ( ' ' ( | y.y.t.1.' ' ( ` ] 5.y.y.y.y.y.y.y.y.y.y.y.y.y.y.y.y.y.y.y.5.] ` ` ` | 7.y.y.2.` ` ` ` ` 1 -           ",
"            o A ' ( ' ' ' t.y.y.y.7.2...2.7.y.y.y.y.y.y.y.y.y.y.y.y.t.y.y.y.y.y.y.y.y.0.4.1.6.y.y.y.y.<.` ` ` ` C o             ",
"            - 0 ( ' ( ( ( 5.y.y.y.y.y.y.y.y.y.y.y.t.7.6.4.2.1.<.<.<.<.2.4.6.r.t.y.y.y.y.y.y.y.y.y.t.7.' ` ` ` _ 8 -             ",
"              o C ` ] ( ' { t.y.y.y.y.y.y.y.y.r.3.{ | ..1.4.5.6.6.6.6.5.1.| { 1.0.y.y.y.y.y.y.y.y.r.{ ` ` ` ` V o               ",
"              p % ( ( ] ( ] 2.y.y.y.y.y.y.y.y.7.3.7.r.y.y.y.y.y.y.y.y.y.y.y.0.5.0.y.y.y.y.y.y.y.t.<.' ` ` ' ^ %                 ",
"                - h ( ( ' ( ( 6.y.y.y.y.y.y.y.y.y.y.y.y.y.y.y.y.y.y.y.y.y.y.y.y.y.y.y.y.y.y.y.t.1.` ` ` ' ( f -                 ",
"                  o C ( ( ' ( ] 5.y.y.y.y.y.y.y.y.y.y.y.y.y.y.y.y.y.y.y.y.y.y.y.y.y.y.y.y.y.t.1.' ` ` ` ( B o                   ",
"                    + D ] ' ( ' ' 2.r.y.y.y.y.y.y.y.y.y.y.y.y.y.y.y.y.y.y.y.y.y.y.y.y.y.y.0.| ' ` ` ` ` S @                     ",
"                    i * ! ( ] ( ` ` { 4.r.y.y.y.y.y.y.y.y.y.y.y.y.y.y.y.y.y.y.y.y.y.t.0.2.] ` ` ` ` ` D + p                     ",
"                      u > ! ( ' ` ` ` ` ] <.5.7.r.y.y.y.y.y.y.y.y.y.y.y.y.y.y.t.0.6.<.] ' ( ` ` ` ` D % u                       ",
"                        u > D ' ` ` ` ` ` ` ` ' { { <.2.5.6.7.7.7.6.7.6.3.1.<.{ ] ( ' ( ` ` ` ` ` A & 9                         ",
"                          u * V ` ` ` ` ` ` ` ` ` ` ` ` ` ` ' ` ( ( ] ( ] ( ] ( ' ( ' ( ' ' ' ( B * u                           ",
"                              + k ~ ` ` ` ` ` ` ` ` ` ` ` ` ` ` ( ] ( ' ( ' ( ' ( ' ( ] ' ( ~ f $                               ",
"                                = > Z ( ` ` ` ` ` ` ` ` ` ` ` ` ' ( ' ( ( ' ] ( ( ' ( ( ( B > -                                 ",
"                                    $ < V / ` ` ` ` ` ` ` ` ` ` ( ] ( ] ' ( ' ' ] ( ( C < $                                     ",
"                                      u $ < z ! ( ` ` ` ` ` ` ` ` ` ` ' ( ' ( ( D x 1 = u                                       ",
"                                            = + 8 l A ^ _ ` ` ` ` ` ` ( ( S l 0 X -                                             ",
"                                                  - o . % > 8 0 8 1 > * . o -                                                   ",
"                                                              u u                                                               "
};
