/* XPM */
static char *_1656467184[] = {
/* columns rows colors chars-per-pixel */
"64 64 223 2 ",
"   c None",
".  c #040202",
"X  c #0B0304",
"o  c #0B0B0B",
"O  c #080A05",
"+  c #130304",
"@  c #1B0406",
"#  c #1B0C0B",
"$  c #160A07",
"%  c #081603",
"&  c #1C1307",
"*  c #151607",
"=  c #131313",
"-  c #181717",
";  c #1C1B1B",
":  c #1A1719",
">  c #220508",
",  c #2C060A",
"<  c #240B09",
"1  c #2B0B0B",
"2  c #220706",
"3  c #3C0A0E",
"4  c #35090C",
"5  c #2B150A",
"6  c #260D11",
"7  c #3D0C12",
"8  c #350C12",
"9  c #261719",
"0  c #38171C",
"q  c #3A130F",
"w  c #0A2905",
"e  c #132906",
"r  c #093D07",
"t  c #163609",
"y  c #21201F",
"u  c #273716",
"i  c #232323",
"p  c #2A2A2A",
"a  c #3D2728",
"s  c #2F2F31",
"d  c gray20",
"f  c #3C3939",
"g  c #2F302F",
"h  c #351F23",
"j  c #46090E",
"k  c #440C12",
"l  c #4C0C12",
"z  c #540D15",
"x  c #5B0D15",
"c  c #5B0E18",
"v  c #530E18",
"b  c #43191D",
"n  c #471319",
"m  c #571119",
"M  c #640E16",
"N  c #640E19",
"B  c #6B0E1A",
"V  c #760F1C",
"C  c #66111C",
"Z  c #6A111C",
"A  c #74111B",
"S  c #7B111D",
"D  c #431C21",
"F  c #511E27",
"G  c #791421",
"H  c #49282C",
"J  c #483738",
"K  c #513B3D",
"L  c #55222D",
"P  c #722F3E",
"I  c #094507",
"U  c #134508",
"Y  c #085807",
"T  c #135711",
"R  c #097708",
"E  c #13730C",
"W  c #265917",
"Q  c #497E3F",
"!  c #434343",
"~  c #4B4B4B",
"^  c #554949",
"/  c #545454",
"(  c #5C5C5C",
")  c #5B5656",
"_  c #64595A",
"`  c #646464",
"'  c #6A6969",
"]  c #6A6464",
"[  c #746B6C",
"{  c #726767",
"}  c #737373",
"|  c #7B7B7B",
" . c #7F7674",
".. c #84121E",
"X. c #8B111F",
"o. c #9B111F",
"O. c #94121E",
"+. c #810F1D",
"@. c #A3121E",
"#. c #AD141C",
"$. c #B8151B",
"%. c #841322",
"&. c #8D1322",
"*. c #941222",
"=. c #9A1121",
"-. c #950F21",
";. c #A21323",
":. c #AE1527",
">. c #B31728",
",. c #BD1D33",
"<. c #CC1A19",
"1. c #C4171A",
"2. c #D31C1A",
"3. c #DB1D19",
"4. c #D91E17",
"5. c #E31E17",
"6. c #F11F16",
"7. c #E92118",
"8. c #FE2211",
"9. c #F62215",
"0. c #FC230F",
"q. c #C11D34",
"w. c #C9223B",
"e. c #D0243E",
"r. c #863A4B",
"t. c #933D52",
"y. c #BD3950",
"u. c #D52A45",
"i. c #C72F4A",
"p. c #E72D4B",
"a. c #FF3456",
"s. c #FE3558",
"d. c #FC3A5D",
"f. c #F43353",
"g. c #EE3050",
"h. c #FD3E62",
"j. c #984255",
"k. c #A7475C",
"l. c #B94E67",
"z. c #BB526A",
"x. c #CB5672",
"c. c #FC4567",
"v. c #FE4E71",
"b. c #FE5374",
"n. c #FE5B7C",
"m. c #F3617F",
"M. c #058706",
"N. c #039804",
"B. c #119F13",
"V. c #08A607",
"C. c #0FB70C",
"Z. c #369922",
"A. c #47AF3B",
"S. c #429A32",
"D. c #06C506",
"F. c #07D705",
"G. c #14DA0E",
"H. c #08E508",
"J. c #03FD02",
"K. c #07F907",
"L. c #16F40F",
"P. c #30F115",
"I. c #30FB2E",
"U. c #4AFC28",
"Y. c #59EE3D",
"T. c #55D03F",
"R. c #52F64B",
"E. c #6EF152",
"W. c #7ACB6A",
"Q. c #77FA65",
"!. c #83DA72",
"~. c #8CFE75",
"^. c #8CF473",
"/. c #FE5E82",
"(. c #EB6382",
"). c #FD6585",
"_. c #FD6788",
"`. c #F46686",
"'. c #7F8080",
"]. c #838282",
"[. c #8B8A8A",
"{. c #888183",
"}. c #949393",
"|. c #9C9B9C",
" X c #999695",
".X c #A1A19F",
"XX c #9E9FA0",
"oX c #A4A3A3",
"OX c #ABABAB",
"+X c #AAA8A6",
"@X c #B3B3B3",
"#X c #BDBDBD",
"$X c #B7B8B8",
"%X c #B0B1AF",
"&X c #8EFE84",
"*X c #A7FD99",
"=X c #BBFE97",
"-X c #B0FCAE",
";X c #90DF80",
":X c #C1C1BE",
">X c #CDFEBF",
",X c #BDFFC7",
"<X c #C3C3C3",
"1X c #CCCCCC",
"2X c #D1CFD1",
"3X c #D3D3D3",
"4X c #DCDCDC",
"5X c #D8D8D8",
"6X c #CECFD0",
"7X c #C1FFD3",
"8X c #E2E3DF",
"9X c #E0DFE0",
"0X c #DFE2E1",
"qX c #CBFFE6",
"wX c #E4E4E3",
"eX c #E8E9E7",
"rX c #ECECEC",
"tX c #E9E7E8",
"yX c #F0EFF0",
"uX c #F4F4F4",
"iX c #FDFDFD",
"pX c #F8F7F8",
"aX c #F0EFEE",
/* pixels */
"                                                                                                                                ",
"                                                                                                                                ",
"                                                                                                                                ",
"                                                                                                                                ",
"        o -                                                                                                         .           ",
"      i . O                                                                                                       ; . -         ",
"      - . .                                                 i i i i                                               = . =         ",
"      o o = -                                   i - . . . . X X X X . . . o - p                                   . i .         ",
"      o ~ } .                               ; o X # 0 L P t.k.k.k.k.t.P L 0 + O o i                             o ; .X.         ",
"      O ].yXo o                         - O . 0 j.x.(.)._.).).).)._.).).`.(.z.r.6 . O y                       ; . |.wX. =       ",
"      - %XiXOX. =                   i o X F k.`._._.).n.b.b.v.v.b.b.n.n.)._.)._.(.j.0 X o p                 i O } iXuX. o       ",
"      ; <XiXiX|.o =               = . 9 l.`._.n.v.c.d.s.s.s.a.a.a.s.s.s.d.c.b.n.)._.`.t.6 . -             i O ) uXiXpX= o       ",
"    - d eXiXiXiX|.o o           o # r.(.).b.c.h.s.a.a.a.a.a.a.a.a.a.a.a.a.a.s.d.c.n.).).x.P o =         - o / tXiXiXiXf O       ",
"    = ! pXiXiXiXpX| . o       O + t.`._.v.h.a.a.a.a.s.a.a.a.a.a.a.a.a.a.a.a.a.a.a.d.c.).`.m.P . o     ; . ( 0XiXiXiXiX( O       ",
"    o ( iXiXiXiXiXiX1Xi . = . D z._.n.c.s.a.a.a.a.a.a.a.a.a.a.a.a.a.a.a.a.a.a.a.a.a.a.s.v.).).j.6 O O o }.iXiXuXiXiXiX` O       ",
"    o ( pXiXiXrXtXiXiX1X; . 9 z.)./.h.s.a.a.a.a.a.a.a.a.a.a.a.a.a.a.a.a.a.a.a.a.a.a.a.a.d.c.n.`.k.# O ' uXrX3X#X1XpXiX' O       ",
"    O ( iXiX5X#X#XeXiX1X- 6 l.).n.d.a.a.a.a.a.a.a.a.a.a.s.a.a.a.a.a.a.a.a.a.a.a.a.a.a.a.a.a.h.n.`.t.# s rX5X@XOXOX2XiX} o       ",
"    o ) iXuX#X#X<XrXiXf X r.).n.c.a.a.a.a.a.a.a.a.a.a.a.a.a.a.a.a.a.a.a.a.a.a.a.s.a.a.a.a.a.s.c.n.(.F . |.pX0X@XOX$XiX' .       ",
"    = ! pXeX#X#XwXpX@XO v y.n.h.s.a.a.a.a.a.a.a.a.a.a.a.a.a.a.a.a.a.s.a.a.a.a.a.a.a.a.a.a.a.s.s.h.i.&.7 = 3XiX<XOX#XiX` o       ",
"    - p 5XrX#X<XuX<Xg @ c %.i.s.a.a.a.a.a.a.a.a.a.a.a.a.a.a.a.a.a.a.a.a.a.a.a.a.a.a.a.a.a.a.s.f.e.=.B Z + ( tX0X%X3XiXd o       ",
"      o |.uX#X6XpX/ . l + < &.u.a.a.a.a.a.a.a.a.a.a.a.a.a.a.a.a.a.a.a.a.a.a.a.a.a.a.a.a.s.s.s.q.=.v X z k . [.iXaXpXrX. o       ",
"      O f iXpXiX5X- @ k I r 3 *.,.f.a.a.a.a.a.a.a.a.a.a.a.a.a.a.a.a.a.a.a.a.a.a.a.a.a.a.s.f.,.=.B * I * A + p eXiXiX|..         ",
"      = . 6XiXiX[.+ l O R N.I l X.q.f.a.a.a.a.a.a.a.a.a.a.a.a.a.a.a.a.a.a.a.a.a.a.a.a.a.g.,.*.N * M.M.r v k X +XiXiXi =         ",
"        O ~ iXwXg < n r N.C.F.I 3 O.,.p.a.a.a.a.a.a.a.a.a.s.a.a.a.a.a.a.a.a.a.a.a.a.f.p.>.=.B e B.H.N.R # Z @ / pX+X.           ",
"        ; . <X%Xo 7 < R V.H.J.C.I z =.>.g.a.a.a.a.a.a.a.a.a.a.a.a.a.a.a.a.a.a.a.a.s.p.:.*.S & V.K.J.C.M.w C 7 ; 3Xg o           ",
"          o - ; + k % M.D.J.J.I.R.U k %.;.e.f.a.a.a.a.a.a.a.a.a.a.a.a.a.a.a.a.a.f.w.=.*.m * A.Y.K.J.F.V.Y k N X . .             ",
"            . . 2 4 r N.H.J.K.&X7XT.u q S ;.w.f.a.a.a.a.a.a.a.a.s.a.a.a.a.a.a.g.q.=.-.M u Z.*X-XI.K.H.V.R > C @ . -             ",
"            ; . 3 < Y V.J.K.I.Q.=X~.!.S.5 A O.>.p.a.a.a.a.a.a.a.a.a.a.a.a.f.e.:.=.%.3 u W.~.*X*XQ.I.J.D.M.$ B , .               ",
"            i . v < r V.J.L.-XE.^.>X7X-XS.* j X.;.,.p.f.s.s.s.s.a.s.a.f.u.:.o.=.A < W ^.7X7X~.Y.*XR.J.H.R % B k .               ",
"            - X A Z > Y H.K.I.U.~.7XqX-XR.G.Y 5 Z %.=.>.w.p.g.g.p.u.,.;.o.-.V k e C.U.*XqXqX*XU.L.K.H.B.* c X.M .               ",
"            - + ..=...k t R G.P.E.-X7X*XU.K.K.B.U 5 C X.=.;.;.;.;.o.=.X.A k t R G.K.P.~.7X7X~.P.G.V.U 5 B *.*.A X 9             ",
"            = @ ..o.=.*.C 8 e E Z.W.!.E.P.G.G.H.C.T $ 8 %.=.=.=.=.=.*.z @ w B.G.H.H.P.Y.!.W.A.M.I & m G =.=.=.A X ;             ",
"            o > &.=.=.=.o.*...C l 4 2 # & & & & < < 8 l ..o.=.=.=.=.*.z 7 1 < & * % % % . $ 8 c A *.=.=.=.=.=.V + -             ",
"            = > &.=.=.=.o.=.=.*.O...+.V S G V V S ..X.*.*.=.=.=.=.o.=.*.%.A v n h y p ~ ~ ! H m Z &.*.o.-.=.=.S + -             ",
"            o @ &.=.=.=.*.&.A z j 3 j M S &.-.*.o.o.=.*.=.=.=.=.=.*.%.N 4 a  .+X:X[.].wX8X4X<XoX' 0 j M %.*.=.G + -             ",
"            = > &.*.%.m b K [ }.[.) .X[.] J n c S %.&.*.&.%.A M l D ^ {.@X5X0XeXrX.X[.iXiXpXpXaXeX3X+X] , j j l X -             ",
"            = + N 3 6 [.5X4XtXtX:X} eXwXwX4X3X[.i H a a a f ^ J oX5X4XwXwXrXpXiXiX+X| iXiXiXiXiXiXpXtX+Xc *.&.C X ;             ",
"            - + v B H 9XrXuXpXpX3X].iXpXuXuXeX3X} 3X3X6X6X4X0X}.@XuXuXpXpXiXiXiXiXoX( iXiXiXiXiXiXiXeX+XB =.=.B X ;             ",
"            - X A X.D 0XpXiXiXiX1X].iXiXiXiXiX0X'.rXuXuXuXuXpXoX#XiXiXiXiXiXiXiXiX}.! uXiXiXiXiXiXiXeX}.A o.-.c .               ",
"              . c *.z $XrXiXiXpX|.) iXiXiXiXiX3X'.wXaXpXiXpXyX| 1XrXwX3X3X3XuXiXiX` i wXiXiXiXiXiXpX3X_ X.=.*.k .               ",
"              . k -.S _ 1X9XrX2X~ ; +X|.}.}.|.'.p ( ' ( ) ( / f ` ' ( ! d ~ ` | +Xp o @X#X( #XiXiXuX%XH *.o.O., .               ",
"              . , &.=.k i f ! ~ d i = i |.} d o [.wXeX+Xd $X3X4XtXeXtX5X} +X9X%Xp . . i ; . g |.|.}./ 8 =.o.+.+ -               ",
"              i + G *.^ @X5XyXiXiXpX3X| pXiXiX5XiXiXiXiX' iXiXiXiXiXiXiXOXoXiXiXpX<X+X}.| ~ ( OXOXXX].H *.=.N X                 ",
"                . c &._ 9XuXiXiXiXiX1X].iXiXiXiXiXiXiXiX' iXiXiXiXiXiXiX@XoXiXiXiXiXiXiXiX#XOXiXiXpX5X{ X.*.3 o                 ",
"                o , %.H 9XaXiXiXiXpX<X'.pXiXpXiXpXiXpXpX` pXpXpXuXuXuXuX|.XXyXyXuXyXuXuXuX%XOXpXpXpXwX}.A B @ -                 ",
"                ; + c n 3X8XeXrXtXrX@X| eXrXrXeXeXeXeXeX( wX8X8X9X4X3X3X[.}.3X2X3X3X3X3X5XXXXXeXtXtXwX+XN 7 X                   ",
"                  O @ 7 ] [ } [ [ [ _ f [ [ ' { ] _ _ ^ y K H H H H n b n k n n n n n b D 0 b H J K ^ J z X =                   ",
"                  = . 7 C C C C C C C N B C C C Z Z Z Z A S S S ....X.&.X.&.*.&.*.&.&.X.%.X.X.S S A Z C 7 . i                   ",
"                    o @ %.*.*.=.=.*.=.*.=.=.o.o.*.-.o.o.o.@.@.@.@.;.@.@.@.@.o.o.=.=.=.=.=.=.=.o.o.o.-.A X ;                     ",
"                      . k &.=.=.=.=.=.=.o.=.o.@.#.$.$.$.1.2.2.2.4.4.3.4.2.<.1.$.$.;.=.;.=.o.o.o.o.o.S , O                       ",
"                      - . j &.=.o.=.>.<.3.5.9.9.9.8.8.8.0.8.8.8.8.8.8.8.8.8.8.8.9.9.6.5.2.1.;.o.o.X., .                         ",
"                        O + M *.=.o.#.2.9.8.8.8.8.8.8.8.8.8.8.8.8.8.8.8.8.8.8.8.8.8.8.8.9.5.;.o.-.z X =                         ",
"                          o @ A o.=.*.@.<.9.8.8.8.8.8.8.8.8.8.8.8.8.8.8.8.8.8.8.8.8.8.8.5.:.o.O.x X =                           ",
"                            O @ M *.=.o.o.:.3.8.8.8.8.8.8.8.8.8.8.8.8.8.8.8.8.8.8.8.8.3.@.=.*.j + o                             ",
"                              O X z *.=.o.=.o.$.5.9.8.8.8.8.8.8.8.8.8.8.8.8.8.8.8.6.1.@.=.*.j . o                               ",
"                                o . 7 A =.=.=.=.;.$.<.5.6.0.8.8.8.8.8.8.8.8.9.5.<.#.o.-.B , . =                                 ",
"                                  o . 2 M *.=.=.=.o.o.@.$.<.2.3.5.5.5.7.3.2.1.#.o.=.&.c + . =                                   ",
"                                    i o . 2 z ..=.=.=.=.=.o.o.=.=.o.o.o.=.o.-.*.S l + . =                                       ",
"                                        = o X , z B X.&.-.=.*.*.=.=.=.*.-...M j @ X o -                                         ",
"                                            p . . . @ > k c B B B N z 7 > + X . o d                                             ",
"                                                  ; = o . . . . . . . . O = y                                                   ",
"                                                          d p 9 i p                                                             ",
"                                                                                                                                ",
"                                                                                                                                "
};
