/* XPM */
static char *a9211964371543988dac8fd79bb70e3cRK1yFxuwPlFHW2Rd[] = {
/* columns rows colors chars-per-pixel */
"64 64 210 2 ",
"   c None",
".  c #010101",
"X  c #0C0403",
"o  c #0C0C0C",
"O  c #070808",
"+  c #1D0503",
"@  c #130C0B",
"#  c #190805",
"$  c #0E1010",
"%  c #141313",
"&  c #1C1212",
"*  c #1B1B1B",
"=  c #250602",
"-  c #2D0A05",
";  c #280A06",
":  c #340601",
">  c #3B0601",
",  c #3C0902",
"<  c #340A05",
"1  c #28120D",
"2  c #3D1302",
"3  c #3E1803",
"4  c #231111",
"5  c #291B1A",
"6  c #361616",
"7  c #3D211E",
"8  c #242424",
"9  c #2B2B2B",
"0  c #2A2625",
"q  c #342B2A",
"w  c #343333",
"e  c #3A3A3A",
"r  c #3B3535",
"t  c #420601",
"y  c #440B01",
"u  c #4B0A02",
"i  c #4A0903",
"p  c #540A01",
"a  c #5B0900",
"s  c #540700",
"d  c #451402",
"f  c #431C03",
"g  c #471409",
"h  c #511F02",
"j  c #421C1A",
"k  c #441A17",
"l  c #640A00",
"z  c #6C0B00",
"x  c #740B00",
"c  c #7C0C00",
"v  c #462505",
"b  c #553705",
"n  c #43211D",
"m  c #542B03",
"M  c #612D02",
"N  c #7D3802",
"B  c #452926",
"V  c #5D2222",
"C  c #493937",
"Z  c #48302E",
"A  c #682525",
"S  c #732828",
"D  c #735407",
"F  c #776507",
"G  c #665928",
"H  c #444545",
"J  c #4B4B4B",
"K  c #484646",
"L  c #544745",
"P  c #545454",
"I  c #5B5B5B",
"U  c #645C5B",
"Y  c #636363",
"T  c #6C6C6C",
"R  c #686161",
"E  c #747474",
"W  c #7C7C7C",
"Q  c #787676",
"!  c #6F6F6F",
"~  c #840D00",
"^  c #8B0E00",
"/  c #930F00",
"(  c #961000",
")  c #991000",
"_  c #B90F00",
"`  c #A31102",
"'  c #AC1102",
"]  c #AD1409",
"[  c #B11000",
"{  c #BC1001",
"}  c #BC170E",
"|  c #B6160C",
" . c #A11F14",
".. c #822F2E",
"X. c #893131",
"o. c #993736",
"O. c #85302F",
"+. c #A83C3C",
"@. c #BD2D24",
"#. c #B32217",
"$. c #C41001",
"%. c #CD1001",
"&. c #D31001",
"*. c #DB1001",
"=. c #C51911",
"-. c #CB1A14",
";. c #DD1E1B",
":. c #D41C17",
">. c #E31F1E",
",. c #C9211B",
"<. c #E7201F",
"1. c #ED2122",
"2. c #EC2A2A",
"3. c #E92526",
"4. c #EC3535",
"5. c #EC3C3C",
"6. c #914C03",
"7. c #A85202",
"8. c #B45501",
"9. c #A04A01",
"0. c #8F6B07",
"q. c #B27305",
"w. c #AC6704",
"e. c #B2403F",
"r. c #C95D01",
"t. c #C66401",
"y. c #DF6B00",
"u. c #D66501",
"i. c #DD7601",
"p. c #CD7103",
"a. c #E27B01",
"s. c #E17300",
"d. c #BB4342",
"f. c #CB4847",
"g. c #D74D4C",
"h. c #DE504F",
"j. c #EC4343",
"k. c #ED4C4B",
"l. c #E14A47",
"z. c #ED5554",
"x. c #E15150",
"c. c #F05655",
"v. c #948809",
"b. c #A98E0C",
"n. c #B2A60C",
"m. c #CA9608",
"M. c #E28402",
"N. c #E58C03",
"B. c #E69304",
"V. c #E79B06",
"C. c #C9A50A",
"Z. c #C7B70D",
"A. c #D4B80C",
"S. c #D0AB0A",
"D. c #EBA907",
"F. c #ECB806",
"G. c #F1BD07",
"H. c #EAA91A",
"J. c #C3A327",
"K. c #EEB935",
"L. c #D8C70E",
"P. c #F2D112",
"I. c #FBE90D",
"U. c #FDF40E",
"Y. c #FEF515",
"T. c #F2CA39",
"R. c #F4D12E",
"E. c #FCEC29",
"W. c #FDF734",
"Q. c #B99F60",
"!. c #9A854E",
"~. c #F1D851",
"^. c #EDC262",
"/. c #FDF863",
"(. c #7F8081",
"). c #838383",
"_. c #8C8C8C",
"`. c #888787",
"'. c #939393",
"]. c #9C9C9D",
"[. c #8F9191",
"{. c #9FA0A0",
"}. c #A4A4A4",
"|. c #ACACAC",
" X c #B3B3B3",
".X c #BBBCBC",
"XX c #D5CB91",
"oX c #F7E889",
"OX c #F6E49E",
"+X c #FBF4BA",
"@X c #F5D78E",
"#X c #C4C4C5",
"$X c #CBCBCB",
"%X c #CDCDCD",
"&X c #CCCCCC",
"*X c #D3D4D4",
"=X c #DCDCDC",
"-X c #D7D9D9",
";X c #FDF7D6",
":X c #F9EAC1",
">X c #DFE0E0",
",X c #E3E3E3",
"<X c #ECECEC",
"1X c #E7E8E8",
"2X c #F3F4F4",
"3X c #FFFFFF",
"4X c #FDFDFD",
"5X c #FEFEFE",
"6X c #FBFCF8",
"7X c #F6F5EE",
/* pixels */
"                                                                                                                                ",
"                                                                                                                                ",
"                                                                                                                                ",
"                                                                                                                                ",
"          O                                                                                                           o         ",
"          % *                                                                                                         % *       ",
"        o Y e                                           $ & & 4 4 4 4 & o $                                         * Q 8       ",
"        % |._.%                                 % 4 6 V ..o.e.d.f.d.e.+.X.A j 4 %                                   J $Xw       ",
"        8 *X=Xw                             % 6 A e.g.z.z.c.c.c.z.c.c.c.c.z.h.d...j &                             * |.2XK       ",
"        w ,X4X_.%                       @ 6 X.f.z.c.z.c.z.c.c.c.z.z.z.z.z.z.z.z.z.h.+.j @                         I 2X4XY       ",
"        J 2X4X<XP                     4 S f.c.z.z.z.k.k.k.j.j.5.j.5.j.j.k.k.k.z.z.z.c.h.o.6 %                   9 $X4X4X).O     ",
"        Y 4X4X4X$Xw               % j e.z.c.z.z.j.5.4.2.3.3.1.1.1.1.1.3.3.2.2.4.j.k.z.c.z.f.A &               * ].4X4X4X'.%     ",
"        E 4X4X4X4X.Xw           o A f.c.c.k.5.2.3.1.>.1.1.1.1.1.1.1.1.1.1.1.1.1.1.3.4.k.z.c.h.O.4           * '.6X4X4X4X|.%     ",
"        W 4X4X4X4X4X.Xe %     @ S h.z.k.4.3.1.1.1.1.1.1.1.1.1.1.1.1.1.1.1.1.1.1.1.1.1.1.2.k.z.z.o.4       8 _.2X4X4X4X4X X%     ",
"        W 4X4X4X4X2X-X XI * @ S x.c.j.2.1.1.1.1.1.1.1.1.1.1.1.1.1.1.1.1.1.1.1.1.1.1.1.1.1.2.5.z.z.o.4 $ K ].%X,X4X4X4X4X X%     ",
"        ).4X4X4X2X-X&X%X|.0 A x.c.5.2.1.1.1.1.1.1.1.1.1.1.1.1.1.1.1.1.1.1.1.1.1.1.1.1.1.1.1.1.4.z.z.o.& _.%X$X%X,X4X4X4X X%     ",
"        Q 4X4X4X>X$X&X#XP < f.c.j.3.1.1.1.1.1.1.1.1.1.1.1.1.1.1.1.1.1.1.1.1.1.1.1.1.1.1.1.1.1.1.4.z.z.A w |.%X&X%X2X4X4X X%     ",
"        T 4X4X2X&X$X&X).4 ~ @.j.2.1.1.1.1.1.1.1.1.1.1.1.1.1.1.1.1.1.1.1.1.1.1.1.1.1.1.1.1.1.1.1.1.j.j. .: P #X&X&X-X4X4X{.%     ",
"        I 6X4X=X$X$X X0 s ^ ) ,.1.1.1.1.1.1.1.1.1.1.1.1.1.1.1.1.1.1.1.1.1.1.1.1.1.1.1.1.1.1.1.1.1.3.#.^ z 4 _.&X&X&X2X4X'.o     ",
"        H <X2X*X$X$XY - i > ^ ` :.1.1.1.1.1.1.1.1.1.1.1.1.1.1.1.1.1.1.1.1.1.1.1.1.1.1.1.1.1.1.1.<.} / u : t r .X&X$X=X6XQ       ",
"        9 -X1X&X$X}.5 i d M u / ' ;.1.1.1.1.1.1.1.1.1.1.1.1.1.1.1.1.1.1.1.1.1.1.1.1.1.1.1.1.1.<.=.( l h M y ; W %X&X-X<XP       ",
"        % |.>X$X$XR : t 9.u.m a / ] >.1.1.1.1.1.1.1.1.1.1.1.1.1.1.1.1.1.1.1.1.1.1.1.1.1.1.1.1.-.) z d 8.r.d > w .X&X%X%Xw       ",
"          ! *X&X X0 i h r.y.r.v l ) | 1.1.1.1.1.1.1.1.1.1.1.1.1.1.1.1.1.1.1.1.1.1.1.1.1.1.<.,.) c f 7.y.y.N i ; _.&X%X'.*       ",
"          w  X%XW : i N y.y.s.q.f z ) } 1.1.1.1.1.1.1.1.1.1.1.1.1.1.1.1.1.1.1.1.1.1.1.1.<.,.) x 3 6.M.i.y.7.y t J #X$XI         ",
"          % ).$XK s y 9.y.i.M.N.q.f z ) } 3.1.1.1.1.1.1.1.1.1.1.1.1.1.1.1.1.1.1.1.1.1.1.=.) x 3 0.B.M.a.y.r.f l 0 |.|.0         ",
"            H ].5 z y 8.i.a.N.B.K.Q.n l ( =.<.1.1.1.1.1.1.1.1.1.1.1.1.1.1.1.1.1.1.1.<.} ) x 0 e.^.V.N.a.s.u.h x < `.T %         ",
"            * H 1 ^ d 8.s.M.N.V.@X;XJ.b p ^ | ;.1.1.1.1.1.1.1.1.1.1.1.1.1.1.1.1.1.;.| / l 3 b.OX:XH.B.N.a.u.h c u e 9           ",
"              O t ^ - 9.a.N.B.D.R.~.~.XXG 3 x ] :.1.1.1.1.1.1.1.1.1.1.1.1.1.1.<.-.` c , G XX/.T.K.D.V.N.M.t.2 x l X $           ",
"    $ * * * % O a ^ > M p.N.V.D.F.P.+X4XoXn.b f c | :.<.1.1.1.1.1.1.1.1.1.<.-.] ~ s v v.~.6X7XR.G.D.V.B.i.6.= c c X $ * * * %   ",
"    H  X X|.`.5 z ) ^ u v w.B.D.G.G.oX7X/.U.L.0.v u c ] =.:.;.<.>.;.;.:.=.' ~ p v F L.I.W.+X+XR.G.F.V.q.b y c ) ~ ; ! ]. X.XT o ",
"    Y 4X4X2X X0 c ) ) / z , b 0.m.F.P.W.Y.Y.U.P.A.0.v , x ( ) ` ` ` ) ) c i 3 F C.P.U.Y.U.Y.E.F.C.0.b d l ^ ) ) / - _.=X4X4X].o ",
"    P 6X4X<X|.4 ~ / ) ) ( ^ z u d b F v.n.n.L.A.S.m.0.1 = ~ ) ) ) / / / > + D b.C.Z.A.n.n.v.F b f u l ^ ) ) ) ) / < W -X6X4X'.% ",
"    H <X4X1X{.1 ~ ) ( ) ) ) ( ( ^ x l u d f f v v d u a c / ) ) ) ) ) / ^ z u d d f f d d u a x ^ ( ( ) ( ) ) ) ( > T *X2X4XW % ",
"    8 %X4X1X].1 ^ ) ) ) ) ) ( ( ) ) ) ) / ^ ^ ^ ~ ^ / ) / ) ) ) ) ) ) ) ) ) ) / / ^ ^ / ( ) (  .( ) ) ) ) ) ( ) / > T *X2X2XP   ",
"    o `.4X1X{.1 ^ ) ) ( ( ) ( c l p a l c / ) ) ) ) ) ) ) ) ) ) ) / ) ) ) ) ) / ) ) ) / ~ z a Z p z ^ ) ) ( / ) / > T *X6X#X8   ",
"      w *X2X}.1 ~ ) ) ) ) ^ p C Q [._.U 0 k p x ^ ) ) ) ) ) ) ) ) ) ) ) ) ) ) ) / ~ z g q Z +.(._.Y n z ) ) ) ) ( : E -X<XI     ",
"      % Y ,X|.5 ~ ) ( ) ^ : C -X4X4X4X*X_.#X`.L j g a x c ~ ^ ^ ^ ^ ^ ~ ~ c z p g B Y }..X_.4X4X4X6X{.& l / ) ) / : (.-X_.%     ",
"        % ! |.0 x ) ( ( > . e <X4X4X4X-X'.4X4X<X%XW T U L C B B j B B Z C L T T }.>X2X4X,X'.6X4X4X4X|.O X z ) ) ^ 1 [._.8       ",
"          % J 0 l ) ( p X . o .X4X4X4X%X).6X4X4X4X X>X6X<X,X=X-X#X%X=X>X1X2X6X X=X4X4X4X*X).4X4X4X6XY . . + ~ ) ~ 4 P 8         ",
"            o O u ) c + . . . J 1X4X4X.XJ 1X4X4X4X(.*X4X4X4X4X4X#X1X4X4X4X4X4X'..X4X4X4X}.P 2X4X4X X% . . . t / x X o           ",
"              $ : ( y . . . . . I %X<XW O W ,X2X.X0 '.4X4X4X4X2XY |.4X4X4X4X<XK I ,X2X#Xw * #X1X}.8 . . . . X c a O             ",
"                ; x + . . . . . . 8 e o . O w K * . 0 ].-X,X%XQ O 9 |.=X,X$XT O O w K * . . 0 w o . . . . . . i ,               ",
"                @ > X . . . . . . . . . . . . . . . . X 8 9 * . . . O 8 9 % . . . . . . . . . . . . . . . . . + #               ",
"                  X . . . . . . . . . . . . . . . . . . . . . . . . . . . . . . . . . . . . . . . . . . . . . . o               ",
"                  O . . . . . . $ % . . . . o 8 * O . O * 9 * . . . O 8 9 % O . o 0 * O . . . o % . . . . . . .                 ",
"                  % . . . . O I .X$XQ O O J  X-X-XY O W *X>X%X! O 8 }.=X=X.Xe % }.>X%X_.0 . 9 |.%X].w . . . . O                 ",
"                    . . . . T 2X4X4X=X8 P <X4X4X4X#XK 1X4X4X4X>X0 Q 4X4X4X4X].P 6X4X4X4X X* E 4X4X4X$X9 . . . %                 ",
"                    o . . w ,X4X4X4X<XJ  X<X=X%X.X'.e _._._.).Q * K ).)._.'.Y P  X#X*X>X<XY [.4X4X4X4X].O . O                   ",
"                      O . _.4X4X2X*X].w L C B k g i i i p p a a a a a a s s i i g k 6 Z L r I .X,X6X4X1Xe .                     ",
"                      % % #X$X`.L n i a x c ^ ^ ^ / ) ) ) ) ) ) ) ) ) ) ) ) ) ) / ( / ~ c l p g Z R }.=XY X                     ",
"                        * C n p x ^ ( ) / ) ) ) ) ) ) ( / ) ) ) ) ) ) / / ) ) ) / ) ) ) / ) ( / ~ z g q 8                       ",
"                          X l ) ) ) ( ) ) ) ) ) ) ( ) ` [ { $.$.$.$.$._ [ ' ) ) ) / ) ) ) ) ) ) ) ) ^ =                         ",
"                            ; c ) ( ) ) ) ( ) ( ) [ $.&.*.*.*.*.*.*.*.*.*.&.&.$.[ ` ) ) ) ( ) ( ) ^ > %                         ",
"                              = c ( ) ( ) ) ) [ %.*.*.*.*.*.*.*.*.*.*.*.*.*.*.*.*.&.{ ) ) ( ) ) ^ > %                           ",
"                                ; x ( ) ( ) ) { *.*.*.*.*.*.*.*.*.*.*.*.*.*.*.*.*.*.{ ) ) ) ) ~ > @                             ",
"                                  + l / ) ) ) ) [ %.*.*.*.*.*.*.*.*.*.*.*.*.*.*.&._ ) ) ) ( c - %                               ",
"                                    @ y ~ ) ( ) ( ` [ $.$.%.&.&.*.&.&.&.%.$.$.[ ` ) ) ) ^ a +                                   ",
"                                      o = a ^ ) ) ( ( ) ) ) ` ` ` ` ` ` ) ) ) ) ) / / z : @                                     ",
"                                          @ - a ~ ( ) ) ) ) ) ) ) ) ) ) ) ) ) ) ^ z , @                                         ",
"                                              @ + , l c ^ / ) / ) ) ) / ^ c z i = @                                             ",
"                                                    X # ; : t u u u y , - + X o                                                 ",
"                                                                                                                                ",
"                                                                                                                                ",
"                                                                                                                                "
};
