/* XPM */
static char *d075f34a9d99442df57bf10b5e255c5aTuCuj2ax4N432zbL[] = {
/* columns rows colors chars-per-pixel */
"64 64 235 2 ",
"   c None",
".  c #010101",
"X  c #0C0403",
"o  c #0C0C0C",
"O  c #090708",
"+  c #130303",
"@  c #1B0101",
"#  c #120C0C",
"$  c #1B0B0C",
"%  c #180708",
"&  c #160F10",
"*  c #141313",
"=  c #1A1415",
"-  c #1C1C1C",
";  c #171718",
":  c #230203",
">  c #2B0202",
",  c #240B0C",
"<  c #2B0A0B",
"1  c #2A0708",
"2  c #330102",
"3  c #3C0202",
"4  c #39060A",
"5  c #241B1B",
"6  c #271515",
"7  c #361514",
"8  c #29120C",
"9  c #1C211F",
"0  c #1E1F20",
"q  c #222222",
"w  c #2A2525",
"e  c #2C2B2B",
"r  c #2A2A29",
"t  c #332A2A",
"y  c #2F3031",
"u  c #343434",
"i  c #3B3B3B",
"p  c #393738",
"a  c #430202",
"s  c #4B0202",
"d  c #490909",
"f  c #540302",
"g  c #5C0303",
"h  c #580A09",
"j  c #4A1106",
"k  c #591906",
"l  c #5A0911",
"z  c #441A19",
"x  c #630302",
"c  c #6C0302",
"v  c #660C09",
"b  c #6A0A05",
"n  c #750202",
"m  c #7B0102",
"M  c #7A0C04",
"N  c #750B0B",
"B  c #6D1305",
"V  c #651C05",
"C  c #661506",
"Z  c #741206",
"A  c #6A0A15",
"S  c #7D0E19",
"D  c #740C15",
"F  c #5A2304",
"G  c #522707",
"H  c #642606",
"J  c #683508",
"K  c #783808",
"L  c #6C3213",
"P  c #472A29",
"I  c #453E3D",
"U  c #6A4206",
"Y  c #775809",
"T  c #764308",
"R  c #40403F",
"E  c #444343",
"W  c #4A4545",
"Q  c #4A4A4A",
"!  c #494648",
"~  c #535353",
"^  c #5B5455",
"/  c #5C5C5C",
"(  c #585758",
")  c #51514F",
"_  c #635B5D",
"`  c #605F60",
"'  c #646464",
"]  c #6C6B6C",
"[  c #6A6667",
"{  c #747474",
"}  c #7C7C7C",
"|  c #777677",
" . c #706E70",
".. c #830202",
"X. c #8C0201",
"o. c #830A04",
"O. c #8B0906",
"+. c #950101",
"@. c #990101",
"#. c #930904",
"$. c #9B0905",
"%. c #900808",
"&. c #840D1C",
"*. c #950E19",
"=. c #981019",
"-. c #A40502",
";. c #AB0501",
":. c #A30B04",
">. c #AB0A05",
",. c #A70C0C",
"<. c #BB0001",
"1. c #B50B04",
"2. c #BE0B03",
"3. c #B9040A",
"4. c #B50607",
"5. c #BB0A14",
"6. c #BC0D1B",
"7. c #BC0710",
"8. c #BA101E",
"9. c #853B08",
"0. c #9C1021",
"q. c #AC1222",
"w. c #A11022",
"e. c #B41222",
"r. c #BB1121",
"t. c #BF0E21",
"y. c #C30101",
"u. c #CB0201",
"i. c #C40C05",
"p. c #CB0C04",
"a. c #CE0F0E",
"s. c #D30401",
"d. c #DA0501",
"f. c #DC0A03",
"g. c #D50D08",
"h. c #DB1005",
"j. c #C50B14",
"k. c #C71116",
"l. c #D0110F",
"z. c #E20701",
"x. c #E40A01",
"c. c #EB0B02",
"v. c #E60B06",
"b. c #F20C01",
"n. c #EE1003",
"m. c #874508",
"M. c #9A4609",
"N. c #885B0A",
"B. c #8E5913",
"V. c #A25A0A",
"C. c #B4530E",
"Z. c #8C720E",
"A. c #B9660A",
"S. c #B97B09",
"D. c #B87913",
"F. c #866C3B",
"G. c #D16509",
"H. c #EA7A06",
"J. c #F57504",
"K. c #97810A",
"L. c #9E9211",
"P. c #B6980B",
"I. c #A18A07",
"U. c #B7AB0E",
"Y. c #D7990C",
"T. c #D4870E",
"R. c #F58401",
"E. c #F18D03",
"W. c #F49B02",
"Q. c #F79501",
"!. c #C9A60D",
"~. c #D8A40D",
"^. c #CBB90F",
"/. c #F7A702",
"(. c #EEB30C",
"). c #F6B103",
"_. c #F7BA05",
"`. c #F1AD0F",
"'. c #DDD510",
"]. c #F9C704",
"[. c #FBD201",
"{. c #F9DB06",
"}. c #EDCC0E",
"|. c #EBE50C",
" X c #FBE302",
".X c #FAEC09",
"XX c #F9E915",
"oX c #F9F717",
"OX c #FDF103",
"+X c #F0C639",
"@X c #FDFA35",
"#X c #FBED24",
"$X c #CFB758",
"%X c #F9E542",
"&X c #FEF94C",
"*X c #F7E954",
"=X c #807F80",
"-X c #848383",
";X c #8C8C8C",
":X c #868888",
">X c #939394",
",X c #9C9C9C",
"<X c #989798",
"1X c #8D8F90",
"2X c #9F9FA2",
"3X c #A4A3A3",
"4X c #ACACAC",
"5X c #A8A8A8",
"6X c #B4B4B4",
"7X c #B9B6B8",
"8X c #BCBCBC",
"9X c #B7BAB7",
"0X c #B1AFB1",
"qX c #C0BDBF",
"wX c #F5E997",
"eX c #C2BFC1",
"rX c #C3C3C3",
"tX c #CCCCCC",
"yX c #C9C8C7",
"uX c #CED1CE",
"iX c #D4D4D4",
"pX c #DBDBDB",
"aX c #D6D8D8",
"sX c #CFD1D0",
"dX c #FFF8C1",
"fX c #E1DFE3",
"gX c #E3E3E3",
"hX c #EBEBEB",
"jX c #E7E6E8",
"kX c #F4F5F5",
"lX c white",
"zX c #FEFEFE",
"xX c #FDFDFD",
"cX c #FEFEFE",
"vX c #F8F7F8",
/* pixels */
"                                                                                                                                ",
"                                                                                                                                ",
"                                                                                                                                ",
"                                                                                                                                ",
"            *                           *                                             *                                         ",
"            o                         e Q                                             i E                         o -           ",
"            ( u                       =XqXu                                           } rXu                       ~ i           ",
"          e 3X~                     Q fXvX'                                         u tXlX-X                    u 3X/           ",
"          u iX>X-                 q 2XlXlXrXu                                     ; -XvXlXpXE                   ~ gX{           ",
"          ! hXpXE                 ! gXxXgXsX;Xy       q = # = $ $ = % * 0       q / rXfXkXlX-X                e ,XlX;X          ",
"          ` kXlX<X0                .hXaXtXtX8X~ o = , 4 l A D S S S D l d , $ = r 2XtXtXiXgX7Xe               ~ hXlX3Xq         ",
"          { xXlXhX(               =XsXtXyX>XR , 4 D =.q.e.e.r.e.r.r.r.e.e.w.&.d , w { 9XtXtX7Xp             e 9XlXlX7X0         ",
"          -XlXlXlXrXu           0 ;XsX0X( 6 d &.q.t.t.6.6.5.5.5.5.5.5.8.6.8.8.q.0.l $ p >XyX8XE           q -XxXxXlXyXe         ",
"          ;XlXlXlXlX5Xe         0 1X>Xe 1 D q.e.t.6.3.3.<.4.4.<.<.<.<.<.4.3.5.8.r.8.*.d 6 ] 0X!           ] hXlXxXlXiXu         ",
"          <XlXxXlXlXxX,Xe       0 ! 6 d 0.r.6.7.3.<.<.<.<.<.<.<.<.<.<.<.<.<.<.<.3.6.r.q.A , ! y       0 ' gXlXxXlXlXaXp         ",
"          <XlXlXlXlXlXkX<Xu     ; + A q.6.5.3.<.<.<.<.<.<.<.<.<.<.<.<.<.<.<.<.<.<.<.3.6.e.&.1 O     q ' pXlXlXlXxXlXaXi         ",
"          <XlXlXxXlXxXgXuX2XE * % D r.5.3.<.<.<.<.<.<.<.<.<.<.<.<.<.<.<.<.<.<.<.<.<.<.3.5.6.*.4 * e =XrXpXkXlXlXxXlXaXu         ",
"          ;XlXlXlXlXhXuXtXtX} % N 6.j.3.<.<.<.<.<.<.<.<.<.<.<.<.;.<.<.<.<.<.<.<.<.<.<.<.<.j.j.*.> W eXtXtXpXxXxXlXlXiXp         ",
"          -XlXlXlXkXiXtXtX5Xw v l.l.u.y.<.<.<.<.<.<.<.<.<.<.<.<.<.<.<.<.<.<.<.<.<.<.<.y.y.u.g.l.=.< } tXtXtXjXlXxXlXyXp         ",
"          { xXlXxXgXyXtXrX! s a.h.g.s.s.y.<.<.<.<.<.<.<.<.<.<.<.<.<.<.<.<.<.<.<.<.<.3.y.y.u.s.v.h.N 5 2XtXtXiXkXlXlX7Xy         ",
"          / kXlXkXiXtXtX} , ,.v.c.x.d.s.u.<.<.<.<.<.<.<.<.<.<.<.<.<.<.<.<.<.<.<.<.<.y.y.s.d.d.x.v.l.s ! rXtXtXgXlXlX3Xq         ",
"          E gXlXgXyXtX0Xr h %.f.c.c.x.d.s.u.u.<.<.<.<.<.<.<.<.<.<.<.<.<.<.<.<.<.<.<.y.s.d.d.c.b.n.>.b , :XtXtXiXvXlX-X          ",
"          e rXxXiXtXtX] 2 h j #.c.b.c.z.d.s.y.y.<.<.<.<.<.<.<.<.<.<.<.<.<.<.<.<.y.y.u.d.f.c.b.n.i.h j d p 8XtXtXhXkX`           ",
"          q :XhXtXtX6Xt d V C.H 1.b.b.c.z.d.u.u.y.<.<.<.<.<.<.<.<.<.<.<.<.<.<.y.y.u.d.d.v.b.b.h.B M.9.h 1 -XtXtXgXiXE           ",
"            Q tXtXtX} 1 h M.J.C.V p.n.b.c.x.d.s.y.y.<.<.<.<.<.<.<.<.<.<.<.<.y.y.u.d.f.c.b.b.v.o.m.H.G.k a I rXtXiX-Xe           ",
"            u | tXrXI s k G.R.E.V.B h.b.b.c.z.d.s.u.y.<.<.<.<.<.<.<.<.<.<.<.y.s.s.z.v.c.b.b.$.K T.R.J.9.h 6 2XtX5Xu             ",
"              i 3X3X8 b H R.E.W./.B.M h.b.b.c.x.d.u.u.y.<.<.<.<.<.<.<.<.y.y.u.d.z.c.n.b.b.,.J Y.Q.Q.R.V.v 3 ] rX(               ",
"                E / 3 o.K E.W./.).+XF.Z f.b.b.c.x.d.s.u.y.<.<.<.<.<.<.<.y.u.d.d.c.b.b.n.$.L $X(./.Q.W.A.v x I [ w               ",
"                r o x O.m.W./.).(.wXwXZ.B a.n.b.c.z.d.s.u.y.y.<.<.<.y.u.s.d.z.x.c.n.v.#.U $XdX+X_./.W.G.B #.$ -                 ",
"  e 0 p           = o.%.T /.).].].%X%XXXL.H >.c.b.c.x.d.s.u.y.<.<.y.y.u.d.d.c.b.c.p.Z Y '.#X*X}.]._.).I.v >.1             e q   ",
"  i ;X[ E i p i y , $.#.G Y.].].{. XXX@XoXU.U M i.c.c.x.d.u.y.3.<.y.u.s.f.c.c.f.$.H K.|.@X#X X{.[.].(.N.h 1.a 0 i i i E ( >X(   ",
"  i iXxXgXtX4X<X' 1 >.i.o.J P.}. XOXoX&X#X{.}.Z.H o.2.f.s.s.u.y.y.y.y.d.f.p.$.C Y !.{..X&X@XOX X{.^.N.B 2.i.f p 1X3XrXiXhXlX]   ",
"  i tXlXlXlXjXuX=X2 >.2.p.-.C Y U.'..XXX{.{.].].Y.N.H M $.<.;.;.-.;.<.;.O.C K S.).].[.{.XX.X|.^.Z.H o.i.i.1.x I rXaXxXlXlXvX'   ",
"  e 8XlXlXlXgXsX] 2 -.;.1.p.i.$.C J Y K.P.!.~.~.Y.T.B.8 3 +.+.....X.+.x @ U D.Y.~.~.!.P.I.Z.U H M 1.p.i.;.;.x u 8XiXvXxXlXkX/   ",
"  q ,XlXxXlXgXtX' 3 @.;.$.-.2.p.i.>.$.M C k k F F k h s f ....m m ..X.c a d j F F F k k b O.>.i.p.u.1.#.-.-.x t 8XiXvXlXlXgX!   ",
"    [ kXxXlXjXtX` 2 X.@.+...X.$.-.-.-.;.>.>.;.-.+.o.b g x ....m n m X.n g c o.%.$.>.>.>.>.-.-.-.-.#...O.+.+.g t 8XaXxXxXlX4XE   ",
"    i rXlXlXjXtX' 2 m X.X...c a 7 P P P d f b m n x g s x m m n n m m n s s x c m n g d z P P z 3 f m X.X...f w 8XaXxXlXkX' (   ",
"      [ kXlXhXtX[ > n m ..m 2 W 7XpXgXiX} { / t 1 > 2 s c m m n n n n n g 3 2 > 7 W | ' rXfXfXyX| 8 c m m m s t qXaXxXlX4Xu     ",
"      p 2XlXkXiX| : c m m a . } lXlXxXxX4XiXvXiX<Xy 6 < a a s s s s a a 4 6 5  .rXhXkX,XhXlXlXlXuX- > c m n a i rXgXlXaX~       ",
"        i 8XkXaX:X: c n x + . ~ kXxXxXlX4XiXlXlXkX} 7X3X=X' _ I t ^ _ | >X8X:XrXlXlXkX,XhXlXlXlX5XO . s m n 2 Q yXhXhX' E       ",
"          E 7XgX,X, g n a . . - tXlXlXlX3XiXlXlXkX| jXlXlXxXxXrX>XkXvXxXlXlX;XrXlXlXkX>XhXlXlXkX( . . > c c > ' iXaX{ i         ",
"            R ;X5Xw f n > . . . ' kXlXlX:X8XlXlXhX/ aXlXlXlXlXrX;XlXlXlXlXlX{ 0XlXlXhX] gXlXlX0X* . . + x c @ =X4X( !           ",
"              r E 5 a x + . . . o >XkXkX( | xXlXeX0 4XlXxXxXlX3X/ kXxXlXlXhXi ] xXlXrXu rXlXtXu . . . X s g % ! p i             ",
"                  * > f X . . . . * { -X* * } <Xi . ! pXlXlXgX~ = 9XxXlXkX1Xo * | ,Xi . ( >Xu . . . . . 3 s * p                 ",
"                    % 4 . . . . . . . . . . . O . . . u { } ! O . q ] -X~ o . . . O . . . . . . . . . . > > 0                   ",
"                    X @ . . . . . . . . . . . . . . . . . . . . . . . . . . . . . . . . . . . . . . . . + %                     ",
"                      . . . . . . . . . . . . . . . . . . . . . . . . . . . . . . . . . . . . . . . . . . o                     ",
"                      O . . . . . O O . . . . O . . . . . O . . . . O O . . . . O O . . . . O . . . . . .                       ",
"                      * . . . . ! 3X} o . - { 4X{ o . u :X5X| # . E 2X,X/ o . E 3X>Xi . . ! 5X{ * . . . o                       ",
"                        O . . Q gXlXkXE o 2XxXlXkX] e tXlXlXvX~ * rXlXlXvX[ e sXlXlXaXi * 8XlXxX>XO . . -                       ",
"                        O . ; eXlXxXlX{ ~ kXlXlXxX5XE 9XrXrXrX~ * 4XyXrXrX| ] vXlXlXlX3Xe fXlXlXkX~ . .                         ",
"                        o . ` kXlXlXlX-X;XlXkXsX;Xy O # = ; * O . * ; * * o 0 ] 9XgXxXsX) jXlXlXxX0Xo O                         ",
"                          o 6XlXlXlXlX>X[ 1X) 0 . . @ > 3 a 3 a a 3 3 3 2 @ X . o u ' [ ! hXlXlXlXhXi o                         ",
"                          - ;XtXiXiX7XQ . . . + 3 g N X.+.+.+.+.+.+.+.+.X...c a : . . . - <XtXaXsX6Xi                           ",
"                            o - 0 q * . . @ s n X.+.@.@.+.@.@.@.+.@.@.+.@.@.+.+...g > . . O - q - * *                           ",
"                              O O . . + : 2 f ..+.@.@.+.+.+.+.@.@.+.@.+.+.@.+.+.X.c 3 > @ . . O . o                             ",
"                                  0 O : > 2 2 a f n X.X.+.@.@.@.@.@.@.@.+...m x s 2 2 2 > X #                                   ",
"                                      X @ > 2 > 2 3 3 s g x c n c n c x f a 3 2 > 2 > : + o                                     ",
"                                        * + @ > 2 2 2 2 2 2 2 2 2 2 2 2 2 2 2 2 2 > + o                                         ",
"                                            o + @ > 2 > 2 2 2 2 2 2 2 2 2 > > : + X o                                           ",
"                                                # X + @ : > > > > > > > @ + + X o                                               ",
"                                                    0 * # X X X X X X o o *                                                     ",
"                                                                                                                                ",
"                                                                                                                                "
};
