/* XPM */
static char *result[] = {
/* columns rows colors chars-per-pixel */
"50 50 135 2 ",
"   c #9F7100",
".  c #A37500",
"X  c #A77800",
"o  c #AA7C00",
"O  c #AF8000",
"+  c #B28300",
"@  c #B78800",
"#  c #BB8C00",
"$  c #BF9000",
"%  c #C29300",
"&  c #C79800",
"*  c #CA9B00",
"=  c #C5A500",
"-  c #CFA000",
";  c #CCAB00",
":  c #D4A400",
">  c #D5AA00",
",  c #DCAC00",
"<  c #D5B400",
"1  c #DCB400",
"2  c #D6BA00",
"3  c #DBBC01",
"4  c #E3B300",
"5  c #E8B700",
"6  c #E3BC00",
"7  c #EBBB00",
"8  c #E4B60B",
"9  c #F0BF00",
"0  c #E4B813",
"q  c #E5BB1D",
"w  c #E7BD20",
"e  c #D7C100",
"r  c #DEC300",
"t  c #DFC800",
"y  c #E3C300",
"u  c #ECC300",
"i  c #E3CC00",
"p  c #ECCB00",
"a  c #E2CD0B",
"s  c #ECC80A",
"d  c #F3C300",
"f  c #F8C700",
"g  c #F4CB00",
"h  c #FECD00",
"j  c #F9CA0C",
"k  c #E4D301",
"l  c #EED600",
"z  c #E6DB00",
"x  c #EDDB01",
"c  c #F4D301",
"v  c #FED300",
"b  c #F6D800",
"n  c #FEDC00",
"m  c #F4D40B",
"M  c #E7C714",
"N  c #E8C71B",
"B  c #F7D713",
"V  c #F1D11A",
"C  c #FFD41C",
"Z  c #EEE301",
"A  c #F3E504",
"S  c #FEE400",
"D  c #F5ED00",
"F  c #FFEB00",
"G  c #FEE40B",
"H  c #F5F000",
"J  c #FEF400",
"K  c #FFFC00",
"L  c #FFFE0A",
"P  c #EDE41A",
"I  c #F7E913",
"U  c #FFEC13",
"Y  c #FFEE1C",
"T  c #FBF012",
"R  c #FFFF15",
"E  c #FFF11F",
"W  c #FFFD1A",
"Q  c #DDC82C",
"!  c #E9C12F",
"~  c #F1C721",
"^  c #ECD22D",
"/  c #FFD524",
"(  c #FAD22F",
")  c #EACF3F",
"_  c #FFEE20",
"`  c #FFE92F",
"'  c #FFFF21",
"]  c #FFE730",
"[  c #FFEC35",
"{  c #FFE53A",
"}  c #FFEF3B",
"|  c #DFC946",
" . c #EBC847",
".. c #FAD744",
"X. c #FFDB41",
"o. c #FFDF57",
"O. c #EEE14C",
"+. c #F1E646",
"@. c #FFE04E",
"#. c #FFF545",
"$. c #FFFF44",
"%. c #FFF64C",
"&. c #FFFF49",
"*. c #FFED54",
"=. c #FFE05E",
"-. c #FFEC5A",
";. c #FFF75E",
":. c #E5D869",
">. c #FFEA62",
",. c #FFF960",
"<. c #FFFB6E",
"1. c #FFE474",
"2. c #F3E378",
"3. c #FDE47C",
"4. c #FFFF70",
"5. c #FFFF7F",
"6. c #FFFD82",
"7. c #FFFE8B",
"8. c #FFEC9E",
"9. c #F6F298",
"0. c #FFFD99",
"q. c #EFE8A3",
"w. c #FFEEA7",
"e. c #FFFFA1",
"r. c #FFFBA9",
"t. c #FFF0B3",
"y. c #FFFEB5",
"u. c #FFF5BB",
"i. c #FFFCC4",
"p. c #F8F5CC",
"a. c #FFFFC8",
"s. c #FFFFD5",
"d. c #FFFCE1",
"f. c #FFFFFC",
"g. c None",
/* pixels */
"g.g.g.g.g.g.g.g.g.g.g.g.g.g.g.g.g.- : > , > , , 1 6 u c c c g 7 4 g.g.g.g.g.g.g.g.g.g.g.g.g.g.g.g.g.",
"g.g.g.g.g.g.g.g.g.g.g.g.g.g.4 4 7 7 7 7 4 4 d b n n n n n n n v h h d 7 g.g.g.g.g.g.g.g.g.g.g.g.g.g.",
"g.g.g.g.g.g.g.g.g.g.g.g.7 f h h h h f d c n n S G [ Y J F F S n h h h h f 7 g.g.g.g.g.g.g.g.g.g.g.g.",
"g.g.g.g.g.g.g.g.g.g.8 d h h h h h f g n n S E <.y.7.W J J J J F F S v h h h d > g.g.g.g.g.g.g.g.g.g.",
"g.g.g.g.g.g.g.g.g.u v v v v v v d c n n _ 6.s.i.-.G n n n b b n n n n n h h h 7 , g.g.g.g.g.g.g.g.g.",
"g.g.g.g.g.g.g.g.A J K J J K J x p n S %.i.u.>.B y < ; = = = = ; : 1 f h v h h d 7 4 g.g.g.g.g.g.g.g.",
"g.g.g.g.g.g.g.q.e.e.e.e.e.e.O.u n F J } { m 2 = = ; < r < < y < # X @ : f v h d 7 7 4 g.g.g.g.g.g.g.",
"g.g.g.g.g.g.P $.&.&.&.&.&.+.M c S J F n y = = 3 l S F J < r J J n 4 % o @ 4 f d 7 7 7 , g.g.g.g.g.g.",
"g.g.g.g.g.z K K K K K K D i p S J S b < = 2 b U ,.6.R D < < S S n v h 5 # o * 4 4 7 7 7 , g.g.g.g.g.",
"g.g.g.g.g.n S S S S S S 6 y b J S b ; = u G ;.a.a.$.L k p , u n v h h h h * X # : 4 7 7 4 g.g.g.g.g.",
"g.g.g.g.9 h h h h h h 7 , 7 F S n ; = c ` r.s.5.W J B r v 4 < n h h h h h h > o # : , 7 7 : g.g.g.g.",
"g.g.g.4 f h h h h h d , 4 p F n < = c *.0.4.' J F n V a n d : g v h h h h h h : X % : , 7 , * g.g.g.",
"g.g.g., 5 5 4 4 4 5 , 4 4 c n y = p F W L K J S n n ^ I v d : 4 h h h h h h h 9 % X * : 4 4 - g.g.g.",
"g.g.* 4 4 4 4 4 4 1 : 4 4 h u = 3 S J K K J S n n b | Y h f 5 : h h h v h h h 9 4 o + : : 4 : % g.g.",
"g.g.> 4 4 4 4 4 4 : 4 4 7 h % $ n J K K F n n n n u :.] h f 7 : d h h h h v f 7 7 - X % : : , * g.g.",
"g.g.4 4 4 4 4 4 4 - 4 : u 4 X > F K K J S n n n n 3 9.@.h f 7 4 , v h h h h f 7 9 4 + X * : : : g.g.",
"g.- 4 4 4 4 4 4 , : , : 7 # + c K K J n n n n S m Q s.8.C j 4 9 : f h h h h d 9 7 7 * . @ : : : % g.",
"g., 4 , 4 , 4 4 : : * , 1 X : F K D g f g s ~ | 2.p.f.f.u.3. .~ 4 , 4 4 7 7 4 4 5 7 4 o o * : * % g.",
"g.4 4 4 4 4 4 4 : : & : & X > 2 t t y i k x x A T #.d.t./ j 8 4 f 7 , , : : - - * & % + X % : * & g.",
"& 4 4 4 4 4 4 4 : : % - + @ c e Z J F F S S n v v v w.1.h f 4 4 9 9 9 9 7 4 4 4 : % * * X o & * * g.",
"- 4 4 4 4 4 4 , - : % % X & J H 3 Z n h h h h h h f 6.=.h 9 4 4 , 4 4 4 4 4 , * % * 7 > o o % & * # ",
": 4 4 4 4 4 4 , : * % % X - J J f < x g 7 d h h h f o...h 7 4 4 4 4 4 4 4 , * % * 5 7 4 o o # * * % ",
"* , , : : , , - : * # % . > J S h f 1 x d 4 7 7 9 f ..( 9 4 4 4 4 4 4 4 - % % * 7 7 7 5 @ X + & * & ",
"% % % % % % % % : * @ @ . > Z g h h f 1 b u 4 1 4 8 w w 4 4 4 4 4 4 4 - o % * 7 7 7 7 5 # X o & * % ",
"# % % % # % % # : & @ @ . : x u d f h f 1 l u 1 4 4 q 0 4 4 4 4 4 , % o % * 7 7 7 7 5 4 @ X + % * % ",
"# % % % % % % % : * @ + X * p 7 7 7 9 f 9 < p 7 4 4 8 8 4 4 4 4 , % o % - 5 7 7 7 7 4 > @ X o # * & ",
"# % % # % # % # : * @ + X & 6 7 7 7 7 7 7 5 > l 4 4 4 4 4 4 4 4 4 @ o * 5 7 7 9 7 4 4 : @ X + # * % ",
"# % % % % % % % : * @ + X % < 7 7 7 7 7 7 7 > c d 4 4 4 4 4 4 4 4 * o : 9 7 7 5 4 , , : o X @ # * % ",
"@ % % # % % % # & * # @ X % > 4 7 7 7 7 7 5 < n f 5 4 4 4 4 4 4 4 * o % 7 7 4 4 , , , * o o + # * $ ",
"@ % % % % # % % % & @ @ X @ : , 7 7 7 7 9 1 i n h 7 4 4 : : : 4 4 * # % 4 4 , , , , , & o o + # * $ ",
"g.% % % % % % # % & @ @ o o : : 4 7 7 7 7 > A h h 5 4 , * % % * : : # @ * 4 , , , 4 : % . o + % * g.",
"g.# % % # % % % % & % + o X * : : 7 9 7 4 2 F h f 4 4 * % % % & & & % + % , 4 , , : * + . + + & & g.",
"g.# % % $ & $ % $ & & + + X @ : : , 7 7 , k S h 7 4 : # + o + % * * & @ # : , , , * % o o @ @ * & g.",
"g.# % % $ $ $ $ $ & & + + o o & * : > 7 > D n d 4 : # % , : # o @ % * # % % , , * * % X o o % * % g.",
"g.g.@ @ # # # # @ $ & # + O . # * * * * 2 J v 7 : % * , , , , & @ o % # # % , * * * o X @ o % % g.g.",
"g.g.o O O O O O O + & & + O X X * * * % k J 7 - & : 4 , 4 , , , : % @ o # # % * * % X o o @ * % g.g.",
"g.g.o + + O O + O O $ * # + + . + * * = F p % % > 4 4 , , , 4 , 4 , * @ @ % % * & o X + @ % & % g.g.",
"g.g.g.O O + + O + + + * $ + + o . # & = 2 % * * * * - : : : : : : * * % # # @ & + . o + @ & % g.g.g.",
"g.g.g.o + O + + O + O $ & # + + X X @ # % * * * * * * * * * * * * * & * * % o @ . o + + # * % g.g.g.",
"g.g.g.g.O O O O + O + + & % + + + . X $ * * * * * * * * * * * * * * * * & * #   o + + @ & & g.g.g.g.",
"g.g.g.g.g.O O + O O + O # = # + + o o X % & * * * * * * * * * * * * * * & + . o + + + % & g.g.g.g.g.",
"g.g.g.g.g.O + O O + + O O $ & @ + @ o o X o % * * * * * * * * * * * & % o . o + + + # * % g.g.g.g.g.",
"g.g.g.g.g.g.O O + O + + + + % & @ o + + o . X @ % & * * * * * & & # o . X o + + + # % % g.g.g.g.g.g.",
"g.g.g.g.g.g.g.O O + + O O O + & % @ + + o @ o   . o o @ @ @ @ o X . X o + + + + @ % % g.g.g.g.g.g.g.",
"g.g.g.g.g.g.g.g.O O + O + + O @ % & @ + + + + o o X X . X . . X o o + + + + + @ & & g.g.g.g.g.g.g.g.",
"g.g.g.g.g.g.g.g.g.O O O O O O O + % * # @ + + + + + + + o + + + + + + + + + # * % g.g.g.g.g.g.g.g.g.",
"g.g.g.g.g.g.g.g.g.g.o o X o o o X o @ & & # + + + o + + + + + + + + + + # & & # g.g.g.g.g.g.g.g.g.g.",
"g.g.g.g.g.g.g.g.g.g.g.g.          .   o # & & % # @ + + + + + + + @ % & & % g.g.g.g.g.g.g.g.g.g.g.g.",
"g.g.g.g.g.g.g.g.g.g.g.g.g.g..     .     . o # % & & & & % % % & & & & % g.g.g.g.g.g.g.g.g.g.g.g.g.g.",
"g.g.g.g.g.g.g.g.g.g.g.g.g.g.g.g.g.  .         X O @ # % & % % % % g.g.g.g.g.g.g.g.g.g.g.g.g.g.g.g.g."
};
