/* XPM */
static char *_f8df42572d94d8bfb3823d9c09ca030Vv85DMpGnGuxEt35[] = {
/* columns rows colors chars-per-pixel */
"56 56 251 2 ",
"   c None",
".  c #A07200",
"X  c #A37500",
"o  c #A57700",
"O  c #A67800",
"+  c #A77800",
"@  c #AA7C00",
"#  c #AB7C00",
"$  c #AB7D00",
"%  c #AC7D00",
"&  c #AC7E00",
"*  c #AD7E00",
"=  c #AD7F00",
"-  c #AE7F00",
";  c #AE8000",
":  c #AF8000",
">  c #AF8100",
",  c #B08200",
"<  c #B18200",
"1  c #B18300",
"2  c #B28300",
"3  c #B28400",
"4  c #B38400",
"5  c #B38500",
"6  c #B48500",
"7  c #B48600",
"8  c #B58600",
"9  c #B68700",
"0  c #B78800",
"q  c #B78900",
"w  c #B88900",
"e  c #B88A00",
"r  c #B98A00",
"t  c #BA8B00",
"y  c #BB8B00",
"u  c #BA8C00",
"i  c #BB8C00",
"p  c #BB8D00",
"a  c #BC8D00",
"s  c #BC8E00",
"d  c #BD8E00",
"f  c #BE8F00",
"g  c #BF8F00",
"h  c #BE9000",
"j  c #BF9000",
"k  c #BF9C00",
"l  c #C09000",
"z  c #C09100",
"x  c #C19200",
"c  c #C29200",
"v  c #C29300",
"b  c #C39300",
"n  c #C39400",
"m  c #C29500",
"M  c #C49500",
"N  c #C59500",
"B  c #C59600",
"V  c #C69700",
"C  c #C79700",
"Z  c #C29B00",
"A  c #C49800",
"S  c #C79800",
"D  c #C79D00",
"F  c #C69F00",
"G  c #C89800",
"H  c #C89900",
"J  c #C99900",
"K  c #C99A00",
"L  c #CA9A00",
"P  c #CA9B00",
"I  c #CB9B00",
"U  c #CB9C00",
"Y  c #CD9D00",
"T  c #CD9E00",
"R  c #CE9E00",
"E  c #CE9F00",
"W  c #CF9F00",
"Q  c #C7A400",
"!  c #C6A500",
"~  c #CAA200",
"^  c #CCAD00",
"/  c #CDAD00",
"(  c #D0A000",
")  c #D0A100",
"_  c #D1A300",
"`  c #D2A200",
"'  c #D2A300",
"]  c #D3A400",
"[  c #D3A500",
"{  c #D2A700",
"}  c #D5A500",
"|  c #D5A600",
" . c #D5A700",
".. c #D6A600",
"X. c #D6A700",
"o. c #D7A700",
"O. c #D2A900",
"+. c #D7A800",
"@. c #D6AA00",
"#. c #D5AF00",
"$. c #D6AE00",
"%. c #D7AE00",
"&. c #D8A800",
"*. c #D9A900",
"=. c #DAAA00",
"-. c #DBAB00",
";. c #DBAD00",
":. c #DCAC00",
">. c #DCAD00",
",. c #DDAD00",
"<. c #DCAF00",
"1. c #DEAE00",
"2. c #DEAF00",
"3. c #DFAF00",
"4. c #D5B200",
"5. c #DFB000",
"6. c #DFB100",
"7. c #DFB300",
"8. c #DEB500",
"9. c #DCB700",
"0. c #DCB800",
"q. c #DFB800",
"w. c #DABF00",
"e. c #DDBC00",
"r. c #E0B000",
"t. c #E0B100",
"y. c #E1B100",
"u. c #E2B200",
"i. c #E3B300",
"p. c #E3B400",
"a. c #E0B700",
"s. c #E4B400",
"d. c #E5B500",
"f. c #E6B600",
"g. c #E6B700",
"h. c #E7B700",
"j. c #E1B800",
"k. c #E3BA00",
"l. c #E4B800",
"z. c #E4BB00",
"x. c #E8B800",
"c. c #E9B900",
"v. c #EABA00",
"b. c #EBBB00",
"n. c #ECBB00",
"m. c #EABD00",
"M. c #E8BF00",
"N. c #ECBC00",
"B. c #EDBD00",
"V. c #EEBE00",
"C. c #EFBE00",
"Z. c #EFBF00",
"A. c #E6B80C",
"S. c #ECBD0A",
"D. c #E7BB17",
"F. c #DBC000",
"G. c #DFC100",
"H. c #E1C000",
"J. c #E4C100",
"K. c #E6C000",
"L. c #E7C500",
"P. c #E7C406",
"I. c #EAC200",
"U. c #E7C900",
"Y. c #E4CA00",
"T. c #EAC800",
"R. c #E8CE00",
"E. c #ECCD00",
"W. c #EECC00",
"Q. c #E0C108",
"!. c #E3C00B",
"~. c #E5C708",
"^. c #F0C000",
"/. c #F1C100",
"(. c #F3C300",
"). c #F4C300",
"_. c #F6C600",
"`. c #F7C700",
"'. c #F8C700",
"]. c #F5C900",
"[. c #F1CE00",
"{. c #FACA00",
"}. c #FBCA00",
"|. c #FDCC00",
" X c #FECD00",
".X c #FFCE00",
"XX c #FFCF00",
"oX c #EDD500",
"OX c #F2D100",
"+X c #F0D300",
"@X c #F3D300",
"#X c #F6D100",
"$X c #F7D100",
"%X c #F1D700",
"&X c #F6D600",
"*X c #FED100",
"=X c #FFD100",
"-X c #FFD200",
";X c #FDD500",
":X c #FED700",
">X c #F0DC00",
",X c #F6DC00",
"<X c #FBD800",
"1X c #FFD800",
"2X c #FFDB00",
"3X c #F8DC00",
"4X c #F0DC16",
"5X c #F7DA19",
"6X c #FFE100",
"7X c #FFE001",
"8X c #FFE003",
"9X c #FFE600",
"0X c #FFE900",
"qX c #FFEB00",
"wX c #FFED00",
"eX c #FFEE00",
"rX c #FEE805",
"tX c #FCF006",
"yX c #FFF506",
"uX c #FBF900",
"iX c #FFF900",
"pX c yellow",
"aX c #F2E111",
"sX c #FCE213",
"dX c #FFEF12",
"fX c #FFED1C",
"gX c #FFFA16",
"hX c #F1D527",
"jX c #FBDF23",
"kX c #F0D72D",
"lX c #ECC737",
"zX c #F1D530",
"xX c #F1DE35",
"cX c #F1E323",
"vX c #FFFF2E",
"bX c #F1EA32",
"nX c #FFE63E",
"mX c #F1E640",
"MX c #FCED4C",
"NX c #FFEF4E",
"BX c #FFF741",
"VX c #FFF247",
"CX c #EED787",
"ZX c #F6E282",
"AX c #F6F287",
"SX c #FFFF9A",
"DX c #FFFEA3",
"FX c #FFF4AD",
"GX c #FFFAAD",
"HX c #FFF5BD",
"JX c #FFFEFB",
/* pixels */
"                                                                                                                ",
"                                                                                                                ",
"                                                                                                                ",
"                                                                                                                ",
"                                                                                                                ",
"                                                                                                                ",
"                                                   .=. . . .q.                                                  ",
"                                              =.s.s.s.s.s.z.<X:X/.                                              ",
"                                            b..X.X.X.X.X].2XfX0X-XZ.                                            ",
"                                            '..X.X.X.X.X$XVXBXeX7X{.                                            ",
"                                            2X2X2X2X2X$XsXGX5X[.:X.X=.                                          ",
"                                          bXvXvXvXvXvXaXNXhX! k D .Xu.                                          ",
"                                          AXSXSXSXSXSXkXrX^ H.G.~ s.b.                                          ",
"                                          pXpXpXpXpXuX%XU.~.cXF.<Xm b.1.                                        ",
"                                        %X0XeX0X0XeXoX,Xe.MXmX$.-X` :.u.                                        ",
"                                        _..X.X.X.X.Xs.3XQ.DX4X@..XB.L u.                                        ",
"                                        /._._.'._.).5.E.xXgXT.1.{..Xc ..                                        ",
"                                        u.i.s.s.s.u.1.J.tXeX~.l.C..XD W                                         ",
"                                        u.u.u.u.u.1.u.a.iX2XzXb.x..XL R                                         ",
"                                        u.u.u.u.u.1.5.$.yXnXHXlXA.}. .M L                                       ",
"                                       .i.u.u.u.u.:.1.4.dXFXJXCXD.{.:.M L                                       ",
"                                       .u.u.u.u.u.@.=.w.&X!.ZXS.=.x.s.c D                                       ",
"                                      =.u.u.u.u.u. .R Q R.>XcX).x.=.L 8 N                                       ",
"                                      =.u.u.u.u.u.` M ^ 0X:X.XC.Z.s.L q M                                       ",
"                                      1.u.u.u.u.u.` a U.I..X.Xb.i.1.R M c                                       ",
"                                      ;.1.1.1.1.1.W 0 +X8.Z.{.b.i.W =.C c                                       ",
"                                      M D L L L L M 8 [.l.s.s.u.u.a x.C a                                       ",
"                                      j j c j c c c 2 J.s.I.u.u.=.c B.D c                                       ",
"                                      j c j m m c c 2 l.I.O.i.u.P ` b.m a                                       ",
"                                      j c j c j c c > u.B.` u.u.M u.u.c a                                       ",
"                                      j m c j c c j 2 :.B.{ s.i.L u.5.j a                                       ",
"                                      j j c m c m j 2  .B.{ B.u.R  .1.a j                                       ",
"                                      a c c m c j j 3 R B.$.x.W I L =.t j                                       ",
"                                      a c c j c m j 8 D z.0.u.N C M  .8 a                                       ",
"                                      s j j m c c c 8 c 1.L. .8 M N ` 8 a                                       ",
"                                      s m c c j j c 8 t R $XW a y a L 2 a                                       ",
"                                        3 q q 3 3 t s 3 m +XR ` 8 a a 8 a                                       ",
"                                        > > > > > 2 a > Q 8. .:.L 8 t 2                                         ",
"                                        > 3 > 3 > > j @ Z D  .=.` 2 3 8                                         ",
"                                        > > > 3 2 > j > > M L R P q - t                                         ",
"                                        > 2 > > 2 > q 8 3 P P L L c - t                                         ",
"                                        > > 3 > > > 2 t > L P L P 8 2 s                                         ",
"                                          2 > > > 2 > s @ s L L L @ 8 s                                         ",
"                                          > > 2 > > > t 2 O c L 8 - s                                           ",
"                                          > 3 > 3 3 > q 8 - X X X 3 a                                           ",
"                                            > > > > > 3 a 2 - - 2 3 j                                           ",
"                                            @ @ @ @ @ - a 8 2 2 2 s                                             ",
"                                            . . X . . . - c 2 2 8 c                                             ",
"                                              . . . . . . 3 D M M                                               ",
"                                                . . . . . X q c                                                 ",
"                                                                                                                ",
"                                                                                                                ",
"                                                                                                                ",
"                                                                                                                ",
"                                                                                                                ",
"                                                                                                                "
};
