/* XPM */
static char *_268665bc82843549c8c439cf8b90252iueqaBZXVmXGCiFV[] = {
/* columns rows colors chars-per-pixel */
"50 50 115 2 ",
"   c None",
".  c #A17300",
"X  c #A67800",
"o  c #AB7D00",
"O  c #AF8000",
"+  c #B28300",
"@  c #B78800",
"#  c #BB8C00",
"$  c #BE9100",
"%  c #C39300",
"&  c #C79800",
"*  c #CB9B00",
"=  c #C7A600",
"-  c #CFA100",
";  c #CCAB02",
":  c #D3A400",
">  c #D5A900",
",  c #DCAC00",
"<  c #D3B300",
"1  c #DBB200",
"2  c #D6BC00",
"3  c #DCBD00",
"4  c #E2B300",
"5  c #E8B700",
"6  c #E5BB01",
"7  c #EBBB00",
"8  c #E1B40D",
"9  c #E6B80D",
"0  c #E6BB1D",
"q  c #EBBF1C",
"w  c #E6BE26",
"e  c #E3BE39",
"r  c #E4C300",
"t  c #ECC500",
"y  c #E4C900",
"u  c #EBCD00",
"i  c #E2C30E",
"p  c #F3C300",
"a  c #F8C700",
"s  c #F3CC00",
"d  c #FECD00",
"f  c #E6D200",
"g  c #EDD700",
"h  c #E7D900",
"j  c #EBD10B",
"k  c #F4D401",
"l  c #FED400",
"z  c #F3DC02",
"x  c #FEDB01",
"c  c #F1D50B",
"v  c #EEC115",
"b  c #E8CA1D",
"n  c #E8D516",
"m  c #FFD213",
"M  c #FFE401",
"N  c #F4EB02",
"B  c #FDEB00",
"V  c #FFE70F",
"C  c #FBE80D",
"Z  c #FFF400",
"A  c #FFFC00",
"S  c #F1E314",
"D  c #FFEE1C",
"F  c #FFF612",
"G  c #E3C826",
"H  c #E8C82A",
"J  c #E7C030",
"K  c #E8C234",
"L  c #E9C53F",
"P  c #EDD436",
"I  c #F2D831",
"U  c #FFFF25",
"Y  c #FFFA28",
"T  c #FEE939",
"R  c #FFF03B",
"E  c #EBCB50",
"W  c #FFF54D",
"Q  c #FFFE4C",
"!  c #FEE752",
"~  c #FFF854",
"^  c #F3D664",
"/  c #ECD670",
"(  c #F0D676",
")  c #F3D975",
"_  c #F6DD7B",
"`  c #ECE361",
"'  c #FFEB65",
"]  c #FFF766",
"[  c #FFFF64",
"{  c #FEF269",
"}  c #FFE87F",
"|  c #FFF17E",
" . c #FFEF84",
".. c #F8F581",
"X. c #FFFF88",
"o. c #FFF98E",
"O. c #F5E194",
"+. c #F6E194",
"@. c #FFED9F",
"#. c #FAF897",
"$. c #FFFF94",
"%. c #FFFF98",
"&. c #FFF3A4",
"*. c #FFF4AF",
"=. c #FFFBAC",
"-. c #FEEFB3",
";. c #FFF0B0",
":. c #FFF7D5",
">. c #FFFBDE",
",. c #FFFBE3",
"<. c #FEF9E7",
"1. c #FFFCEE",
"2. c #FFFDF4",
"3. c #FFFEF9",
"4. c white",
/* pixels */
"                                                                                                    ",
"                                                                                                    ",
"                                                                                                    ",
"                                                                                                    ",
"                                                                                                    ",
"                                                                                                    ",
"                                      5 p s s t 6 , , , 4 4 4                                       ",
"                                    d d l M M M x l s d d d d l 7                                   ",
"                                4 d d x M Z Z ~ ] V x s d l d d d 7                                 ",
"                              , p l l x k k c z { =.R x s l l x x x s                               ",
"                              5 a d 7 $ ; ; ; ; < I | D k S Q Q Q Q Q `                             ",
"                            4 7 d p O * z u j c < ; k B M b #.%.%.%.%...                            ",
"                          , 5 5 : + 5 l M 3 n [ W g = u B k h A A A A A B                           ",
"                          4 5 : + 5 d d x 4 G Y $.o.k < x B 6 k l l x l x                           ",
"                          5 , # > d d d s 6 P T F X.{ i r B 5 7 l d d l d 7                         ",
"                        * 4 : # a d d l 7 5 ! ' x Z U C < l t 1 5 5 5 5 5 5                         ",
"                        : : % - a d d d , 7  .&.x x A A y > p 1 , 4 4 4 4 4                         ",
"                        : : o 4 p d d d * p ;.,.M x M A k @ p 1 , 4 4 4 , 4 >                       ",
"                      % : % # 5 p d d 7 q _ 2.4. .x x Z Z % > , , , 4 4 4 4 ,                       ",
"                      & : o & 4 , , e +.<.4.4.4.4.>./ H N r # : : , 4 4 4 4 ,                       ",
"                      & * o + * , 5 7 d 9 ) 3.4.*.F Z N y > O * : > , 4 4 4 4                       ",
"                      & % o > & , 4 5 5 4 q :.1.m d l x f B @ % : , 4 4 4 4 4 :                     ",
"                      * # # 4 , % > 4 4 4 5 -.@.d a p u s A $ $ : > 4 4 4 4 4 :                     ",
"                      * + # 5 7 * # , 4 4 4 O.^ 5 4 u 6 l N $ # : * * * * * * %                     ",
"                      * + # 4 7 4 % % , 4 4 ) L 4 t 6 d a g $ @ - & % % % % % #                     ",
"                      * + # 4 7 7 4 @ & 4 4 E e 4 3 7 p 5 u @ @ - % % % % # % #                     ",
"                      * o + , 4 7 7 * & 4 4 K w p > 7 7 7 r @ @ - % % # % # % #                     ",
"                      * + + > , 5 7 & * 4 4 0 0 d < 7 7 7 1 + @ * % % % % % % @                     ",
"                      & o o * , , 5 # : , > 8 9 d r 7 7 5 , o + * % # % % $ $ $                     ",
"                      & % o & , , , @ * * * > 4 d y 7 7 4 > o # % $ % % % % %                       ",
"                      % @ X % , , * % & & + % 4 a g , 7 , * o + % % % $ $ % $                       ",
"                      % % o o : , % % % + % % - 5 M - 4 : + + # % # % % % $ $                       ",
"                        % + o * * % # + * , , * : x 2 * & o O % # + @ @ @ + +                       ",
"                        % + o % % # + * , , , , * r g & # o + % O + O + + +                         ",
"                        % + o + # # % > , > > : - & 2 & o O @ $ O + + O + O                         ",
"                          % + o + % * * * * * * * * % + o + % # O O + O O O                         ",
"                          & @ o o % * * * * * * * * & o + + % + + O + O O                           ",
"                          % % + o o % * * * * * * % o o + # # O O + O O O                           ",
"                            % + + o X # * * * * # X o + # % + + O + O O                             ",
"                              % + + o X o + + o X o + + % @ + O + O + O                             ",
"                              % # + + + o o o o + + + # # + + O + O O                               ",
"                                % % + + + + + + + @ % $ + O O + O + O                               ",
"                                  % % # + + + @ # * @ o o o o + + O                                 ",
"                                      % * * * % # o . . . . . . .                                   ",
"                                                                                                    ",
"                                                                                                    ",
"                                                                                                    ",
"                                                                                                    ",
"                                                                                                    ",
"                                                                                                    "
};
