/* XPM */
static char *_83bd885decc47db9b095deb193dc6fbFVERK5iOHtbdDyjE[] = {
/* columns rows colors chars-per-pixel */
"62 64 115 2 ",
"   c None",
".  c #00020D",
"X  c #000612",
"o  c #010915",
"O  c #020D1B",
"+  c #02101F",
"@  c #031223",
"#  c #05162A",
"$  c #06182E",
"%  c #071A31",
"&  c #081C36",
"*  c #091E3A",
"=  c #0B213D",
"-  c #0C2443",
";  c #0D2749",
":  c #0E294C",
">  c #112B4D",
",  c #0F2C52",
"<  c #112E53",
"1  c #102F58",
"2  c #153156",
"3  c #14335B",
"4  c #18375E",
"5  c #19385F",
"6  c #163760",
"7  c #163B64",
"8  c #1A3B64",
"9  c #1C3E68",
"0  c #1D426C",
"q  c #1E4570",
"w  c #1B4A75",
"e  c #1C4E79",
"r  c #1D527D",
"t  c #23436D",
"y  c #214672",
"u  c #224975",
"i  c #2B4A74",
"p  c #244D7A",
"a  c #2D4E7A",
"s  c #314E77",
"d  c #314E78",
"f  c #24527E",
"g  c #29517D",
"h  c #34527B",
"j  c #39547D",
"k  c #265583",
"l  c #2B5582",
"z  c #245985",
"x  c #2A5B87",
"c  c #275F8B",
"v  c #2A5C8B",
"b  c #365680",
"n  c #395680",
"m  c #335884",
"M  c #395983",
"N  c #355E8A",
"B  c #3C5F89",
"V  c #34628D",
"C  c #3C628C",
"Z  c #2E6492",
"A  c #2D6896",
"S  c #336690",
"D  c #3C6792",
"F  c #376E97",
"G  c #316C9B",
"H  c #396F99",
"J  c #3B719A",
"K  c #3373A2",
"L  c #3979A6",
"P  c #357AA9",
"I  c #387EAE",
"U  c #446B94",
"Y  c #4A6F98",
"T  c #44719B",
"R  c #497099",
"E  c #4176A1",
"W  c #4A77A0",
"Q  c #427AA3",
"!  c #4A7DA6",
"~  c #3A81AF",
"^  c #3A84B2",
"/  c #3D8BB9",
"(  c #4583AD",
")  c #4981AB",
"_  c #4687B1",
"`  c #4F8EB6",
"'  c #418FB9",
"]  c #5087B1",
"[  c #5395BC",
"{  c #599ABF",
"}  c #3F95C3",
"|  c #439BC6",
" . c #4D9AC3",
".. c #519AC5",
"X. c #45A1CC",
"o. c #5DA0C4",
"O. c #56A5CD",
"+. c #46A7D1",
"@. c #47AAD3",
"#. c #4CACD5",
"$. c #4CAFD8",
"%. c #54ADD5",
"&. c #5DA9D0",
"*. c #4EB5DD",
"=. c #54B2DA",
"-. c #61A5CA",
";. c #63AACD",
":. c #64B3D7",
">. c #6BBCDD",
",. c #4EBEE4",
"<. c #56BCE2",
"1. c #59BBE0",
"2. c #67BEE0",
"3. c #6ABFE1",
"4. c #4EC0E6",
/* pixels */
"                                                                                                                            ",
"                                                                                                                            ",
"                                                                                                                            ",
"                                                                                                                            ",
"                                                                                                                            ",
"                                                                                                                            ",
"                                                                                                                            ",
"                                                                                                                            ",
"                                                                                                                            ",
"                                                                                                                            ",
"                                                                                                                            ",
"                                                                                                                            ",
"                                                            0                                                               ",
"                                                        e r r 7 3 3                                                         ",
"                                                        r c z r 7 1 1 1 3 1                                                 ",
"                                          i i t 0 0 u z z c r r 0 3 , 1 1 1 3 3                                             ",
"                                        t s i 9 5 > < t x f e q 7 1 , 1 1 , 1 1 3                                           ",
"                                      t d y 9 8 2 ; = > 2 0 9 0 3 , - ; , 1 , , 1 1                                         ",
"                                    3 9 9 8 4 > ; * & = > 0 5 ; * & & & ; , : , , , 1                                       ",
"                                    7 t y 9 2 ; * * % @ # = - & $ $ @ $ # ; - : ; , , 3                                     ",
"                                  3 8 3 > > > > > = & $ % % @ + @ @ @ $ @ & - , : - , 1                                     ",
"                                  0 k p i 0 0 y u y 8 & + @ @ + o O O @ @ & & - : - , , 1                                   ",
"                                f v f p v v f 9 5 < > = $ O O @ # O o O @ @ * % ; * : , 1 1                                 ",
"                              u K K x f 5 < 2 2 > - * @ + O + O @ @ o o + + * # = & - ; , 1 3                               ",
"                            l Z v y 3 < > = = * $ @ O X . . X o O @ @ o o O # % $ % * - : , 1                               ",
"                            D g t 0 2 % @ @ @ + X . . . . . . . X o O O o o O & # @ & & ; 3 3                               ",
"                          h s t 0 2 $ @ # @ o X X X . X . . . . . . o o o o O * $ @ $ & - 1 3                               ",
"                        0 j t 8 9 = @ # # o X X X X . . . . . . . . . o O X O % & @ @ % = 1 7 9 7                           ",
"                        9 i 8 5 > * * $ o X o X X . . . . . . . . . . X o o o # & O @ & * 6 0 t q                           ",
"                          i t 9 > > = + o o o X . . . . . . . . . . . . X o X @ $ @ @ % * y u u g w                         ",
"                        8 h p 0 4 ; @ + o o . . . . . . . . . . . . . . . o X @ @ O @ $ ; u k l l w                         ",
"                        0 m l t < $ @ o o X . . . . . . . . . . . . . . . o o @ @ + @ % > y k v m k F                       ",
"                        V M l 8 = # + O o X . . . . . . . . . . . . . . . X o @ + @ @ $ 3 y k Z V _ ..                      ",
"                        W M g > % $ + + O o . . . . . . . . . . . . . . . . o + @ + @ * 8 u k G _ $.{                       ",
"                        Y C t < = % # @ O . . . . . . . . . . . . . . . . X o O @ @ @ > 4 8 A } =...                        ",
"                      f B j i 2 = = = @ O o o . . . . . . . . . . . . . X X o O @ @ & > < f @.4.#.                          ",
"                        g j h 5 > - = + + o . . o . . . . . . . . . . X X o X @ @ $ * & 9 | ,.@.K                           ",
"                        u j b 5 2 = = + o o . O o . . . . . . . . . . . . X O @ # % $ > A X.} G                             ",
"                          h j 5 8 - = + O o o o o o . . . . . . . . . . . O + # $ # - k P ^ L                               ",
"                          i j t 8 > - @ + + + o o O O . o . . . . . . o O @ $ @ @ = 9 z Z Z 0                               ",
"                          0 j i 8 4 > & @ + + + o O o O X o o o X X O O @ @ @ @ = 8 0 0 8 8                                 ",
"                            u h t 8 4 = & $ @ + # O o O @ o O O O + O + @ @ & 3 f f 0 3 4 3                                 ",
"                              a s t 0 4 > = = + # & $ @ # % @ + @ + @ $ = 2 u f 0 0 3 4 4 7                                 ",
"                                i h i u 0 0 > & @ & - - * - < < 2 5 8 0 0 5 2 2 < > 3 4 7                                   ",
"                                  C B v f x 9 2 & $ & - - - > 5 8 9 8 2 < > > ; > 5 7                                       ",
"                                  D E I ~ K v u 5 ; - = - - * - > 3 5 2 2 > : 3 3                                           ",
"                                  S ] ..@.^ K p k 6 8 8 2 - - ; - = ; 2 8 0 0                                               ",
"                                    ! ..$.@./ ^ l u 0 9 5 5 5 3 4 4 8 y y u 0 w                                             ",
"                                      ) ..=.%.*.~ g p u y 9 9 0 u y y 0 q q 0                                               ",
"                                      J ! [ &.4.4.' N a a i y i k x l u q 0                                                 ",
"                                          Q ` &.1.<. .U M M h h j V k r                                                     ",
"                                            J ( -.2.>.O.! R R T C x r                                                       ",
"                                                  { ;.>.:.) J H                                                             ",
"                                                                                                                            ",
"                                                                                                                            ",
"                                                                                                                            ",
"                                                                                                                            ",
"                                                                                                                            ",
"                                                                                                                            ",
"                                                                                                                            ",
"                                                                                                                            ",
"                                                                                                                            ",
"                                                                                                                            ",
"                                                                                                                            "
};
