/* XPM */
static char *_c5fd23c667a46efcd4d3fe1043099a2xU1WBtqR73seugQb[] = {
/* columns rows colors chars-per-pixel */
"64 64 134 2 ",
"   c None",
".  c #3F5C62",
"X  c #405D64",
"o  c #426067",
"O  c #45646B",
"+  c #48676F",
"@  c #48686F",
"#  c #4B6C75",
"$  c #4D6F78",
"%  c #4F717A",
"&  c #51747E",
"*  c #537681",
"=  c #557A84",
"-  c #587A84",
";  c #577D88",
":  c #587F8A",
">  c #5B828E",
",  c #5D8692",
"<  c #5F8894",
"1  c #64838E",
"2  c #668691",
"3  c #618A96",
"4  c #698A96",
"5  c #638D9A",
"6  c #6A8E9A",
"7  c #65909E",
"8  c #6E919E",
"9  c #6793A1",
"0  c #6A95A4",
"q  c #6B98A7",
"w  c #6D9CAB",
"e  c #7296A4",
"r  c #7298A6",
"t  c #739CAC",
"y  c #799EAE",
"u  c #71A0AF",
"i  c #71A1B1",
"p  c #7BA4B4",
"a  c #75A7B8",
"s  c #7EA7B8",
"d  c #77A9BA",
"f  c #7AACBD",
"g  c #7BAFC0",
"h  c #7DB2C4",
"j  c #81A4B5",
"k  c #81ABBD",
"l  c #8AABBD",
"z  c #83AEC1",
"x  c #8CAEC1",
"c  c #84B3C5",
"v  c #8DB2C5",
"b  c #84B6C9",
"n  c #89B7C9",
"m  c #86B8CB",
"M  c #8ABACE",
"N  c #91B4C7",
"B  c #92B7CB",
"V  c #93BACE",
"C  c #98BBCF",
"Z  c #8EBED2",
"A  c #92BFD3",
"S  c #99BDD2",
"D  c #92C1D6",
"F  c #9CC2D6",
"G  c #96C4D9",
"H  c #9AC6DB",
"J  c #9CC8DE",
"K  c #A0C3D9",
"L  c #A2C9DD",
"P  c #A9CEDE",
"I  c #9FCAE0",
"U  c #A4CDE4",
"Y  c #A9CDE4",
"T  c #A7D0E7",
"R  c #AAD0E4",
"E  c #AFD5ED",
"W  c #ADD4EC",
"Q  c #ACD3EA",
"!  c #BCD9E5",
"~  c #B0D6EE",
"^  c #B1D7EF",
"/  c #B4D7EC",
"(  c #B0D6EE",
")  c #BCDAEA",
"_  c #BADAEC",
"`  c #BADAED",
"'  c #BDDCEE",
"]  c #BDDBED",
"[  c #B2D7F0",
"{  c #B2D7F0",
"}  c #B6DAF1",
"|  c #B6DAF3",
" . c #B7DBF3",
".. c #B7DBF4",
"X. c #B5DAF2",
"o. c #B8DBF5",
"O. c #B8DCF5",
"+. c #C0DDEE",
"@. c #C0DFF5",
"#. c #C7E0EB",
"$. c #C9E0EA",
"%. c #C8E1EE",
"&. c #CDE2EC",
"*. c #C3E1F5",
"=. c #C8E2F2",
"-. c #C8E3F4",
";. c #C9E3F4",
":. c #CDE5F6",
">. c #CCE5F7",
",. c #CFE7F8",
"<. c #D0E7F7",
"1. c #D3E9F8",
"2. c #DAECF9",
"3. c #DEEEF9",
"4. c #E2EFF4",
"5. c #E0EEF7",
"6. c #E0EFFA",
"7. c #E5F0F4",
"8. c #EDF4F7",
"9. c #E2F0FA",
"0. c #E3F1FA",
"q. c #E4F1FA",
"w. c #EDF5FA",
"e. c #EBF5FC",
"r. c #F0F7FD",
"t. c #F2F9FD",
"y. c #F3F9FE",
"u. c #F4FAFE",
"i. c #F5FAFE",
"p. c #F7FBFE",
"a. c #FAFCFD",
"s. c #FAFDFF",
"d. c #FDFEFF",
"f. c #FBFDFF",
/* pixels */
"                                                    p s f c c c c c a t w 9                                                     ",
"                                            p f n M M Z D M V D Z Z Z h h f f d i 9                                             ",
"                                        k c Z Z Z Z D Z D Z D Z M Z Z m h h h h h h f i                                         ",
"                                  p c M D D D D H R ) %./ Q T Q T T J H M h h h h h h h f a 7                                   ",
"                                c M D M D H Q -.9.u.r.,.} ~ / Q Q T Q Q Q T H D m h h h h h f q                                 ",
"                            p M M D D H _ 2.u.a.8.#.T H H D D D D D D D D b M D H D h h h h h a w 7                             ",
"                          s M Z D D _ 9.a.a.4.! G M c l a p r r r t p s f d g h h h M M h h h d i u 0                           ",
"                      r s M Z A U -.w.7.&.P D k p 8 4 1 1 1 1 2 1 1 1 1 1 % % , u g h h h h h f i u i w <                       ",
"                    r k n Z G Q ^ R J D n p 8 2 1 2 8 r p k z y r c k p t - O . o & 7 d h h h h i i i i u <                     ",
"                  t k c A H ( Q G D M p 6 2 4 8 s n A H U T Q r 4 T Q Q T D f 7 & o X # 7 f h h a i w i i i 5                   ",
"                r k z M J E U A D k 8 1 4 u l D J Q =.:.{ o.U r 0 V Q T J D M b h w > o . % 7 u w i i i i i w <                 ",
"              , s k c J ( U Z M p 4 1 e k D J +.3.p.r.>.X.o.x s i 8 M D D h h h h h h u = X o > 5 7 q i i i i w >               ",
"              9 p z G Q J Z M t 1 4 s M H ' q.a.a.9.*.X.W G y Z f , f D M h h h h h h h f 7 @ o % < 5 9 w i i u 7               ",
"            6 q t M Q J Z n e 1 8 c D P 9.a.p.6.-.X.Q J A p x Z f 7 8 Z M h h h h h h h h h w $ . # < 5 7 w i i q ,             ",
"          3 q q t I J Z n e 1 e n L &.e.e.1.@.X.E J A Z m r U b h w > c b h h h h h h h h h h a % . # < 5 5 q i u 5 >           ",
"          9 q q f H A Z r 1 e n D ' ,.*. .X.X.U D Z Z Z p x I h h u 5 0 h h h h h h h h h h h h w % . % < 5 5 q i 9 3           ",
"        5 q q q c b Z y 2 6 m D Y X.{ o...W H Z Z Z Z Z e U D g h i q , g h h h h h h h h h g g a 0 @ . = < 5 5 w q 5 ,         ",
"      , q q q u h h q 1 6 c D Q X.o...{ T D Z Z Z Z Z z j { Z h h i i 5 q h h h h h h h h h g g i i < O o > 5 5 7 9 5 5 =       ",
"      6 q q q p h i # # p D T X.X.X.{ I Z Z Z Z Z Z Z e K E b h h i w w , g h h h h h h h h h a i i u = . @ , < < 5 5 < ,       ",
"      9 q 9 q g g = . = c I X.X.X.{ H Z Z Z Z Z Z Z z y X.U h h h a q g < w h h h h h h h h g i i i i 9 # . # < 5 5 5 5 <       ",
"    , 9 q 3 w g 6 o + i A / X.o.E G Z Z Z Z Z Z Z Z t S o.G h h h i q a u < h h h h h h h h g u i i i w > o o * < < 5 5 3 =     ",
"    < 5 3 < w a % X : m Y o.o.( G Z Z A Z Z Z D A c r { X.Z h h h a q w g < i h h h h h h g i u i i i i 9 % . @ > 5 5 5 < :     ",
"  ; < 5 > 3 i 3 X O i I o.X./ M g f z f s p i t t 8 M o.E m h h h i q q g w : 7 9 q w u i u w w w w i i w , . O % < 5 3 , > *   ",
"  > 5 3 * 6 q * X * w j j p r 0 q r y j k c B S S U W X.I h h h h a q q i h i 0 7 5 < < < : : : > > > > > ; @ . # ; 3 , > , =   ",
"  , 5 , * < < # X 9 k 6 v U Y T ( W W Q Y T I H D Z m m h h h h h i q q w g g g g g i i i w q q 9 6 , = % , = . O % , , > > ;   ",
"  3 5 > * < = X O a Y U j S ( G n m b c h h h h h h h h h h h h h i q q q q w q w w w q w 0 q q 5 , = * 9 w , o o $ = > > > >   ",
"; 3 5 ; * < % . % m { o.H 6 N U h d g h h h h h h h h h h h h h g w q q q q q q q q q q 0 q 9 5 , * = q i i 7 @ X # % , > > > & ",
"> 5 3 * * , # . : H o.{ Z f 0 l U c i i d g h g h h h h h h h h a q q q q q q q q q q 0 0 7 : : * : q i u i q # X @ # ; > > > = ",
"> 3 3 * * ; @ . , A X.T h h h q p U n w q w u a g g h h h h h g w q q q q q q q q q q 9 , = : * , w i i i i q = X @ # & > > > ; ",
", 5 < * % ; + . 3 V L A h h h h t r F Z u q q w q q w w i w w w q q q q q q q q q 0 5 ; * * * < i i i i i i w ; . O # % > > > ; ",
", 5 < % % = O X , V S s d h h h h a 0 S A i q q q q q q q q q q q q q q q q q q 9 , * $ * * 5 i i i i i i i q = o O # # > > > ; ",
", < < % % * O X > x V i i i d g g h d 8 x D i q q q q q q q q q q q q q q q 0 5 ; # $ * * q i i i i i i i q 7 ; X o # # ; > > ; ",
", 5 < & % % + o : l m i i i i i i d f d 8 j D i q q q q q q q q q q q q q 0 < * X * * ; q i i w i i i i q 9 7 ; . O * . * : : : ",
", 5 < % $ % O . : t f i i u i i i i i i i 5 r V a q q q q q q q q q q q q 0 : O * * ; w i i i i i i w 0 9 9 7 * . O O * * : : : ",
"> 5 3 & % $ O . ; 0 i i i u u i i i i i i i 3 v b u 0 q q q q q q q q q q q < * + = i i i i i i i w q 9 9 9 : * . . * O : : : : ",
": < < * $ % # o = 6 9 u i i u u i i i i i u 6 F h d w q q q q q q q q q q w : * * * w i i i i i w 9 9 9 q q : * . * O * : : : : ",
"= , < = % # # . % 5 6 q i i i u i i i i i 0 p J h h a q q q q q q q w w q q 5 : + * : i i i w q 9 9 9 9 9 : : * . * + * ; : : : ",
"* > > = % % # . @ 3 < 9 i i i i i i u u u 5 F G h h d q q q q q 7 7 9 i q q 9 : + * : i i q 0 9 9 9 9 9 i : : O . . * . ; : : = ",
"  > > = # % $ o o , < 7 0 i i i i i u u w e Q m h h d q q q 0 < : : : : 5 q 9 : * * : : 9 9 9 9 9 9 9 9 0 : : O . * + * : : :   ",
"  ; , ; $ # $ + . = 9 < < 0 i i u i i i 7 v T h h h u q q 0 5 > : : : : : : 5 : * * = : 9 9 9 9 9 9 9 9 : : : O . . * * : 3 :   ",
"  = > > % # # # . # 5 5 5 5 q i i i i i 6 Y I h h a q q q 5 > # * * : : : : : : : * * * 9 9 9 9 9 9 9 < > , # . * * . * : 3 ;   ",
"  * > > * # # # o o > < 5 5 5 q i i i 9 p { Z h h w q q 5 = # @ + + * * : : : : : ; * * : 0 9 9 9 9 < > > ; . . * . * * : : =   ",
"    > > ; # # # @ . # , < < 5 7 q i i 5 F E m h i q q 7 > % * 5 7 = + + + * : : : * * * = 9 9 q 9 5 , > > # . + + * * = , :     ",
"    = > > % # # @ o o = > , , , < 9 q q X.U h d q q 5 & % < q q q 9 : * * + * * : * * * = : 9 q < , , , = . . # * . * * , :     ",
"      > > = # # # @ . # > 1 > > > > : N ..G g w 7 > & > 7 9 0 7 9 9 9 9 : * * + * * * * * * 9 : , > > > # . # # # # = : :       ",
"      ; > > % # # # o o & > > > > > 1 T { Z i < > > 7 9 9 0 7 0 9 9 9 9 9 9 : * + * O * ; * : : , > , % . . # # # * : , ;       ",
"      & > > = # # # @ . o ; > > > ; j O.T w = = 3 7 9 7 9 9 0 7 9 9 9 9 9 9 9 0 ; * * + ; * * : , > = o . # # # # = , :         ",
"        ; > > % # # # @ . O ; > > : K A 6 * ; > , < 5 7 7 7 7 7 9 9 9 7 9 7 7 : : : * * * - * : > ; O . + # # # * : , :         ",
"          > > = # # # # O . + ; > > e = = > > > > > , > < > < < < < < < , , > > , > > ; & % # = > @ . O # # # # ; > :           ",
"          = > > & # # # # O . # % % = > > > > > > > > > > > > > > > > > > > > > > > > > , ; % $ O . O # # # # * > > =           ",
"            ; > : $ # # # # o X O = > > > > > , > , > > > > > > > > > > > > > , > > > , > > = o . o # # # # % ; > ;             ",
"              : , = # # # # # O . o % > , > > > > > > > > > > > > > > > > > > > > > > > > % o . O # # # # # ; > >               ",
"              & > > = # # # # # O X X # = > > > > > > > > > > > > > > > > > > > > > > = # . X O # # # # # * > > &               ",
"                & > > * # # # # # # o X . # = > > , > > > > > > > > > > > > > > > = # o X o # # # # # # * > > *                 ",
"                  * > > * # # # # # # @ o . X @ % ; > > > , > > > > < > > > ; % @ o . o + # # # # # # * > > *                   ",
"                    % > , = $ # # # # # # O o . o o O @ % & = = > = & % # O o . . o O # # # $ # # # * > ; *                     ",
"                      & : > ; % # # # # # # # # O o o . . . . o . . . X X X o @ # # # # # # # # # * > :                         ",
"                          ; > > = # # # # # # # # # # # @ + O O O o @ @ @ # # # # # # # # # # % ; > ;                           ",
"                            * > > ; & # # # # # # # # # # # # # # # # # # # # # # # # # # % = > > =                             ",
"                                ; > > ; * % # # # # # # # # # # # # # # # # # # # # # % = > > =                                 ",
"                                    ; > > > = * % # # # # # # # % # # # # # # % & * : > > ;                                     ",
"                                        = ; > > > : = = * % % % % % % % * = = > > > : =                                         ",
"                                              = ; > > > > > > > > > > > > > > > =                                               ",
"                                                    * * = = ; = ; = = = = %                                                     "
};
