/* XPM */
static char *result[] = {
/* columns rows colors chars-per-pixel */
"64 64 91 1 ",
"  c #360E1E",
". c #390E1E",
"X c #0E1226",
"o c #141327",
"O c #1B1225",
"+ c #151428",
"@ c #1A1428",
"# c #280F21",
"$ c #340F20",
"% c #390F20",
"& c #241124",
"* c #2A1123",
"= c #241529",
"- c #2A152A",
"; c #321224",
": c #3C1121",
"> c #341629",
", c #3C192D",
"< c #430F1E",
"1 c #4B0E1C",
"2 c #520D1B",
"3 c #5B0F1E",
"4 c #59101F",
"5 c #431222",
"6 c #4E1322",
"7 c #4D182A",
"8 c #511121",
"9 c #5D1525",
"0 c #5E1728",
"q c #541A2E",
"w c #411B30",
"e c #571C31",
"r c #591D31",
"t c #651525",
"y c #6B1727",
"u c #601728",
"i c #6B1728",
"p c #651A2B",
"a c #6C1A2A",
"s c #741C2D",
"d c #6E1F31",
"f c #751E30",
"g c #7B1F31",
"h c #5C2731",
"j c #632136",
"k c #6C2134",
"l c #732235",
"z c #7E2235",
"x c #663039",
"c c #822437",
"v c #892337",
"b c #842539",
"n c #8A2639",
"m c #8F2D3E",
"M c #91273C",
"N c #94293E",
"B c #992A3F",
"V c #962A40",
"C c #9A2B40",
"Z c #993643",
"A c #9D3C45",
"S c #A53C48",
"D c #AE5551",
"F c #B65656",
"G c #B75857",
"H c #B95857",
"J c #986A59",
"K c #B66354",
"L c #BE615B",
"P c #A2755D",
"I c #A27660",
"U c #A47961",
"Y c #A37E6C",
"T c #C15157",
"R c #C9565B",
"E c #C75C5D",
"W c #C85E5D",
"Q c #D45E60",
"! c #D06160",
"~ c #DF8D70",
"^ c #E69474",
"/ c #E89575",
"( c #A48B80",
") c #A69793",
"_ c #A7A3A6",
"` c #A8ABB3",
"' c #E79C81",
"] c #E9A996",
"[ c #EAB5A9",
"{ c #ECC2BD",
"} c #EDCACA",
/* pixels */
"ooooo+++++++++++++++++++++++@ooooooo++O+@+++++++++O+++++++@++ooo",
"oo&hJUPIU)````````)Y_(PPPPUJh=oooo&hJUPUP)````````)Y`(PIIIUJh-oo",
"+-xK^/^//[}}}}}}}}[/}]^^^//~Kx-oo-xK~///^[}}}}}}}}['[]^^///~Kx-o",
"+qD/HFFGFFGGFGFFGGGFFFFFFFFL^Dq+oqD^LFFFFGHFGGFFGFGGGFFGGGFH^Dqo",
"oeALFFFFFFFFFFFFFFFFFFFFFFFGHSr+oeALFFFFFFFFFFDFFFFFFFFFFFFHLZq+",
"oeZFFFFFFFFFFFGFFFFFFFFFFFFFFZq+oeZFFFFFHFFFFFFFFFFFFFFGFFFFFZeO",
"orZFFFFFFFGFFFFFFFFFFGFFFFFFGZq+oeZGFFFFFFFFFFFFFFFFFFGFFFFGGZe+",
"@qZFFFFFFFFFFFGFGFFFFFFFGFFGFZe+oeZFFFFFFFFFFFFFFFFFFFFFFFFFFZqo",
"+qZGFFFGFFFFFFFFFFFFFFFFFFFFFZrooeZGGFFFFFFFFFFFFFFFFFFFFFFFFZe+",
"+qSQGFFFFFFFFFFFFFFFFDFFFFFH!SqooeSQGFFFFFFFFFFFFFFFFFFFFFFH!Sqo",
"+qZTEWWWRWWWEEEEWWWWWWWWWWWWTZr+oeZTWWWWEEEEWWWEEEEEEEWWWWWWTZeo",
"+rcmRQQQQQQQQQQQQQQQQQQQQQQRmbrO@ecmR!QQQQQQQQQQ!!QQQQQQQQQRNcro",
"+rbcmmmmmmmmmmmmmMmNmmmmmmmmccrooebbmmMmmmmmmmmmMMmmmmmmmmMmccro",
"Orvczczzzzzzzzzzzczzzzzczzzcvbr+@rvczczczzzzzzzzzzczccgczczccnro",
"o,kbcvvccccvvvbbcvcvcccvvcccck,oowdbccvcbcvvbvbvvcccbcvcbcccckwo",
"+o,llllllllllllllllllllllllll,oooo>llllllllllllllllllllllllll,oo",
"ooO==========================+oo++@==========================@+o",
"ooooXXXXXXXXXXXXXXXooooXooXXXXXooXoXXXXXXXoooXXXXXXXXXXXXXXXXXo+",
"ooO*,,,,w,,w,w,,,,>=oooo=>,,,,,,,,,,,,,,*@oooO>,,,,,w,,w,w,,,;&o",
"+O;4zbzzzbzzzzzbzbf2&++&2fczccccczzcczcz4;@oO<izcccczbzzzzzbby:O",
"+ 0zcccccccccccccccl6&&2fcccccccccccczcczt @<iccccczcccccccccza1",
"+7gbzccczcccccccccczs>>fcccccczcccccccccbg7Opccccccccccczccccbgd",
"+rcccccccccccccccccbb,,ccczccccccczccccccvr=lbcccccccccccccccccb",
"+rbczcccccccccccccccc>,zcccccccccccccccccbr=lcccccccccczcccccccc",
"+rvcccccccccccccccccc,>cccccccccbzcccccccch=lccccccccccccccccccc",
"o5sccbccccccccccccczi*;izccccccvccbccccccs5=9gccccccczcccccccbft",
"+*6fccbcbbcbccvcbbza.&&<azbbcccbcccvvbbcs6*O$0gccccvccvccbbbbg9.",
"++&2alllllllllllllp<@ooO5plllllllllllllk1*ooo$9llllllllllllll9 o",
"+ooO==============&O+oooO===============O++O++=============@=OOo",
"rreheehq.OXoX&5rehrhrrhhrrere5&ooXO:rjjjjjjjjjjhjjq;oXXo$7heherr",
"cvnnccvcy:&O#6scccnccvcvbbbvbs8*o&:sMBNNNBBNBBBBBBvt;OO;9gnncncv",
"ccccccccvy:O6scccccccccccccccbs6O:sNMBMNNNNNNNMBMNNvt**4zccccccc",
"ccczzcccccq=kccczcccccccccccccbk=rMBNNmNNMNMNNNNNNNNn,>zccbccccz",
"cccccccccbr=lbccccccccccczccccbl=jBMNNNNNNNNMNNNMNNNBw,ccczccccc",
"ccccccccbg7=pccccccccccccccccczp=qvBNNMNNMNNNNNNMNNmc>>fcccccccc",
"ccccccczzt.O1azccccczccccccccci1O:tvmNNNNNMNNNNMVMMc8#*2fccccccc",
"zczccccz42.&12icczccvccccccccy21O 2tnNNNBNNNNNMNMVg32-*24scczccc",
"yttytttt2.OO-<3tyttytttttttyt4<*O&:2tyyyyyyyyiiiiit1 O@$1ttttttp",
"..  : : :OoXo&:;  $ ....: $ ::-XoXO:  .  .....$$...$ooXo;.  .$..",
"++@@=====-=========Oooo+O=========-===-=O@oooO&===========-==&Oo",
"oo&2zbbbcbbzVlzzbba5Ooo@<sbbbzzbbzbzbbbg6#++o$ubVzbcbbbccbcbz0;+",
"o#8zmVVZNVVVVVVVBCns5&O<sMNBNZBNVBVZVVVVg7#O pvVVVVVVVVNVVNNVnp%",
"o6gNVMVmNMNNVVVVNNNms>;sMNNNNNNNnVVVVMNMVg6@0vVNVVVmVVNNNNNNNNci",
"OjBNMmVMNNNNVVbVNNNNm,,NNMNNNNmNVmmVMNNNVVd-bVNMVbMmmVNNNNNNNNNN",
"odVMVmMMNNNNNNMNMMVMMw,VNNNNNNBmVmNNMNNNVVr-VVNNVbVVNNNNMNNNNNNN",
"o6gVVVVVNNNNVVVVVVVMi;;aMBNNNNBmVVVNNVNVVf6&qzCVVVmVNVNNVBNNNCci",
"o$tgggfggggggggggggf3#-2sgggggggfgggggggft O1iggggffggggggggggy2",
"+$2222222222222222221=#1222222222222222221$O<1222222222222222211",
"++$12221222222212221&o+&12222222222222222;O+O:2222222122221222.O",
"oXO&&&*##-*#***#&&#&oXXo&#&#&&&*****#&#&#oXooO#&##&#-###-#**##Oo",
",,,,,,,>*@XooO;,,,,,,,,,,,,,,>Oo+XO&>,,,,,,,,,,,,,>&oooo#>,,,,,,",
"cbzbcccz9$@oO:ycbbzzzbcczbzzzy<O++;4zbbzczzcccczccf8&+o&1sbczccc",
"ccccccccz0 O<izcccccccccbcccbza<O;9zzbbcccccccccccbf8&&8lccccccc",
"ccbzcccccg7=pccccccccccczbcccbcp=7gccccccczcccccccbgf;>fcccbcccc",
"cccczcczzbr=lbcccczccccccccccbbl=enccczccccczccccbbcb,,bccczcczc",
"zbccbcccbbr=lbccccccccccccbzczbl=hccccbccccccccccgbbb>>bcccccccc",
"cccccccccvh=lccccccccccccccccccl=qcccccccccczcccccccc,,ccccccccc",
"cccccccccs5O9gccccccccccccccccg9=5sbccccczccccccccbzy**yzccccccc",
"ccbccbccs2*O$0zccccccccvcccccz0 O#6scncccvvbbbvcbbza5OO<icbbccbc",
"llllllld8&ooo$9llllllllllllll9 ooo&2kllllllllllllli<OooO5pllllll",
"====&===O@ooo@&==============OOoooOO===============@@ooO@O==-===",
"ooooooXoo+ooooooooXoXooo+ooooo++oo+oooXooooXooooooooooooooooooXo",
"ooooo@ooooooooooO+ooooooooooooo+ooo+ooo+oooooooooooooooooooOoooo",
"oooooooo@ooooooooooo+oooooooooo+Oooooooooooooooooooooo@ooooooooo"
};
