/* XPM */
static char *result[] = {
/* columns rows colors chars-per-pixel */
"64 64 22 1 ",
"  c #F4A261",
". c #F4A161",
"X c #F39C5F",
"o c #F29C5F",
"O c #F39E60",
"+ c #EA7B55",
"@ c #E97553",
"# c #ED8658",
"$ c #F1965D",
"% c #EB8056",
"& c #E87152",
"* c #E76F51",
"= c #E97653",
"- c #EF8F5B",
"; c #F29B5F",
": c #EE8B5A",
"> c #E87352",
", c #F0915C",
"< c #F3A060",
"1 c #EC8257",
"2 c #EF8E5B",
"3 c #EC8357",
/* pixels */
"                                                                ",
"                                                                ",
"                                                                ",
"                               .XoooooooooooooooooooooooooO     ",
"                               X+@@@@@@@@@@@@@@@@@@@@@@@@@#     ",
"                              $%&*************************=#O   ",
"                              -****************************@o   ",
"                              -****************************@o   ",
"                              -****************************@o   ",
"                              -****************************@o   ",
"                              -****************************@o   ",
"                              -****************************@o   ",
"                              -****************************@o   ",
"                              -****************************@o   ",
"                              -****************************@o   ",
"                              -****************************@o   ",
"                              -****************************@o   ",
"                              ;:>*************************+,<   ",
"                               O#11111111111111111111111112     ",
"                                                                ",
"                                                                ",
"          $11111111111111111111111111$                          ",
"         $3**************************3$                         ",
"         1****************************1                         ",
"         1****************************1                         ",
"         1****************************1                         ",
"         1****************************1                         ",
"         1****************************1                         ",
"         1****************************1                         ",
"         1****************************1                         ",
"         1****************************1                         ",
"         1****************************1                         ",
"         1****************************1                         ",
"         1****************************1                         ",
"         2+**************************+2                         ",
"          ,@@@@@@@@@@@@@@@@@@@@@@@@@@,                          ",
"          <oooooooooooooooooooooooooo<                          ",
"                                                                ",
"                                                                ",
"                                                                ",
"                                                                ",
"                                                                ",
"                                                                ",
"                                                                ",
"                                                                ",
"                                                                ",
"                                                                ",
"                                 OoooooooooooooooooooooooooX.   ",
"                                 #@@@@@@@@@@@@@@@@@@@@@@@@@+X   ",
"                               O#=*************************&%$  ",
"                               o@****************************-  ",
"                               o@****************************-  ",
"                               o@****************************-  ",
"                               o@****************************-  ",
"                               o@****************************-  ",
"                               o@****************************-  ",
"                               o@****************************-  ",
"                               o@****************************-  ",
"                               o@****************************-  ",
"                               o@****************************-  ",
"                               o@****************************-  ",
"                               <,+*************************>:;  ",
"                                 21111111111111111111111111#O   ",
"                                                                "
};
