/* XPM */
static char *result[] = {
/* columns rows colors chars-per-pixel */
"54 54 92 1 ",
"  c #A47600",
". c #A77900",
"X c #AA7C00",
"o c #AF8000",
"O c #B38400",
"+ c #B78800",
"@ c #BB8C00",
"# c #BF9000",
"$ c #C39400",
"% c #C79800",
"& c #CA9B00",
"* c #C5A500",
"= c #CDA200",
"- c #CBAB00",
"; c #D4A400",
": c #D5AA00",
"> c #DCAC00",
", c #D6B400",
"< c #DBB400",
"1 c #DDBC00",
"2 c #E3B300",
"3 c #E8B700",
"4 c #E4BA00",
"5 c #ECBC00",
"6 c #F0BF00",
"7 c #DDC300",
"8 c #DECA00",
"9 c #E4C400",
"0 c #E9C501",
"q c #E4CC00",
"w c #ECCC00",
"e c #F3C300",
"r c #F8C700",
"t c #F2CC00",
"y c #FECD00",
"u c #E5D400",
"i c #EAD400",
"p c #ECDC00",
"a c #F4D200",
"s c #FDD400",
"d c #F3DB00",
"f c #FEDC00",
"g c #F6D70E",
"h c #FCDE1B",
"j c #EBE100",
"k c #F4E300",
"l c #FEE300",
"z c #F4EC00",
"x c #FEEB01",
"c c #FEE50A",
"v c #FFEA0C",
"b c #F6F000",
"n c #FEF300",
"m c #FFFC00",
"M c #FFFC0C",
"N c #FEE114",
"B c #FEEA1E",
"V c #FFF617",
"C c #FFFF10",
"Z c #FFF61E",
"A c #F6D924",
"S c #FFE623",
"D c #FFE924",
"F c #FFF022",
"G c #FFF32B",
"H c #FFFF28",
"J c #FCE23A",
"K c #FFEF3D",
"L c #FFFF32",
"P c #FFF43B",
"I c #FFFE39",
"U c #FFF240",
"Y c #FFFE46",
"T c #FFEF54",
"R c #FDE85B",
"E c #FFF657",
"W c #FFF85C",
"Q c #FFF66B",
"! c #FFFF6B",
"~ c #FEEE86",
"^ c #FFFB83",
"/ c #FFF58D",
"( c #FFFB8C",
") c #FFF192",
"_ c #FFFE96",
"` c #FFFE9A",
"' c #FFFCAA",
"] c #FFFEBC",
"[ c #FFFBC5",
"{ c #FFFCCD",
"} c #FFFFD1",
"| c None",
/* pixels */
"||||||||||||||||||||||0taaaaae53||||||||||||||||||||||",
"||||||||||||||||||waaffffffffsyyyee3||||||||||||||||||",
"||||||||||||||||asfflcSDxxxxllfysyyye6||||||||||||||||",
"||||||||||||||asflxDE/_YMnnnnnxlfsyssyr5||||||||||||||",
"||||||||||||0fflcP^]{/Kvllllllllflfssysr5>||||||||||||",
"|||||||||||wffcU`{{~Jgi071,<1105eysssyyy652|||||||||||",
"|||||||||10ffxG/)RA0,-***--*--*@+$>eysyye553>|||||||||",
"||||||||10alnnvNa7-*-,4wad7,dpi,$+X@;6yye5553>||||||||",
"|||||||40alnnlf9-*,9aNGZmb1,zmnls5>@X@>5655553>|||||||",
"||||||:9wlnxla,*,0dBW`_Lmj039lffysye>+X@:>33553;||||||",
"||||||20dnxfw-*1aDQ]}_IMxqa0>afsyyyyse&XX&:2356>||||||",
"|||||:20xxfw--0hT'[_YMnliqse:0fysyyyyyy>OX$;>333;|||||",
"||||;22ixfi--wSQ(!LMnllf0psr><yyyyysyyyy2XX&;:33>&||||",
"||||>23aft-*wlVHMmmxlfftqlsr3:5yyyyyyyyye;XX&;:3>;||||",
"|||>225sr,*0lnmmmnlffff0pxyy6><yysyyyyyy65;.+;;>>;;|||",
"|||>22er=O,lnmmmxlffffa8zlyy53:6yyysyyyy653@ @;:;;;|||",
"||;>>2r2o@tnmmmxffffff0umsyy5522ryyyyyye555>o.$;;;;&||",
"||;>:30@X>lmmnxflflfls9znsyy535>ryyyysy65552$ X&;;;&||",
"|&;;;3;X#ammmlsfaaatt9qmxyyy52e2>666ere55555>O @;;;&$|",
"|&;%;2@X;wpuq43990qqquzmlyyy525e2>>>>>;;;;;>;@ X%;=&$|",
"|;;$&;X+4,8pkjkkklllkllfsyyy522er66532>>>;&$@$XX@;&%$|",
"$;&$&# %dz8jblfsfsssssyyyyyr322232332222>;$$>>+ O$&&&@",
"&;&$&+ >nmk4ulyrryyyyyyyyyyr22222222222;&$$253$ X@%&&#",
"&;%@$oX<nmfr4ude5eeryyyysyy5222222222>&$$&3555$ X+$&&$",
"&:%+$XX<zxsyr50dt223566eee522222222>;%$$;35665;.XO$%&$",
";;%+$.X<parysy01pt3222222222222222;&$+$;355533&..O@&&$",
"&;$+@XX<p05eeyye1iw3222222222222>;$++$>3555552&X.X@%&$",
";;$++.X:w0555eee6<0t32222222222>;+X+%25555532>&X.O@%&%",
";;$+OXX;4555555553>9w32<2222222>&X@&25555532>>%.X++%&$",
"&:%++X.&<555555556>7s62222>22222&++>5555522>>>$..XO$&$",
"$;&+@X $:255555555<isy3222222222;@X&55532>>>>;$.XX+%%$",
"$%$@+X $;>555555531kyy62222>>>>2>$O$2522>2>>>&O.X++%&$",
"@&$@+O +;;>555555<ulsy622>;&&&;>;&X$;>>>2>>>;&X.oO+%&@",
"|%&@OO.X&;;255553<kfyr322;$$%&&&&&$+$>>>>>>>&$XXOO@&%|",
"|$&$OOX $;;:255527nsy622;$OX+$%&%%$X@&>>>>>;&@ XOO$&$|",
"|$%$+Oo o&;;:255<jxse32;$@$$+X+$%$$$$$>22>&&$X XO+$&$|",
"||$&@OOX.@&=;;>21blr52;$$;>2;$OO+$$$+$;>>;&&$ XXO@%$||",
"||$&$OOX X$&%&&&umf52&$&:>2>>;&$$X$$X$$;&&&$X XO+$&$||",
"|||&%+OOX O%&&%=bne>&&:>>>>>>>>>&$XXO$$$&&&O.XOO@$%|||",
"|||$&$OOOX @&&%7bw&$&;>>>>2>>>>>>;%+O$$@&&@ XXO+$&$|||",
"||||%%@OOX X@%%7,%%%&&=;;:;;:;;;;&&%$$$+%$X XOO$%%||||",
"||||$&$+OOX X@@%%%&&&&&&&&&&&&&&&&&&$$++O XXOXO$&$||||",
"|||||$&@OOOX  O%&&&&&&&&&&&&&&&&&&&&%&%+ .XOOX$&$|||||",
"||||||%%@OOOo  O$&&&&&&&&&&&&&&&&&&&&$+..XOOO@&$||||||",
"||||||#%%+OOoo. X@$&&&&&&&&&&&&&&&&%+X.XXO+X@$&$||||||",
"|||||||$%%+oOOoo  o+$%&&&&&&&&&&%$+X..XX++X+$%$|||||||",
"||||||||#%$@OOoOoX  Xo+@#$$$$@@+XX .X+++X++$%%||||||||",
"|||||||||#%%#OOOOOoX.   ..XXX   .XXXX+XX++%%||||||||||",
"|||||||||||$&$@OOOOOoXXXX. X.XXXX++X+XX$@&$|||||||||||",
"||||||||||||$%$#++OOOOO+OoOOOOOO+X+X++$$$$||||||||||||",
"||||||||||||||$%$$@@OOOOOOOOOOOO+X++@$$$||||||||||||||",
"||||||||||||||||$$$$$@@@++O+O++++$%%%$||||||||||||||||",
"||||||||||||||||||$$$%%$%$$$$$%$&$$$||||||||||||||||||",
"||||||||||||||||||||||$$$$$%$$$#||||||||||||||||||||||"
};
