/* XPM */
static char *d3cde84074fd4c9aec78222c7e0f83c4fg1C2I29PDUL9Glo[] = {
/* columns rows colors chars-per-pixel */
"63 64 155 2 ",
"   c None",
".  c #3F95F4",
"X  c #4296F4",
"o  c #459AF5",
"O  c #4B9DF5",
"+  c #529FF4",
"@  c #4EA3F6",
"#  c #53A4F5",
"$  c #5BA5F4",
"%  c #55AAF7",
"&  c #5BABF6",
"*  c #56AEF8",
"=  c #5AAEF8",
"-  c #5EB2F7",
";  c #5DB3F8",
":  c #5EBAF9",
">  c #61A7F3",
",  c #63ABF5",
"<  c #6BAEF4",
"1  c #70AFF2",
"2  c #64B2F7",
"3  c #6CB3F6",
"4  c #6DBBF7",
"5  c #63B4F9",
"6  c #6AB6F8",
"7  c #64BBF9",
"8  c #6BBCF9",
"9  c #73B2F4",
"0  c #7BB5F3",
"q  c #74BAF7",
"w  c #7CBAF6",
"e  c #72BDF9",
"r  c #79BDF9",
"t  c #66C1FA",
"y  c #6CC3FA",
"u  c #6DC9FB",
"i  c #76C0F7",
"p  c #7FC1F7",
"a  c #74C3FA",
"s  c #7BC6FA",
"d  c #74CBFB",
"f  c #7CCBFC",
"g  c #74D4FC",
"h  c #7CD3FC",
"j  c #7CDAFD",
"k  c #78E1FD",
"l  c #80B7F2",
"z  c #84BBF4",
"x  c #8BBDF3",
"c  c #91BFF1",
"v  c #94C0EF",
"b  c #9CC4EF",
"n  c #82C2F7",
"m  c #8DC2F5",
"M  c #83C5F9",
"N  c #8AC5F9",
"B  c #83CCFB",
"V  c #8ACBFA",
"C  c #94C3F4",
"Z  c #9AC6F3",
"A  c #9DCAF5",
"S  c #94CDF9",
"D  c #84D3FD",
"F  c #8BD4FD",
"G  c #84DBFD",
"H  c #86D8FD",
"J  c #84DAFD",
"K  c #8CD8FD",
"L  c #8CD9FE",
"P  c #8ADFFE",
"I  c #8DDBFD",
"U  c #92D0FA",
"Y  c #94D4FB",
"T  c #91D4FC",
"R  c #91D5FD",
"E  c #99D3FB",
"W  c #99D7FC",
"Q  c #9BD6FC",
"!  c #92DBFD",
"~  c #93DCFD",
"^  c #90DDFE",
"/  c #97DCFE",
"(  c #94DBFE",
")  c #98DBFD",
"_  c #9BDBFD",
"`  c #99DDFE",
"'  c #9ADDFE",
"]  c #9ADEFE",
"[  c #9BDEFE",
"{  c #9CDFFE",
"}  c #9EDFFE",
"|  c #9FDFFE",
" . c #9BDEFE",
".. c #B4D2EF",
"X. c #B9D5EF",
"o. c #A4CDF3",
"O. c #A2CAF3",
"+. c #AACEF4",
"@. c #ACD4F7",
"#. c #AED4F6",
"$. c #ADD1F5",
"%. c #A3D5F9",
"&. c #ABD4F8",
"*. c #A7D8F9",
"=. c #A5DBFC",
"-. c #ADD8F8",
";. c #B6D4F2",
":. c #B3D3F4",
">. c #B9D7F6",
",. c #BEDAF7",
"<. c #B5D6F9",
"1. c #B2D8FA",
"2. c #BCDBFA",
"3. c #84E1FE",
"4. c #8CE4FE",
"5. c #86EAFE",
"6. c #89EAFE",
"7. c #96E0FE",
"8. c #97E0FE",
"9. c #93E3FE",
"0. c #9FE0FE",
"q. c #9CE2FF",
"w. c #9FE2FE",
"e. c #9DE2FE",
"r. c #95ECFE",
"t. c #9BEBFF",
"y. c #A0E1FE",
"u. c #A2E7FF",
"i. c #A6E5FF",
"p. c #A3E3FE",
"a. c #A9E5FE",
"s. c #A8E5FF",
"d. c #A9E5FF",
"f. c #A9E6FF",
"g. c #AAE6FF",
"h. c #ACE7FF",
"j. c #AAE6FF",
"k. c #A5EAFF",
"l. c #ADE8FF",
"z. c #AEE8FF",
"x. c #AEEAFF",
"c. c #B3E6FD",
"v. c #B5EBFF",
"b. c #B5ECFF",
"n. c #B3EAFF",
"m. c #B8EDFF",
"M. c #BCEFFF",
"N. c #BAEEFF",
"B. c #ACF0FF",
"V. c #B4F0FF",
"C. c #BAF1FF",
"Z. c #C3F1FF",
"A. c #C4F3FF",
"S. c #CCF5FF",
"D. c #D0F6FF",
/* pixels */
"                                                                                                                              ",
"                                                                                                                              ",
"                                                                                                                              ",
"                                                                                                                              ",
"                                                                                                                              ",
"                                                                                                                              ",
"                                              & , $ q                                                                         ",
"                                          $ S &.>.;.#.E F _   z l 9         0 q M F V                                         ",
"                                      1 $ $ i q w N A =.E F B 2 & q r 6 3 > O , a B _ F                                       ",
"                                    # < M B U M M a y a 8 t y F B f W Y 5 @ 3 w M M %.Y B 4                                   ",
"                                  > > < q i 0.8.F f i D F F F D B d f f d B B &.2.o.p w V F 8                                 ",
"                                  < O % V i.K d t 7 a 0.b.n.l.[ [ a.a.i.i.p.a./ =.C c w 2 , i #                               ",
"                          e , , @ @ f f a.D j g d f a B e s & = B F h h ( F [ f f O X X X O M e #                             ",
"                        2 % 5 8 % t F N.! h J h K [ 8 6 M 9     a F F 7 : u D F 7 2 5 5 % o 8 D 9 $                           ",
"                      Z 5 # q 5 2 0.C.8.h h 4.u. .8 O 5 0           e n e a u G D ! i.n.F = @ f 4 <                           ",
"                    9 z 5 i 7 7 e Z.N.l. .0.7.s M # # 6 m               , 9 % = @ h q.8._ f 8 ; a a &                         ",
"                  0 9 # = 5 7 D a [ h : ; h B $ ,   n x                   O # 9 s ; ( l.N.v.[ i 8 7 a = & ,                   ",
"                , & o r a 8 7 F s [ f 8 = y 4 < +                             $ 2 f y ( n.p.a.p.R 8 ; 2 8 2 ,                 ",
"              8 @ O 9 S F 7 y p.F a.y s + & O                                     s e s F U  .n.n.D 5 2 6 f B s               ",
"            3 & 9 Z Z V f y ~ ) K / : e #                                             z 6 8 d l.a.[ 5 # V D =.f   $           ",
"            # q A +.m f D [ / f  .a f 6                                                 E Y B / N.a.i % i D n.u a             ",
"            , S +.C 2 / l.F d K / f q                                                     f D ( b.a.D # ; d n.f -             ",
"            0 m O.< a i.( d h ! 6 O                                                       / F 0.a.[ i.: % * f R O w           ",
"            z i A z D B ; : j s +                                                           _ V i.F p./ : @ @ y O O           ",
"            x f i , f f * u J 6 ,                                                             j e.n.0.l.f ; > % = .           ",
"            x , 8 2 5 f ; g D w 1                                                             4 j r.V.i.0.: 3 + O X           ",
"            C x e 8 e a a k [ N <                                                               h I B.r.k.; & + O #           ",
"            0 z = e F / p.5.D r $                                                               8 g 0.l.P y o O @ =           ",
"              w % B V i.l.6.u 7                                                                 B u h i.f f 8 # 5 5           ",
"              9 @ F M u.n.3.G a                                                                   h d K s 5 5 % 8 8           ",
"              # # / F =.u.G r.                                                                    D G  .( X a O % %           ",
"              , ; p. .( i.6.6.                                                                      h K ! O ; 2 a 8 #         ",
"              9 5 p.0.J u.6.j J                                                                     h R D 8 7 d R a ,         ",
"              9 R ( F D 4.3.g D                                                                     f B ( y f H h.s 0 #       ",
"              q s 8 R R 4.d y a                                                                     7 f / t f  .a.7 q   $     ",
"          < 6 f # ; D 8.D y 3                                                                     r 8 d 8.7 a._ D ; M   ,     ",
"          8 2 , @ @ ! H * g f                                                                     q ; t 4.i i.i.a & 9         ",
"          & > $ , # p.F u d 3.                                                                      7 8 q.y 8.0.2 q z         ",
"        & q C 0 # % n.u.7.j [ s                                                                     a 0.f u I f # w           ",
"        X 0 Z < 5 @ Q u.x.j I D                                                                   a K K ; t 7.i # <           ",
"        # z C i o 7 q =.M.J H J f                                                               q 8 7./ 8 y ( 5 $ A           ",
"        4 3 C e O = R F l.d d F V                                                               y 7 K 9.R B D : @ z           ",
"          a x a , 5 f 7 [ ( u u d p                                                           f d / 0.6.( a.[ * @ <           ",
"          B 0 & f 6 K a F b.g h h 7 &                                                         f / ! N.3.h l.K ; 5 z <         ",
"          e 4 0 4 2 8 i.l.S.p.j I y h V 4     q $     O                                     ; h h K C.0.D p.7 @ o 0 $         ",
"            s c w i 5 f n.l.C.K a y a     4 i , 0 2 , 6 # e                             $ o = f J l.n.F f F % # O O.<         ",
"            9 6 Z O O a h v.l.n.f : ( ! H D $ 0 V q Z 4 s D 8                         r # = a D [ [ p./ 5 7 @ + z :.9         ",
"            x $ f e o @ F S _ 0.B e f e.K R 4 % y o O q a K f                   4 N V V i 5 a l.p.R a : # ; o 0 O.<.          ",
"              o.9 8 F 8 R n.N.a.% 8 # ; F M u D i O 5 F D D K e f h u 7 V & $ 6 y D 4.f = 8 ! n.a.B % @ O = < x ,.            ",
"              &.@.0 s a 7 F [ F @ = 8 O @ F d F 8 8 F u.N.V.r.f h h d f D % 8 V I j 7.D ) i.0.b.0.8 = o X % 6 A ;.            ",
"                <.:.Z z X 7 f f = . 5 f 8 y h.h.F % = p.A.C.t.h.e.k.B.l.I H H p.S.S.n.[ n.a.F f a q z 0 , # 8 ;.              ",
"                  :.>.Z $ o 8 8 a o # O O = a a F F D _ M.l.t.h.B.D.D.S.e.8 % u 8.S.n.Y v. .y t M z < 9 l 3 6 1.              ",
"                    Z <.c O . e e < 9 0 > o @ o o # # # s K B F b.A.C.A./ a d ( i.n.I M v.Y 7 * 3 < , $ z 2 0                 ",
"                        z 1 o 2 = + $ 1 l O O x 9 9 X . X 6 % = a t.S.c./ D F l.N.! u.8 K 8 % $ + > 9 % 2 M z                 ",
"                                s q 0 9 z C A 0 x Z O.< 6 9 9 # @ B a.V 5 @ = a [ b.} * * # 1 3 0     x z C                   ",
"                                M f 3 c x x Z x 0 z 0 < < $ $ 6 8 B 8 o o @ # o = B p , + , ,                                 ",
"                                q f B 8 , x C x Z +.+.0 $.C < 6 D a 9 x x < + X O > ,                                         ",
"                                    # % @ . + 0 1 0 , , $ , z M s w x c A +.+.z < + O                                         ",
"                                      $ O o X X O s @ . # = = 2 , z +.+.$.:.:.:.+.0                                           ",
"                                          < >   + @ O $ 9 < $ # 0 Z #.:.:.;.:.+.                                              ",
"                                                              +.Z +.$.:.$.O.                                                  ",
"                                                                                                                              ",
"                                                                                                                              ",
"                                                                                                                              "
};
