/* XPM */
static char *_ec11d433d14407b970b8d7f26fe9d2cD8rlvbaBZjJFp9Xa[] = {
/* columns rows colors chars-per-pixel */
"64 64 25 1 ",
"  c None",
". c black",
"X c #11262C",
"o c #13272E",
"O c #14282F",
"+ c #162B32",
"@ c #182D35",
"# c #192E37",
"$ c #193038",
"% c #1A313A",
"& c #1B333D",
"* c #1D353F",
"= c #1E3742",
"- c #1F3943",
"; c #213C47",
": c #213D49",
"> c #24424E",
", c #264653",
"< c #264654",
"1 c #264754",
"2 c #254955",
"3 c #264855",
"4 c #254956",
"5 c #299BF3",
"6 c #2A9DF8",
/* pixels */
"                                                                ",
"                                                                ",
"                                                                ",
"                                                                ",
"                                                                ",
"                    ,,,,,,                                      ",
"        ,,,,,,     ,,,,,,,,                                     ",
"        ,,,,,,,,,,,,,,,,,,,,                                    ",
"        ,,,,,,,,,,,,,.....,,,                                   ",
"        ,,,.....,,,,.......,,,                                  ",
"        ,,2...........,,-...,,,                                 ",
"        ,,,..........,,,,,...,,                                 ",
"        ,,,..66666...,,,,,$...,,                                ",
"        ,,,..666666...,,,,1>...,,                               ",
",,,,,,,,,,,..6666666...,,,1,,...,,,                             ",
",,,,,,,,,,,..66666666...,,,,,,...,,,,                           ",
",,,..........666666666...,,,,,,...,,,,                          ",
",,,..........6666666666..,,,,,,,...,,,,                         ",
" ,,..........666....6666..,,,,,,.....,1,,                       ",
" ,,,.........666.,,..6666..,,,,,,......1,,,                     ",
"  ,,,.........66.,,=..6666..,,,,,,.......21,,                   ",
"  ,,,.........666.,,o.66666..,,,,,,.......,,,,,                 ",
"   ,,,........666..,,@.66666..,,,,,,........,,,,,               ",
"   ,,,,.......6666..,,,.66666..,,,,,$..66.....,,,,,             ",
"    ,,,.......66666.,,,O.6666...,,,,,,..66.....,,,,,            ",
"     ,,.......666666..,,,.6666...,,,,,,..666.....,,,,,          ",
"      ,,......6666666.,,,,.6666...,,,,,,..6666.....,,,,,        ",
"      ,,,.....66666666.,,;..6666...,,,,,,..66666....,,,,,       ",
"      ,,,.....666666666.,,*..6666..,,,,,,...66666.....,,,,,     ",
"       ,,,....6666666666.,,&..6666..,,,,,,..6666666.....,,,,,   ",
"        ,,....66666666666.,,$..6666.,,,,,,,..66666666.....,,,,  ",
"        ,,,...66666666666.,,,,.6666.,,,,,,,..6666666666....,,,,,",
"        ,,,...66666666666.,,,,.6666.,,,,,,,..6666666666....,,,,,",
"        ,,,...66666666666.,,@..6666.,,,,,,,..66666666.....,,,,  ",
"       ,,1....6666666666.,,&..6666..,,,,,,..6666666.....,2,,,   ",
"       ,,,....666666666.,,=..6666..,,,,,,...66666.....,,,,,     ",
"      ,,,.....66666666.,,:..6666...,,,,,,..66666....,,,,,       ",
"      ,,,.....6666666.,,,,.6666...,,,,,,..6666.....,,,,,        ",
"     ,,,......666666..,,,.6666...,,,,,,..666.....,,,,,          ",
"     ,,.......66666.o,,,.6666...,,,,,,..66.....,,,,,            ",
"    ,,,.......66666.,,+..6666..,,,,,,..56.....,,,,,             ",
"   ,,,........6666.,,&..6666..,,,,,,........,,,,,               ",
"  ,,,,........666.,,@..6666..,,,,,,.......,,,,,                 ",
"  ,,,.........666.,:..6666..,,,,,,.......,,,,                   ",
"  ,,,........6666.,..6666..,,,,,,......,,,,                     ",
" ,,,.........6666...6666..,,,,,,.....,,,,,                      ",
",,,..........6666666666..,,,,,,.....,,,,                        ",
",,,..........666666666...,,,,,....,,,,1                         ",
",,,,,,,,,,,..666666666.,,,,,,...,,,,,                           ",
",,,,,,,,,,,..66666666..,,,,,,...,,,                             ",
"         ,,..6666666..,,,,,,...,,                               ",
"         ,,..666666..,,,,,,...,,                                ",
"         ,,..........>,,,,...,,,                                ",
"         ,,...........,,,...,,,                                 ",
"         ,,.....,,,,,......,,,                                  ",
"         ,,,,,,,,,,,,,....,,,                                   ",
"         ,,,,,,,,,,,,,,..,,,,                                   ",
"         ,,,,,     ,,,,,,,,                                     ",
"                    ,,,,,,                                      ",
"                                                                ",
"                                                                ",
"                                                                ",
"                                                                ",
"                                                                "
};
